<?xml version="1.0" encoding="UTF-8" standalone="no"?>
<!DOCTYPE svg PUBLIC "-//W3C//DTD SVG 1.0//EN" "http://www.w3.org/TR/2001/PR-SVG-20010719/DTD/svg10.dtd">
<svg width="49cm" height="25cm" viewBox="101 52 963 481" xmlns="http://www.w3.org/2000/svg" xmlns:xlink="http://www.w3.org/1999/xlink">
  <g>
    <rect style="fill: #ffffff" x="102" y="181" width="105" height="36"/>
    <rect style="fill: none; fill-opacity:0; stroke-width: 2; stroke: #000000" x="102" y="181" width="105" height="36"/>
    <text font-size="12.8" style="fill: #000000;text-anchor:middle;font-family:monospace;font-style:normal;font-weight:normal" x="154.5" y="202.2">Ingredient</text>
  </g>
  <g>
    <rect style="fill: #ffffff" x="422" y="182" width="74.2" height="36"/>
    <rect style="fill: none; fill-opacity:0; stroke-width: 2; stroke: #000000" x="422" y="182" width="74.2" height="36"/>
    <text font-size="12.8" style="fill: #000000;text-anchor:middle;font-family:monospace;font-style:normal;font-weight:normal" x="459.1" y="203.2">Recipe</text>
  </g>
  <g>
    <rect style="fill: #ffffff" x="961" y="182" width="58.8" height="36"/>
    <rect style="fill: none; fill-opacity:0; stroke-width: 2; stroke: #000000" x="961" y="182" width="58.8" height="36"/>
    <text font-size="12.8" style="fill: #000000;text-anchor:middle;font-family:monospace;font-style:normal;font-weight:normal" x="990.4" y="203.2">Step</text>
  </g>
  <g>
    <ellipse style="fill: #ffffff" cx="264.8" cy="125" rx="50.8" ry="18"/>
    <ellipse style="fill: none; fill-opacity:0; stroke-width: 2; stroke: #000000" cx="264.8" cy="125" rx="50.8" ry="18"/>
    <text font-size="12.8" style="fill: #000000;text-anchor:middle;font-family:monospace;font-style:normal;font-weight:normal" x="264.8" y="128.2">quantity</text>
  </g>
  <g>
    <polygon style="fill: #ffffff" points="718,199.48 768.8,169 819.6,199.48 768.8,229.96 "/>
    <polygon style="fill: none; fill-opacity:0; stroke-width: 2; stroke: #000000" points="718,199.48 768.8,169 819.6,199.48 768.8,229.96 "/>
    <text font-size="12.8" style="fill: #000000;text-anchor:end;font-family:monospace;font-style:normal;font-weight:normal" x="712" y="193.48"></text>
    <text font-size="12.8" style="fill: #000000;text-anchor:start;font-family:monospace;font-style:normal;font-weight:normal" x="825.6" y="193.48"></text>
    <text font-size="12.8" style="fill: #000000;text-anchor:middle;font-family:monospace;font-style:normal;font-weight:normal" x="768.8" y="202.68">includes</text>
  </g>
  <line style="fill: none; fill-opacity:0; stroke-width: 2; stroke: #000000" x1="819.6" y1="199.48" x2="961" y2="200"/>
  <line style="fill: none; fill-opacity:0; stroke-width: 2; stroke: #000000" x1="496.2" y1="200" x2="718" y2="199.48"/>
  <g>
    <polygon style="fill: #ffffff" points="267,200.48 317.8,170 368.6,200.48 317.8,230.96 "/>
    <polygon style="fill: none; fill-opacity:0; stroke-width: 2; stroke: #000000" points="267,200.48 317.8,170 368.6,200.48 317.8,230.96 "/>
    <text font-size="12.8" style="fill: #000000;text-anchor:end;font-family:monospace;font-style:normal;font-weight:normal" x="261" y="194.48"></text>
    <text font-size="12.8" style="fill: #000000;text-anchor:start;font-family:monospace;font-style:normal;font-weight:normal" x="374.6" y="194.48"></text>
    <text font-size="12.8" style="fill: #000000;text-anchor:middle;font-family:monospace;font-style:normal;font-weight:normal" x="317.8" y="203.68">requires</text>
  </g>
  <line style="fill: none; fill-opacity:0; stroke-width: 2; stroke: #000000" x1="422" y1="200" x2="368.6" y2="200.48"/>
  <line style="fill: none; fill-opacity:0; stroke-width: 2; stroke: #000000" x1="267" y1="200.48" x2="207" y2="199"/>
  <g>
    <polygon style="fill: #ffffff" points="961,81.17 1007.95,53 1054.9,81.17 1007.95,109.34 "/>
    <polygon style="fill: none; fill-opacity:0; stroke-width: 2; stroke: #000000" points="961,81.17 1007.95,53 1054.9,81.17 1007.95,109.34 "/>
    <text font-size="12.8" style="fill: #000000;text-anchor:end;font-family:monospace;font-style:normal;font-weight:normal" x="955" y="75.17"></text>
    <text font-size="12.8" style="fill: #000000;text-anchor:start;font-family:monospace;font-style:normal;font-weight:normal" x="1060.9" y="75.17"></text>
    <text font-size="12.8" style="fill: #000000;text-anchor:middle;font-family:monospace;font-style:normal;font-weight:normal" x="1007.95" y="84.37">substep</text>
  </g>
  <line style="fill: none; fill-opacity:0; stroke-width: 2; stroke: #000000" x1="961" y1="182" x2="961" y2="81.17"/>
  <line style="fill: none; fill-opacity:0; stroke-width: 2; stroke: #000000" x1="1019.8" y1="182" x2="1054.9" y2="81.17"/>
  <text font-size="12.8" style="fill: #000000;text-anchor:start;font-family:sans-serif;font-style:normal;font-weight:normal" x="257" y="195">
    <tspan x="257" y="195">n</tspan>
  </text>
  <text font-size="12.8" style="fill: #000000;text-anchor:start;font-family:sans-serif;font-style:normal;font-weight:normal" x="372" y="193">
    <tspan x="372" y="193">1</tspan>
  </text>
  <g>
    <ellipse style="fill: #ffffff" cx="258.35" cy="307" rx="62.35" ry="18"/>
    <ellipse style="fill: none; fill-opacity:0; stroke-width: 2; stroke: #000000" cx="258.35" cy="307" rx="62.35" ry="18"/>
    <text font-size="12.8" style="fill: #000000;text-anchor:middle;font-family:monospace;font-style:normal;font-weight:normal" x="258.35" y="310.2">description</text>
  </g>
  <text font-size="12.8" style="fill: #000000;text-anchor:start;font-family:sans-serif;font-style:normal;font-weight:normal" x="950" y="98">
    <tspan x="950" y="98">1</tspan>
  </text>
  <text font-size="12.8" style="fill: #000000;text-anchor:start;font-family:sans-serif;font-style:normal;font-weight:normal" x="1056" y="103">
    <tspan x="1056" y="103">n</tspan>
  </text>
  <text font-size="12.8" style="fill: #000000;text-anchor:start;font-family:sans-serif;font-style:normal;font-weight:normal" x="827" y="194">
    <tspan x="827" y="194">n</tspan>
  </text>
  <text font-size="12.8" style="fill: #000000;text-anchor:start;font-family:sans-serif;font-style:normal;font-weight:normal" x="706" y="193">
    <tspan x="706" y="193">1</tspan>
  </text>
  <g>
    <ellipse style="fill: #ffffff" cx="250.65" cy="262" rx="54.65" ry="18"/>
    <ellipse style="fill: none; fill-opacity:0; stroke-width: 2; stroke: #000000" cx="250.65" cy="262" rx="54.65" ry="18"/>
    <text font-size="12.8" style="fill: #000000;text-anchor:middle;font-family:monospace;font-style:normal;font-weight:normal" x="250.65" y="265.2">food name</text>
  </g>
  <g>
    <ellipse style="fill: #ffffff" cx="575.8" cy="354" rx="50.8" ry="18"/>
    <ellipse style="fill: none; fill-opacity:0; stroke-width: 2; stroke: #000000" cx="575.8" cy="354" rx="50.8" ry="18"/>
    <text font-size="12.8" style="fill: #000000;text-anchor:middle;font-family:monospace;font-style:normal;font-weight:normal" x="575.8" y="357.2">Abstract</text>
  </g>
  <g>
    <ellipse style="fill: #ffffff" cx="586.35" cy="305" rx="62.35" ry="18"/>
    <ellipse style="fill: none; fill-opacity:0; stroke-width: 2; stroke: #000000" cx="586.35" cy="305" rx="62.35" ry="18"/>
    <text font-size="12.8" style="fill: #000000;text-anchor:middle;font-family:monospace;font-style:normal;font-weight:normal" x="586.35" y="308.2">Recipe name</text>
  </g>
  <g>
    <ellipse style="fill: #ffffff" cx="557.55" cy="250" rx="31.55" ry="18"/>
    <ellipse style="fill: none; fill-opacity:0; stroke-width: 2; stroke: #000000" cx="557.55" cy="250" rx="31.55" ry="18"/>
    <text font-size="12.8" style="fill: #000000;text-anchor:middle;font-family:monospace;font-style:normal;font-weight:normal" x="557.55" y="253.2">URL</text>
  </g>
  <polyline style="fill: none; fill-opacity:0; stroke-width: 2; stroke: #000000" points="459.1,218 459.1,395 459,395 459,513 504,513 "/>
  <line style="fill: none; fill-opacity:0; stroke-width: 2; stroke: #000000" x1="458" y1="249" x2="526" y2="250"/>
  <line style="fill: none; fill-opacity:0; stroke-width: 2; stroke: #000000" x1="459" y1="306" x2="524" y2="306"/>
  <line style="fill: none; fill-opacity:0; stroke-width: 2; stroke: #000000" x1="459.5" y1="353.8" x2="524.5" y2="353.8"/>
  <g>
    <ellipse style="fill: #ffffff" cx="562.25" cy="462" rx="39.25" ry="18"/>
    <ellipse style="fill: none; fill-opacity:0; stroke-width: 2; stroke: #000000" cx="562.25" cy="462" rx="39.25" ry="18"/>
    <text font-size="12.8" style="fill: #000000;text-anchor:middle;font-family:monospace;font-style:normal;font-weight:normal" x="562.25" y="465.2">yield</text>
  </g>
  <g>
    <ellipse style="fill: #ffffff" cx="577.65" cy="409" rx="54.65" ry="18"/>
    <ellipse style="fill: none; fill-opacity:0; stroke-width: 2; stroke: #000000" cx="577.65" cy="409" rx="54.65" ry="18"/>
    <text font-size="12.8" style="fill: #000000;text-anchor:middle;font-family:monospace;font-style:normal;font-weight:normal" x="577.65" y="412.2">prep time</text>
  </g>
  <g>
    <ellipse style="fill: #ffffff" cx="553.8" cy="514" rx="50.8" ry="18"/>
    <ellipse style="fill: none; fill-opacity:0; stroke-width: 2; stroke: #000000" cx="553.8" cy="514" rx="50.8" ry="18"/>
    <text font-size="12.8" style="fill: #000000;text-anchor:middle;font-family:monospace;font-style:normal;font-weight:normal" x="553.8" y="517.2">category</text>
  </g>
  <line style="fill: none; fill-opacity:0; stroke-width: 2; stroke: #000000" x1="458.5" y1="408.8" x2="524" y2="409"/>
  <line style="fill: none; fill-opacity:0; stroke-width: 2; stroke: #000000" x1="458.5" y1="462.8" x2="523" y2="462"/>
  <line style="fill: none; fill-opacity:0; stroke-width: 2; stroke: #000000" x1="990.346" y1="218.936" x2="990" y2="340"/>
  <g>
    <ellipse style="fill: #ffffff" cx="878.2" cy="269" rx="66.2" ry="18"/>
    <ellipse style="fill: none; fill-opacity:0; stroke-width: 2; stroke: #000000" cx="878.2" cy="269" rx="66.2" ry="18"/>
    <text font-size="12.8" style="fill: #000000;text-anchor:middle;font-family:monospace;font-style:normal;font-weight:normal" x="878.2" y="272.2">index number</text>
  </g>
  <g>
    <ellipse style="fill: #ffffff" cx="880.35" cy="339" rx="62.35" ry="18"/>
    <ellipse style="fill: none; fill-opacity:0; stroke-width: 2; stroke: #000000" cx="880.35" cy="339" rx="62.35" ry="18"/>
    <text font-size="12.8" style="fill: #000000;text-anchor:middle;font-family:monospace;font-style:normal;font-weight:normal" x="880.35" y="342.2">description</text>
  </g>
  <line style="fill: none; fill-opacity:0; stroke-width: 2; stroke: #000000" x1="944.4" y1="269" x2="989" y2="270"/>
  <line style="fill: none; fill-opacity:0; stroke-width: 2; stroke: #000000" x1="942.7" y1="339" x2="989" y2="339"/>
  <line style="fill: none; fill-opacity:0; stroke-width: 2; stroke: #000000" x1="317.8" y1="170" x2="264.8" y2="143"/>
  <line style="fill: none; fill-opacity:0; stroke-width: 2; stroke: #000000" x1="154.5" y1="217" x2="154" y2="353"/>
  <line style="fill: none; fill-opacity:0; stroke-width: 2; stroke: #000000" x1="196" y1="307" x2="154" y2="306"/>
  <line style="fill: none; fill-opacity:0; stroke-width: 2; stroke: #000000" x1="196" y1="262" x2="155" y2="262"/>
  <g>
    <ellipse style="fill: #ffffff" cx="232.4" cy="352" rx="35.4" ry="18"/>
    <ellipse style="fill: none; fill-opacity:0; stroke-width: 2; stroke: #000000" cx="232.4" cy="352" rx="35.4" ry="18"/>
    <text font-size="12.7998" style="fill: #000000;text-anchor:middle;font-family:monospace;font-style:normal;font-weight:normal" x="232.4" y="356">type</text>
  </g>
  <line style="fill: none; fill-opacity:0; stroke-width: 2; stroke: #000000" x1="155" y1="352" x2="195" y2="352"/>
  <g>
    <ellipse style="fill: #ffffff" cx="372.4" cy="124" rx="35.4" ry="18"/>
    <ellipse style="fill: none; fill-opacity:0; stroke-width: 2; stroke: #000000" cx="372.4" cy="124" rx="35.4" ry="18"/>
    <text font-size="12.7998" style="fill: #000000;text-anchor:middle;font-family:monospace;font-style:normal;font-weight:normal" x="372.4" y="128">unit</text>
  </g>
  <line style="fill: none; fill-opacity:0; stroke-width: 2; stroke: #000000" x1="317.8" y1="170" x2="373.3" y2="140.8"/>
</svg>
