<?xml version="1.0" encoding="UTF-8" standalone="no"?>
<!-- Created with Inkscape (http://www.inkscape.org/) -->

<svg
   xmlns:dc="http://purl.org/dc/elements/1.1/"
   xmlns:cc="http://creativecommons.org/ns#"
   xmlns:rdf="http://www.w3.org/1999/02/22-rdf-syntax-ns#"
   xmlns:svg="http://www.w3.org/2000/svg"
   xmlns="http://www.w3.org/2000/svg"
   xmlns:sodipodi="http://sodipodi.sourceforge.net/DTD/sodipodi-0.dtd"
   xmlns:inkscape="http://www.inkscape.org/namespaces/inkscape"
   width="210mm"
   height="297mm"
   viewBox="0 0 744.09448819 1052.3622047"
   id="svg3759"
   version="1.1"
   inkscape:version="0.91 r13725"
   sodipodi:docname="child.svg">
  <defs
     id="defs3761" />
  <sodipodi:namedview
     id="base"
     pagecolor="#ffffff"
     bordercolor="#666666"
     borderopacity="1.0"
     inkscape:pageopacity="0.0"
     inkscape:pageshadow="2"
     inkscape:zoom="0.76289062"
     inkscape:cx="181.65643"
     inkscape:cy="804.50159"
     inkscape:document-units="px"
     inkscape:current-layer="layer1"
     showgrid="false"
     inkscape:window-width="1366"
     inkscape:window-height="705"
     inkscape:window-x="-8"
     inkscape:window-y="-8"
     inkscape:window-maximized="1" />
  <metadata
     id="metadata3764">
    <rdf:RDF>
      <cc:Work
         rdf:about="">
        <dc:format>image/svg+xml</dc:format>
        <dc:type
           rdf:resource="http://purl.org/dc/dcmitype/StillImage" />
        <dc:title></dc:title>
      </cc:Work>
    </rdf:RDF>
  </metadata>
  <g
     inkscape:label="Layer 1"
     inkscape:groupmode="layer"
     id="layer1">
    <g
       transform="matrix(1.25,0,0,-1.25,-505.63414,605.7305)"
       id="g3755"
       style="fill:#000000;fill-opacity:1">
      <g
         transform="translate(514.9746,454.1826)"
         id="g3694"
         style="fill:#000000;fill-opacity:1">
        <path
           inkscape:connector-curvature="0"
           id="path3696"
           style="fill:#000000;fill-opacity:1;fill-rule:evenodd;stroke:none"
           d="M 0,0 C -0.479,0.531 -0.955,1.063 -1.094,1.25 1.078,-0.253 -0.443,0.382 0.954,1.15 0.016,-0.729 1.17,0.779 2.301,-1.396 c 0,0.806 0.303,2.106 0.583,2.242 -0.329,-0.971 -0.238,-1.879 0.248,-2.723 0.721,0.729 0.862,1.588 0.432,2.587 0.665,0 0.665,-1.172 0.975,-1.551 0,0 0.379,1.025 0.154,1.941 C 4.984,0.779 4.918,0.328 5.663,0.142 5.434,0.859 4.838,2.662 4.984,3.34 5.943,1.311 6.555,-0.253 6.997,-0.625 7.195,-0.433 7.303,2.974 7.523,3.404 7.112,5.393 8.564,-0.633 8.893,0.929 8.808,2.077 8.535,3.211 8.108,4.306 8.564,3.978 9.684,2.13 9.824,1.551 10.426,2.801 8.93,4.832 8.93,5.777 9.545,5.438 11.427,1.183 11.729,0.382 c 0.144,1.34 -0.93,3.842 -0.625,4.108 0.248,-0.651 0.568,-1.925 0.656,-1.874 0.025,0.022 0.708,2.318 0.74,2.446 -0.375,-1.53 0.17,-2.416 1.153,-3.58 0.279,0.547 0.259,1.113 -0.099,1.695 0.583,-0.561 0.606,-1.994 1.378,-2.045 0.803,0.897 -1.148,2.707 0.443,0.657 -0.152,0.873 -1.053,2.995 -0.996,3.273 0.211,-0.982 0.695,-1.778 1.418,-2.363 0.349,0.894 -0.42,3.329 0.307,3.903 0.074,-2.624 0.296,-3.94 0.582,-4.6 0.224,0.889 0.446,1.917 0.763,2.678 -0.317,-2.275 0.197,-3.53 0.705,-4.21 0,1.286 0.112,5.107 0.772,5.769 -0.584,-1.356 -0.219,-3.951 0,-4.554 -0.291,-0.962 1.777,3.721 0.613,2.266 -0.06,-0.596 0.564,-1.746 1.085,-0.74 0.36,-2.461 -1.704,2.414 0.552,-1.764 0,0.892 0.074,2.614 0.15,3.283 0.141,-0.984 0.441,-2.632 0.737,-2.837 -0.147,0.806 -0.147,1.257 0.443,1.639 -0.152,-1.153 0.291,-1.981 1.343,-2.445 0.251,0.515 0.251,1.043 0,1.612 C 23.937,2.05 24.751,0.779 25.197,0.408 24.98,0.99 24.602,2.493 24.751,3.233 25.979,0.675 27.74,0.675 28.49,3.355 28.619,0.846 28.693,2.173 31.089,2.256 29.08,2.173 27.049,1.586 27.816,-1.19 c 0.446,0.712 1.116,2.18 1.778,1.969 -1.029,-0.248 -0.439,-1.436 -0.813,-1.882 0.582,0.374 2.617,1.341 2.842,1.055 -2.691,-0.745 -1.65,-1.711 -2.26,-2.306 0.535,0.309 3.446,1.251 3.446,1.251 0,0 -1.411,-0.656 -1.565,-1.038 0.547,0.168 1.017,0.179 1.959,0.144 -0.537,-0.224 -1.033,-0.739 -1.5,-1.455 1.006,-0.037 3.828,1.351 5.056,1.004 -1.122,-0.064 -2.312,-1.405 -2.687,-1.695 0.645,-0.254 3.606,0.023 4.102,0.355 -0.969,-0.307 -1.941,-0.609 -2.91,-0.895 0.966,-0.213 2.845,-0.424 3.73,-0.656 -1.113,-0.462 -2.184,-0.083 -3.389,-0.163 0.459,-0.072 3.178,-0.945 3.821,-1.498 -0.947,0.12 -1.668,0.424 -2.424,0.361 0.904,-0.414 5.152,-4.376 6.238,-5.292 -1.377,0.526 -3.285,0.903 -3.715,1.068 0.963,-0.905 3.121,-5.094 3.284,-5.526 -0.31,0.31 -0.909,1.19 -1.659,1.869 0.83,-0.969 2.173,-5.903 2.173,-6.557 0.441,-1.14 2.833,-22.022 -0.448,-23.349 14.174,5.729 1.829,-17.152 -4.514,-14.976 1.916,-0.668 -15.185,-22.343 0.198,-20.516 3.403,0.378 7.039,-6.227 10.093,-8.252 4.621,-3.122 16.469,-5.217 18.651,-10.933 1.606,-4.18 4.938,-7.296 6.593,-11.613 2.614,-6.7 4.834,-13.601 7.067,-20.457 1.017,-3.11 7.963,-27.201 6.735,-28.061 -4.359,-3.028 -4.036,-1.618 -2.499,-7.256 1.655,-6.018 3.46,-11.97 4.406,-18.135 1.954,-12.881 3.081,-25.789 3.684,-38.779 0.305,-6.25 7.541,-11.781 8.274,-18.515 0.105,-1.062 -3.901,-7.624 -4.838,-8.225 -2.7,-1.716 -5.452,-6.912 -9.608,-6.912 -1.843,0 -4.64,10.698 -4.781,10.586 -1.715,-1.709 1.988,-4.79 -1.65,-6.418 -2.243,-1.022 -3.756,5.328 -3.576,6.746 1.191,9.346 2.911,20.432 1.867,29.85 -0.649,6.116 -13.602,50.424 -15.482,49.113 -2.116,-1.428 0.372,-20.134 0.435,-22.66 0.246,-9.853 -0.037,-19.804 1.127,-29.613 0.547,-4.645 1.893,-7.516 -2.029,-9.567 -1.58,-0.787 0.459,-16.132 0.459,-18.207 0.008,-10.421 1.298,-20.153 0.689,-30.599 -1.289,-22.596 -3.591,-44.88 -5.75,-67.15 -1.018,-10.46 -2.03,-21.004 -6.754,-30.688 -2.25,-4.731 6.284,-5.527 8.75,-9.314 2.606,-4.007 -0.766,-11.411 -2.281,-15.161 -4.08,-10.013 -3.028,-10.433 0.285,-20.806 3.818,-11.934 -15.123,-8.586 -22.117,-8.461 -11.038,0.181 -11.441,3.458 -6.946,11.821 2.873,5.331 -1.438,7.243 -4.427,10.353 -4.726,4.919 -3.264,8.689 -1.394,14.837 1.462,4.82 4.583,10.496 5.31,15.322 0.742,4.69 -5.829,9.422 -6.509,14.756 -1.066,8.181 7.184,13.52 4.205,21.51 -3.826,10.229 -4.622,17.2 -4.579,28.073 0.019,12.483 -1.115,24.056 -2.077,36.592 -0.056,0.849 0.064,2.728 -0.798,3.308 -3.959,-12.958 0.092,-23.797 0.582,-36.875 0.267,-7.014 -0.9,-11.715 -3.492,-18.023 -2.469,-6.029 -1.545,-11.098 -0.983,-17.553 0.406,-4.718 0.766,-9.635 -1.417,-13.987 -3.566,-7.141 4.583,-5.968 3.436,-12.492 -2.234,-12.775 -3.197,-25.609 -2.761,-38.447 0.385,-10.868 -14.918,-1.976 -18.412,-9.35 -1.88,-3.961 -12.112,-7.3 -15.967,-6.078 -3.684,1.156 -23.342,-0.246 -22.435,5.991 1.147,8.121 11.414,11.669 17.199,16.168 7.24,5.562 -2.151,16.687 -0.862,23.683 1.645,8.957 16.395,12.229 11.669,22.058 -4.745,9.833 -8.61,18.145 -10.76,29.134 -1.565,7.885 -0.426,16.96 -0.407,24.971 0.037,8.152 0.621,16.538 -0.019,24.685 -0.382,4.894 -1.271,9.746 -1.557,14.629 -0.211,3.754 -10.029,6.972 -11.102,11.49 -1.791,7.568 -0.117,12.927 1.073,20.141 0.894,5.392 -1.594,13.101 -1.909,18.678 -0.71,12.46 -1.38,25.092 -0.499,37.6 0.336,4.576 -3.774,3.137 -3.981,5.55 -0.379,4.942 1.469,13.249 2.377,18.364 2.264,12.791 2.621,27.052 6.666,39.351 2.492,7.552 5.883,14.184 13.014,18.284 4.344,2.475 10.09,2.43 11.304,7.943 0.544,2.461 11.028,1.455 12.357,7.191 1.233,5.252 -3.102,17.303 -6.024,21.102 0.439,-0.561 -3.307,-0.874 -4.211,-0.046 -1.942,1.765 -3.097,4.184 -4.86,6.114 -1.554,1.698 -4.054,5.827 -2.783,8.444 1.729,3.732 4.647,0.272 7.016,0.125 -1.088,0.067 -0.825,9.717 -2.438,7.414 1.283,1.879 1.949,13.268 1.791,13.204 1.055,1.973 -0.611,3.74 0.094,5.582 -0.26,-0.101 0,0.208 -0.31,-0.101 0.483,1.236 0.633,2.24 1.519,3.432 -0.531,-0.37 -0.291,0.23 -0.75,-0.221 0.318,0.897 1.795,2.68 2.24,2.998 -0.36,0.064 -0.582,-0.318 -1.258,-0.379 2.697,1.498 3.282,3.212 5.067,5.612 -0.447,0.646 -2.828,0.573 -4.254,0.512 1.976,1.613 6.346,-1.398 5.296,1.792 0.678,-0.897 1.415,-0.23 2.245,-0.23 C -0.051,-3.599 0.172,-0.171 0,0" />
      </g>
    </g>
  </g>
</svg>
