<?xml version="1.0" encoding="UTF-8" standalone="no"?>
<!-- Created with Inkscape (http://www.inkscape.org/) -->
<svg
   xmlns:dc="http://purl.org/dc/elements/1.1/"
   xmlns:cc="http://creativecommons.org/ns#"
   xmlns:rdf="http://www.w3.org/1999/02/22-rdf-syntax-ns#"
   xmlns:svg="http://www.w3.org/2000/svg"
   xmlns="http://www.w3.org/2000/svg"
   xmlns:sodipodi="http://sodipodi.sourceforge.net/DTD/sodipodi-0.dtd"
   xmlns:inkscape="http://www.inkscape.org/namespaces/inkscape"
   width="765"
   height="990"
   id="svg3610"
   sodipodi:version="0.32"
   inkscape:version="0.46+devel"
   version="1.0"
   sodipodi:docname="person-three.svg"
   inkscape:output_extension="org.inkscape.output.svg.inkscape">
  <title
     id="title3635">Person Outline</title>
  <defs
     id="defs3612">
    <inkscape:perspective
       sodipodi:type="inkscape:persp3d"
       inkscape:vp_x="0 : 526.18109 : 1"
       inkscape:vp_y="0 : 1000 : 0"
       inkscape:vp_z="744.09448 : 526.18109 : 1"
       inkscape:persp3d-origin="372.04724 : 350.78739 : 1"
       id="perspective3618" />
    <inkscape:perspective
       id="perspective3602"
       inkscape:persp3d-origin="0.5 : 0.33333333 : 1"
       inkscape:vp_z="1 : 0.5 : 1"
       inkscape:vp_y="0 : 1000 : 0"
       inkscape:vp_x="0 : 0.5 : 1"
       sodipodi:type="inkscape:persp3d" />
  </defs>
  <sodipodi:namedview
     id="base"
     pagecolor="#ffffff"
     bordercolor="#666666"
     borderopacity="1.0"
     inkscape:pageopacity="0.0"
     inkscape:pageshadow="2"
     inkscape:zoom="0.35"
     inkscape:cx="743.57143"
     inkscape:cy="508.57143"
     inkscape:document-units="px"
     inkscape:current-layer="layer1"
     showgrid="false"
     showguides="true"
     inkscape:guide-bbox="true"
     inkscape:window-width="778"
     inkscape:window-height="716"
     inkscape:window-x="0"
     inkscape:window-y="18" />
  <metadata
     id="metadata3615">
    <rdf:RDF>
      <cc:Work
         rdf:about="">
        <dc:format>image/svg+xml</dc:format>
        <dc:type
           rdf:resource="http://purl.org/dc/dcmitype/StillImage" />
        <dc:title>Person Outline</dc:title>
        <dc:contributor>
          <cc:Agent>
            <dc:title>Fabricatorz, Lu Fang, Jon Phillips</dc:title>
          </cc:Agent>
        </dc:contributor>
        <cc:license
           rdf:resource="http://creativecommons.org/licenses/publicdomain/" />
      </cc:Work>
      <cc:License
         rdf:about="http://creativecommons.org/licenses/publicdomain/">
        <cc:permits
           rdf:resource="http://creativecommons.org/ns#Reproduction" />
        <cc:permits
           rdf:resource="http://creativecommons.org/ns#Distribution" />
        <cc:permits
           rdf:resource="http://creativecommons.org/ns#DerivativeWorks" />
      </cc:License>
    </rdf:RDF>
  </metadata>
  <g
     inkscape:label="Layer 1"
     inkscape:groupmode="layer"
     id="layer1">
    <path
       d="m 363.7044,144.14656 c 0,0 -3.1395,3.13455 -6.279,0.62451 -3.1296,-2.50957 -10.0335,-18.19209 -10.0335,-18.19209 0,0 0,-8.78379 0,-8.78379 0,0 -0.6245,-4.3943 -0.6245,-4.3943 0,0 -4.3892,-4.38927 -4.3892,-4.38927 0,0 -6.904,-7.53389 -1.8899,-21.961655 5.0192,-14.427793 13.1831,-30.115475 19.4571,-34.504727 6.2691,-4.3943 17.5623,-8.153687 17.5623,-8.153687 0,0 6.9039,-1.88473 6.9039,-1.88473 0,0 8.7838,-0.630111 8.7838,-0.630111 0,0 1.2497,-3.139459 13.8028,2.514717 12.548,5.639069 17.5673,10.668319 26.9758,20.071799 9.4136,9.408628 11.9232,10.668517 12.548,17.567364 0.6346,6.898945 0,15.062828 0,15.062828 0,0 -1.2598,5.019142 1.2599,10.033262 2.5045,5.0243 5.6441,3.76452 1.2497,10.6684 -4.3943,6.89896 -8.7786,11.91821 -8.7786,11.91821 0,0 -5.0243,5.01422 -5.0243,5.01422 0,0 -2.5095,-3.13454 -2.5095,1.88966 0,5.01423 -2.5047,11.92325 -2.5047,11.92325 0,0 2.5047,26.34589 2.5047,26.34589 0,0 1.8846,1.88486 8.7887,3.13959 6.899,1.25484 16.9374,7.52882 26.9758,7.52882 10.0335,0 11.9232,0 11.9232,0 0,0 3.1345,3.75939 -5.0243,6.274 -8.1536,2.5097 -9.4086,2.5097 -4.3944,5.64422 5.0243,3.13958 14.4328,6.27398 14.4328,6.27398 0,0 13.1781,1.88485 20.707,8.15884 7.5288,6.27401 23.2164,35.12956 23.2164,38.89904 0,3.75938 8.7786,8.15379 6.2741,12.54811 -2.5146,4.38925 -3.1396,6.89893 -3.1396,6.89893 0,0 0.6256,5.0242 4.3943,10.66843 3.7646,5.64398 10.0385,24.46607 11.9182,30.11534 1.8797,5.64412 1.2549,8.78358 4.3943,17.56231 3.1345,8.78358 3.7595,18.82716 1.8798,21.33673 -1.8798,2.50463 -0.6301,8.78357 -3.7695,16.31252 -3.1346,7.52377 -0.6245,11.29323 -5.6441,15.05766 -5.0141,3.75937 -15.6826,7.52884 -15.6826,7.52884 0,0 -4.3943,0.62562 -4.3943,0.62562 0,0 0.6301,13.17307 2.5095,21.33169 1.8848,8.15378 0,21.33692 6.2741,38.89913 6.2792,17.56736 11.2933,50.19229 11.2933,50.19229 0,0 -3.7644,9.40851 -9.4136,15.05766 -5.6441,5.64926 -32.6199,13.80295 -32.6199,13.80295 0,0 4.3893,93.48068 1.2547,106.65868 -3.1394,13.17304 -5.0192,21.33681 -8.1587,23.21651 -3.1395,1.87969 2.5095,34.50462 0.6301,42.03344 -1.8797,7.52895 -3.7696,28.23072 -3.7696,28.23072 0,0 1.8899,13.80801 1.8899,13.80801 0,0 5.644,6.27399 5.644,6.27399 0,0 1.2499,13.16801 1.2499,13.16801 0,0 -1.2499,36.39437 -5.6442,48.93733 -4.3892,12.55315 -2.5095,16.31767 -2.5095,21.96683 0,5.64409 -7.529,30.11534 -7.529,30.11534 0,0 4.3944,35.12956 4.3944,35.12956 0,0 5.6441,6.904 5.6441,6.904 0,0 17.5674,12.5481 23.8464,16.94252 6.269,4.38925 24.4662,16.93736 24.4662,16.93736 0,0 7.5239,6.27398 6.9041,10.66326 -0.6347,4.3943 -5.0194,10.66347 -5.0194,10.66347 0,0 -15.0627,11.29315 -37.6491,4.39431 -22.5867,-6.89894 -57.7212,-25.72104 -57.7212,-25.72104 0,0 -20.7019,-10.66337 -20.7019,-10.66337 0,0 -4.3943,-5.64927 -4.3943,-5.64927 0,0 -0.6256,-5.01914 -0.6256,-5.01914 0,0 3.1344,-3.76442 3.1344,-3.76442 0,0 3.1396,-2.50957 3.1396,-2.50957 0,0 0,-5.64422 0,-5.64422 0,0 -6.899,-8.15873 -8.1588,-13.80787 -1.2498,-5.63919 -1.8798,-98.49996 -0.6245,-111.67291 1.2549,-13.17798 1.8848,-23.2164 3.1345,-26.98596 1.2549,-3.75433 2.5096,-6.89897 2.5096,-6.89897 0,0 -1.8847,-8.14862 -1.8847,-8.14862 0,0 0,-7.53389 0,-7.53389 0,0 5.6493,-15.68767 5.6493,-15.68767 0,0 -13.1731,-50.81724 -13.1731,-62.11037 0,-11.29832 -2.5096,-50.19231 -2.5096,-50.19231 0,0 -7.5338,-25.72115 -7.5338,-25.72115 0,0 -2.5046,-8.15871 -2.5046,-8.15871 0,0 -4.3943,6.26894 -8.1537,10.66828 -3.7645,4.38434 -1.2598,8.77877 -6.904,21.32685 -5.6491,12.55305 -18.1972,48.9425 -18.1972,48.9425 0,0 -10.0385,39.52891 -10.0385,39.52891 0,0 -8.7836,89.09142 -8.7836,89.09142 0,0 -15.6877,119.82658 -15.6877,119.82658 0,0 0,11.29338 0,15.05768 0,3.76453 -9.4085,17.56737 -10.0385,21.96167 -0.62,4.39431 4.3945,7.53388 -1.8796,14.42779 -6.274,6.904 -8.1536,16.94239 -15.0577,16.31756 -6.899,-0.6301 -33.8798,-1.25978 -38.2692,-7.53388 -4.3893,-6.27905 -1.2598,-40.77872 -1.2598,-40.77872 0,0 4.3994,-6.27399 4.3994,-6.27399 0,0 0,-37.6443 0,-37.6443 0,0 24.4663,-186.34148 24.4663,-186.34148 0,0 -1.8797,-24.4663 -1.8797,-24.4663 0,0 -2.5146,-42.03861 -2.5146,-42.03861 0,0 5.0242,-84.697 5.0242,-84.697 0,0 2.5046,-13.17799 2.5046,-13.17799 0,0 -4.3894,-6.26907 -4.3894,-6.26907 0,0 -11.9232,-3.13946 -11.9232,-3.13946 0,0 4.3944,-28.23072 4.3944,-28.23072 0,0 19.447,-94.11562 19.447,-94.11562 0,0 -8.1537,-11.91317 -8.1537,-11.91317 0,0 -10.0384,-66.50973 -10.0384,-66.50973 0,0 10.0384,-84.69712 10.0384,-84.69712 0,0 15.6875,-14.43273 21.9616,-17.57231 6.274,-3.13957 20.0719,-12.54809 20.0719,-12.54809 0,0 6.904,-8.15369 6.904,-8.15369 0,0 11.2933,-10.03851 15.0577,-11.91821 3.7594,-1.87968 4.3944,-3.13958 4.3944,-3.13958 0,0 -2.5147,-12.54809 -3.1396,-17.56734 -0.6256,-5.01916 -5.6492,-13.17284 -5.6492,-13.17284 z"
       style="fill:#2e3436;fill-opacity:1;fill-rule:evenodd;stroke:none"
       id="path3449" />
  </g>
</svg>
