<?xml version="1.0" encoding="UTF-8" standalone="no"?>
<!-- Created with Inkscape (http://www.inkscape.org/) -->
<svg
   xmlns:dc="http://purl.org/dc/elements/1.1/"
   xmlns:cc="http://creativecommons.org/ns#"
   xmlns:rdf="http://www.w3.org/1999/02/22-rdf-syntax-ns#"
   xmlns:svg="http://www.w3.org/2000/svg"
   xmlns="http://www.w3.org/2000/svg"
   xmlns:sodipodi="http://sodipodi.sourceforge.net/DTD/sodipodi-0.dtd"
   xmlns:inkscape="http://www.inkscape.org/namespaces/inkscape"
   width="765"
   height="990"
   id="svg3610"
   sodipodi:version="0.32"
   inkscape:version="0.46+devel"
   version="1.0"
   sodipodi:docname="person-four.svg"
   inkscape:output_extension="org.inkscape.output.svg.inkscape">
  <title
     id="title3635">Person Outline</title>
  <defs
     id="defs3612">
    <inkscape:perspective
       sodipodi:type="inkscape:persp3d"
       inkscape:vp_x="0 : 526.18109 : 1"
       inkscape:vp_y="0 : 1000 : 0"
       inkscape:vp_z="744.09448 : 526.18109 : 1"
       inkscape:persp3d-origin="372.04724 : 350.78739 : 1"
       id="perspective3618" />
    <inkscape:perspective
       id="perspective3602"
       inkscape:persp3d-origin="0.5 : 0.33333333 : 1"
       inkscape:vp_z="1 : 0.5 : 1"
       inkscape:vp_y="0 : 1000 : 0"
       inkscape:vp_x="0 : 0.5 : 1"
       sodipodi:type="inkscape:persp3d" />
  </defs>
  <sodipodi:namedview
     id="base"
     pagecolor="#ffffff"
     bordercolor="#666666"
     borderopacity="1.0"
     inkscape:pageopacity="0.0"
     inkscape:pageshadow="2"
     inkscape:zoom="0.35"
     inkscape:cx="743.57143"
     inkscape:cy="508.57143"
     inkscape:document-units="px"
     inkscape:current-layer="layer1"
     showgrid="false"
     showguides="true"
     inkscape:guide-bbox="true"
     inkscape:window-width="778"
     inkscape:window-height="716"
     inkscape:window-x="0"
     inkscape:window-y="18" />
  <metadata
     id="metadata3615">
    <rdf:RDF>
      <cc:Work
         rdf:about="">
        <dc:format>image/svg+xml</dc:format>
        <dc:type
           rdf:resource="http://purl.org/dc/dcmitype/StillImage" />
        <dc:title>Person Outline</dc:title>
        <dc:contributor>
          <cc:Agent>
            <dc:title>Fabricatorz, Lu Fang, Jon Phillips</dc:title>
          </cc:Agent>
        </dc:contributor>
        <cc:license
           rdf:resource="http://creativecommons.org/licenses/publicdomain/" />
      </cc:Work>
      <cc:License
         rdf:about="http://creativecommons.org/licenses/publicdomain/">
        <cc:permits
           rdf:resource="http://creativecommons.org/ns#Reproduction" />
        <cc:permits
           rdf:resource="http://creativecommons.org/ns#Distribution" />
        <cc:permits
           rdf:resource="http://creativecommons.org/ns#DerivativeWorks" />
      </cc:License>
    </rdf:RDF>
  </metadata>
  <g
     inkscape:label="Layer 1"
     inkscape:groupmode="layer"
     id="layer1">
    <path
       d="m 470.39937,381.29025 c 0.6446,-0.16592 1.2649,-0.3072 1.6279,-0.28141 0.1658,0.01 0.3475,0.0449 0.5134,0.0559 0,0 -2.1418,0.22773 -2.1418,0.22773 z m -64.2371,303.4367 c -2.0914,6.80308 -1.5723,14.64451 -2.0914,18.8222 -0.5247,4.18264 -1.5672,1.57227 -1.5672,13.06711 0,11.50481 -2.0964,35.02371 -4.7068,47.04768 -2.6154,12.02392 -2.6154,19.33613 -2.6154,27.18251 0,7.84131 -8.3604,41.81683 -8.3604,41.81683 0,0 -1.0426,15.16351 -1.0426,15.16351 0,0 -1.0427,5.22589 -1.0427,5.22589 0,0 -0.5292,-24.04292 -0.5292,-24.04292 0,0 -3.1397,-9.41359 -3.1397,-9.41359 0,0 -9.4085,-81.01824 -9.4085,-86.24918 0,-5.22592 -2.6104,-14.63936 -2.6104,-14.63936 0,0 2.0915,-6.79828 2.0915,-6.79828 0,0 1.567,-26.1342 1.567,-26.1342 0,0 2.6105,-12.02394 2.6105,-12.02394 0,0 3.1395,-29.79793 5.236,-56.45641 2.0863,-26.66329 8.8844,-63.77347 8.8844,-63.77347 0,0 2.0863,-10.45671 2.0863,-10.45671 0,0 5.755,18.29301 10.4567,71.61487 4.0969,46.4077 -2.3938,33.5219 2.0912,48.09082 2.0915,6.79817 4.183,15.16354 2.0915,21.95664 z m 102.9801,-368.01157 c 0,0 -2.0915,-2.09139 -2.0915,-2.09139 0,0 0.5247,-0.52472 2.6154,-3.13946 2.0914,-2.6154 -2.6154,-3.65353 -3.1395,-6.26905 -0.5248,-2.61542 -9.9275,-32.93236 -9.9275,-32.93236 0,0 1.0427,-6.79815 -1.0439,-11.49988 -2.0963,-4.7068 -1.0482,-21.43753 -1.5722,-31.88931 -0.5248,-10.45673 -7.3172,-16.72569 -14.1153,-20.3893 -6.7982,-3.65871 -15.6171,-6.29923 -21.4326,-5.74996 -24.708,2.36348 -23.5994,3.09418 -8.3652,-4.18273 0,0 1.0483,-8.36538 3.1343,-14.1153 2.0964,-5.74995 -0.519,-3.12939 -2.0863,-9.40854 -1.5672,-6.27398 -0.5247,-6.27398 0.5247,-13.59126 1.0427,-7.32219 -0.5247,-10.45673 -3.1395,-13.5963 -2.6105,-3.12432 -3.1346,-1.03822 -3.1346,-10.44664 0,-9.40853 -4.7017,-19.8703 -9.4085,-43.913254 -4.7068,-24.047988 -31.3702,-50.187225 -37.1151,-53.840872 -5.755,-3.658584 -13.5963,-4.706671 -19.3411,-4.706671 -5.755,0 -10.9808,3.658572 -10.9808,3.658572 0,0 -7.8363,1.5672 -13.0672,2.091373 -5.2259,0.524716 -12.0241,8.36523 -18.298,15.687546 -6.269,7.312107 -14.6345,29.273783 -17.2499,45.475546 -2.6104,16.20149 -1.5673,21.95661 -5.7499,38.67723 -4.1827,16.73591 -7.8414,24.04789 -7.8414,24.04789 0,0 3.1346,12.54809 3.1346,12.54809 0,0 17.9352,10.96577 17.9352,10.96577 0,0 4.354,6.53613 4.354,6.53613 0,0 -14.5185,7.25671 -30.6496,10.20467 -14.9922,2.74157 -16.7308,6.80322 -20.9084,30.32212 -4.1826,23.52383 -6.279,64.81661 -9.9376,95.13858 -3.6536,30.31695 18.8221,63.24943 21.9616,66.91305 1.9604,2.28791 7.2869,2.27277 10.9959,1.94012 1.7133,28.76989 2.4039,2.89257 -0.023,28.37681 -1.0428,10.9809 -2.6104,23.52396 -2.6104,23.52396 0,0 -1.0484,8.36534 -1.0484,8.36534 0,0 -3.1345,9.92755 -5.2257,17.77389 -2.0864,7.84133 0,26.13936 0,26.13936 0,0 0.5247,26.13926 0.5247,31.8892 0,5.7449 0,14.10532 0,14.10532 0,0 4.7017,62.73536 8.3604,89.91284 3.6637,27.18745 5.2308,65.87491 5.2308,65.87491 0,0 -0.5191,4.17756 -0.5191,4.17756 0,0 1.0427,4.17771 1.0427,4.17771 0,0 -1.5722,5.23094 -1.5722,5.23094 0,0 0.5291,5.22577 0,9.41344 -0.5191,4.17771 -3.1344,17.77401 -3.1344,17.77401 0,0 1.5722,12.54294 0.5246,33.45137 -1.0482,20.91355 5.2259,60.63902 7.8364,77.36482 2.6203,16.73073 9.9376,50.18725 12.0289,63.77346 2.0914,13.5963 1.5672,9.41357 1.5672,9.41357 0,0 3.6587,2.61542 3.6587,2.61542 0,0 2.1165,11.28327 -0.1357,14.84105 -3.598,5.65924 -17.1037,12.65395 -17.1037,12.65395 0,0 -1.5622,13.06709 -1.5622,13.06709 0,0 35.0086,-1.3506 41.8019,-1.88473 6.798,-0.51351 14.7854,1.09875 22.6217,-10.40136 7.8464,-11.50492 4.5657,-18.86738 4.5657,-18.86738 0,0 -1.5724,-6.27398 -1.5724,-6.27398 0,0 1.0484,-3.6587 1.0484,-3.6587 0,0 3.6587,3.6587 3.6587,3.6587 0,0 2.3182,12.14479 9.9275,25.61508 6.7982,12.02406 13.0721,8.88448 13.0721,8.88448 0,0 10.457,-1.04271 10.457,-1.04271 0,0 3.6534,-3.13453 3.6534,-3.13453 3.2453,-10.18451 2.8876,-10.08383 9.9377,-22.99968 6.2741,-11.50505 0.5191,-9.93774 0.5191,-9.93774 0,0 9.9376,-4.70173 9.9376,-4.70173 0,0 11.4949,-51.75456 11.4949,-51.75456 0,0 2.0964,-22.47563 2.0964,-22.47563 0,0 3.6535,-31.36514 3.6535,-31.36514 0,0 3.1396,-17.24984 3.1396,-17.24984 0,0 1.5623,-25.62024 1.5623,-25.62024 0,0 5.2308,-25.08622 6.803,-41.28774 1.5672,-16.21172 -1.5722,-15.16362 -2.0913,-22.99989 -0.5247,-7.84625 0,-8.89446 -2.0914,-23.00976 -2.0912,-14.11542 2.6105,-28.74482 2.6105,-28.74482 0,0 5.2257,-51.23029 5.2257,-51.23029 0,0 8.8947,-59.07182 14.1205,-77.89391 5.2258,-18.81201 1.5622,-22.99474 1.5622,-39.73062 0,-16.72064 0.5292,-20.90831 0.5292,-20.90831 0,0 -5.7548,-27.18251 -10.9808,-46.52372 -5.231,-19.34111 -5.7449,-19.34111 -6.2739,-28.74961 -0.4989,-9.06087 0.917,-17.08358 1.0224,-17.66818 7.1913,0.71532 16.2319,3.55275 16.2319,3.55275 0,0 4.1777,0 8.8845,-4.70174 4.7017,-4.70679 7.8361,-27.71162 8.8844,-33.97564 1.0427,-6.27892 1.5722,-21.9666 1.5722,-21.9666 0,0 2.0914,-3.13442 2.0914,-3.13442 0,0 -1.5722,-4.17779 -1.5722,-4.17779 z"
       style="fill:#2e3436;fill-opacity:1;fill-rule:nonzero;stroke:none"
       id="path3445" />
  </g>
</svg>
