<?xml version="1.0" encoding="utf-8"?>
<!-- Generator: Adobe Illustrator 18.0.0, SVG Export Plug-In . SVG Version: 6.00 Build 0)  -->
<!DOCTYPE svg PUBLIC "-//W3C//DTD SVG 1.1//EN" "http://www.w3.org/Graphics/SVG/1.1/DTD/svg11.dtd">
<svg version="1.1" id="Слой_1" xmlns="http://www.w3.org/2000/svg" xmlns:xlink="http://www.w3.org/1999/xlink" x="0px" y="0px"
	 viewBox="0 15.5 1024 722.1" enable-background="new 0 15.5 1024 722.1" xml:space="preserve">
<path fill="#000000"      d="
	M1023,685.4c0,0-45.4-34.6-44-142.8l9.9,51.1c0,0-11-134.6-12.6-152.7l6,30.8c0,0-5.5-132.4-14.3-158.2c0,0,13.8,42,14.8,54.8
	c-0.4-8-2.6-53.5-8.7-79l10.4,28.6c0,0-5.9-49.9-9.9-65.7l10.5,34.4c0,0-7.1-74.2-31.9-101.6c0,0,23.6,23.6,30.2,33
	c0,0-18.7-38.5-38.5-54.9l20.3,10.4c0,0-24.2-24.7-35.2-31.3l15.9,7.7c0,0-18.7-30.2-45-30.8c0,0-44.5-62.1-114.8-75.8
	c0,0-84.6-23.1-169.8,16.5c0,0-58.8,16.5-86.3,12.1c0,0-70.5-11.5-84.7-7.1c0,0,14.4-17.6,30.3-17.6c0,0-6-3.8-27.5,2.2
	c0,0,11.5-6,18.1-6.6c0,0-24.7-7.7-64.8,2.2c0,0,11-7.9,29.7-8.3c0,0-9.3-2.8-33.5,0c0,0,3.3-4.3,15.4-5.4c0,0-8.2-4.9-31.9,6
	c0,0,5-12.1,22-14.8c0,0-37.5-2.3-61.6,22.4c0,0-5.2,6.4-19.7,22.7c0,0-8.1,0.1,4.5-17.1l-25.9,20.3l5.3-11.3
	c-17.4,5.7-24.6,23.2-24.6,23.2c-2-4.6,7.3-14.6,7.3-14.6c-17.3,3.3-27.2,31.2-27.2,31.2c-10-9.3,4-26.6,4-26.6
	c-16.6,8.6-17.3,26.6-17.3,26.6c-13.3-11.9-34.5-8-34.5-8c9.3,0,16.6,6.6,16.6,6.6C202.9,95.8,189,119,189,119
	c23.9-20.6,31.2-10.6,31.2-10.6c-14.6-4-35.8,22.6-35.8,22.6c-13.4,9.9-31.9,34.5-31.9,34.5l13.9-4c-13.9,4-40.5,35.8-40.5,35.8
	l14.6-7.3c-11.3,8.6-25.2,25.2-25.2,25.2l14.6-8c-3.9,2.9-8.5,7.6-13.3,12.9c-0.8,0.9-1.6,1.9-2.5,2.8
	c-13.3,15.4-26.7,34.7-26.7,34.7c8.6-10,24.6-17.3,24.6-17.3c-29.2,15.9-53.1,86.3-53.1,86.3c6-3.3,19.3-8,19.3-8
	S47.6,334.1,39.6,368l5.7-6.5c-4.4,6.1-9.3,14.8-11.7,25.7l9.3-11.9c0,0-34.5,66.4-34.5,84.3l11-13.7c-4.2,6-12.9,22.1-15.4,54.9
	l15.7-31.9c0,0-12.6,35.8-4.6,63.7l4-25.2c0,0-3.1,19.4,19.3,43.1c0,0-6-17.3-0.7-27.9c0,0,0,27.2,8.6,31.9l0.7-13.3l6,16.6l2-13.9
	c0,0,2.7,8,11.3,13.9c0,0-2.7-7.3,0-11.9l4.7,5.5c0,8.8,16.6,36.3,16.6,36.3c-0.5,6.6,2.2,20.3,2.2,20.3c-4.9,8.8,2.1,58.8,2.1,58.8
	l5.5,36.3c2.2,20.9,18.7,25.8,18.7,25.8c4.4,4.9,16.5,6.1,16.5,6.1c22.5,7.2,29.7-2.5,29.7-2.5c4.9,5.7,18.4,0,18.4,0
	c17-9.7,17.5-28.1,17.5-28.1v7.5c5.2-7.1,2.7-25.8,2.7-25.8c-1.6-13.2,13.8-28,13.8-28l2.4,5.5v-12.6l3.7,3.8
	c2.7-18.1,25.5-42.3,25.5-42.3c33-47.2,2.8-81.9,2.8-81.9c1.1-63.7,32.9-93.9,32.9-93.9s15.7-3.9,23,8.2v-8.3l6.3,11.6v-11.6
	c0,0,20.7,7.2,16.8,36.9l4.5-6.6c0,0-6.5,30.2-7.6,50.5l5-11c0,0-3.8,26.9-8.8,32.4c0,0-9.3,19.8,1.7,53.8c0,0-1.1,42.3-13.2,59.3
	c0,0-8.6,15.4-7,23.1c0,0-14.4,12.6-15.5,30.8l-12.1,22c0,0,16.5,10.4,65.9,0c0,0,2.5-7.7,1.5-15.4l2.9-11.3c0,0,7.6,7.1,1.1,16.8
	c0,0,14.8-4.9,12.6-52.7l4.9,29.7c0,0,4.5-27.5-4.3-53.3c0,0,1.7-21.4,4.8-29.7v17.1c0,0,7.3-24.8,8.4-33.6v9.6
	c0,0,10-16.2,4.5-37.6l6.2,7.1c0,0-1-15.9,3.4-19.2c0,0,14.3,27.2,16.5,29c0,0,22,63.9,5.5,89.7c0,0-15.9,20.9-14.8,26.4l-9.3,17.6
	c0,0,34.1,8.2,58.8-2.2c0,0,12.6-12.6,0-30.2c0,0,14.3,3.8,10.4,20.3c0,0,7.7-12.6-1.6-37.4c0,0,12.1,9.3,12.1,29.1
	c0,0,4.4-17-3.8-46.1l9.9,25.8c0,0-1.6-39.6-14.3-57.7l11,11.5L453.3,597c0,0,4.4,3.8,11.5,4.4c0,0-11.5-9.1-14.3-17.2
	c0,0,4.9,1.8,8.2,3.4c0,0-15.4-24.7-17-33.5l12.6,17c0,0-11.5-28-11.5-31.9s6.6,7.7,6.6,7.7s-3.8-23.1-6.6-35.2l7.1,9.9
	c0,0-10.4-44-15.4-54.9l11,8.8c0,0-9.3-14.8-6.6-25.8l5.5,9.3l1-14.9c0,0,96.2,45.7,196.2,8.8c0,0,28-8.8,39.6-8.8l-7.1-3.3
	l24.2-4.4c0,0,14.4,60.4,35.5,102.2c0,0,3.5,14.8-5.8,32.4c0,0-9.9,21.4-9.9,25.8l6-4.9l-31.3,54.4l-15.4,11.5
	c0,0-27.5,8.8-23.6,20.9l-15.4,25.3c0,0,35.2,12.1,64.8-2.7c0,0,6.6-4.9,5.5-16.5l6.6-6c0,0,8.8,11,5.5,17c0,0,3.8-6.6,6-12.1
	c0,0,0.2,12.6-2.6,17c0,0,13.4-5.5,13.4-21.4v10.2c0,0,7-6.4,7-13.5c0,0,4,12.6,0.1,18.7c0,0,19.3-10.4,12.7-48.9
	c0,0,5.5-30.2,6.6-38.5c0,0,14.9-13,14.9-34.8l2.8,12.2c0,0,7.7-34.6,7.1-41.8l4.4,7.1c0,0,5.5-20.3,7.7-24.7
	c0,0,12.6-28.6,3.3-40.1c0,0-9.9-20.9-4.4-33.5l25.8,37.9c0,0,19.8,37.4,32.4,44c0,0,20.9,15.9,20.9,59.9c0,0,2.7,31.9,0,39
	l-9.3,31.3c0,0-11.5,5.5-14.3,18.1l-8.2,22.5c0,0,15.4,13.2,63.2-5.5c0,0,4.4-13.7,0-21.4l6-5.5c0,0,6,10.4,4.4,14.3
	c0,0,4.4-7.1,6-12.6c0,0,1.1,5.5,0,13.7c0,0,6-10.4,6.6-20.3c0,0,7.7,15.9,4.4,21.4c0,0,17-24.7-1.6-51.6c0,0-9.9-9.3-11-18.1
	c0,0,4.9,6.6,7.1,6.6c0,0-9.7-36.9-11.1-66.5c14.2,43,38,87.2,76.5,127.5c0,0-22-28.6-28-50C969.7,636.5,993.3,687.6,1023,685.4z
	 M888.9,420.1l6,11c0,0-7.1-31.9-0.5-52.7c0,0,10.1-14.1,18.8-40.6v0c0,0-14.1,49.8-10.8,118.1C896.5,447.8,889.6,435.4,888.9,420.1
	z"/>
</svg>
