<?xml version="1.0" encoding="UTF-8" standalone="no"?>
<!-- Created with Inkscape (http://www.inkscape.org/) -->

<svg
   xmlns:dc="http://purl.org/dc/elements/1.1/"
   xmlns:cc="http://creativecommons.org/ns#"
   xmlns:rdf="http://www.w3.org/1999/02/22-rdf-syntax-ns#"
   xmlns:svg="http://www.w3.org/2000/svg"
   xmlns="http://www.w3.org/2000/svg"
   xmlns:sodipodi="http://sodipodi.sourceforge.net/DTD/sodipodi-0.dtd"
   xmlns:inkscape="http://www.inkscape.org/namespaces/inkscape"
   width="210mm"
   height="297mm"
   viewBox="0 0 744.09448819 1052.3622047"
   id="svg3360"
   version="1.1"
   inkscape:version="0.91 r13725"
   sodipodi:docname="semantics3b.svg">
  <defs
     id="defs3362">
    <marker
       inkscape:isstock="true"
       style="overflow:visible;"
       id="marker5235"
       refX="0.0"
       refY="0.0"
       orient="auto"
       inkscape:stockid="Arrow1Mend">
      <path
         transform="scale(0.4) rotate(180) translate(10,0)"
         style="fill-rule:evenodd;stroke:#000000;stroke-width:1pt;stroke-opacity:1;fill:#000000;fill-opacity:1"
         d="M 0.0,0.0 L 5.0,-5.0 L -12.5,0.0 L 5.0,5.0 L 0.0,0.0 z "
         id="path5237" />
    </marker>
    <inkscape:path-effect
       effect="spiro"
       id="path-effect5227"
       is_visible="true" />
    <marker
       inkscape:stockid="Arrow1Mend"
       orient="auto"
       refY="0.0"
       refX="0.0"
       id="Arrow1Mend"
       style="overflow:visible;"
       inkscape:isstock="true"
       inkscape:collect="always">
      <path
         id="path4263"
         d="M 0.0,0.0 L 5.0,-5.0 L -12.5,0.0 L 5.0,5.0 L 0.0,0.0 z "
         style="fill-rule:evenodd;stroke:#000000;stroke-width:1pt;stroke-opacity:1;fill:#000000;fill-opacity:1"
         transform="scale(0.4) rotate(180) translate(10,0)" />
    </marker>
    <inkscape:path-effect
       effect="spiro"
       id="path-effect5203"
       is_visible="true" />
    <inkscape:path-effect
       effect="spiro"
       id="path-effect5199"
       is_visible="true" />
    <inkscape:path-effect
       effect="spiro"
       id="path-effect4655"
       is_visible="true" />
  </defs>
  <sodipodi:namedview
     id="base"
     pagecolor="#ffffff"
     bordercolor="#666666"
     borderopacity="1.0"
     inkscape:pageopacity="0.0"
     inkscape:pageshadow="2"
     inkscape:zoom="0.16460626"
     inkscape:cx="-2227.0969"
     inkscape:cy="1052.5517"
     inkscape:document-units="px"
     inkscape:current-layer="layer1"
     showgrid="false"
     inkscape:window-width="1366"
     inkscape:window-height="705"
     inkscape:window-x="-8"
     inkscape:window-y="-8"
     inkscape:window-maximized="1"
     showguides="false" />
  <metadata
     id="metadata3365">
    <rdf:RDF>
      <cc:Work
         rdf:about="">
        <dc:format>image/svg+xml</dc:format>
        <dc:type
           rdf:resource="http://purl.org/dc/dcmitype/StillImage" />
        <dc:title />
      </cc:Work>
    </rdf:RDF>
  </metadata>
  <g
     inkscape:label="Layer 1"
     inkscape:groupmode="layer"
     id="layer1">
    <text
       xml:space="preserve"
       style="font-style:normal;font-weight:normal;font-size:180px;line-height:125%;font-family:sans-serif;letter-spacing:0px;word-spacing:0px;fill:#000000;fill-opacity:1;stroke:none;stroke-width:1px;stroke-linecap:butt;stroke-linejoin:miter;stroke-opacity:1;"
       x="-3494.2222"
       y="1606.401"
       id="text3418"
       sodipodi:linespacing="125%"><tspan
         sodipodi:role="line"
         id="tspan3420"
         x="-3494.2222"
         y="1606.401" /></text>
    <text
       xml:space="preserve"
       style="font-style:normal;font-weight:normal;font-size:180px;line-height:125%;font-family:sans-serif;letter-spacing:0px;word-spacing:0px;fill:#000000;fill-opacity:1;stroke:none;stroke-width:1px;stroke-linecap:butt;stroke-linejoin:miter;stroke-opacity:1"
       x="-4369.3516"
       y="1801.5739"
       id="text3426"
       sodipodi:linespacing="125%"><tspan
         sodipodi:role="line"
         id="tspan3428"
         x="-4369.3516"
         y="1801.5739" /></text>
    <g
       id="g3429">
      <path
         id="path4166"
         d="m -1324.4826,206.88865 c -9.3442,-2.5195 -18.3611,-9.9806 -22.8976,-18.9467 -3.0539,-6.036 -3.5577,-15.0266 -1.1075,-19.7647 2.0662,-3.9955 7.6271,-8.6358 13.4185,-11.197 l 4.9164,-2.1743 -1.8255,-6.3646 c -5.4107,-18.8641 -7.8422,-43.9216 -5.6385,-58.103401 2.9387,-18.9107 9.7726,-35.7668 20.7406,-51.15723 7.4963,-10.519 23.4153,-25.8963 34.4482,-33.2760999 30.5122,-20.4092961 55.7328,-23.3469961 105.0122,-12.2322 11.8274,2.6676 26.4719,2.9038 30.8742,0.4979 1.6671,-0.911096 3.6538,-2.860796 4.4149,-4.3326961 1.3439,-2.5988 4.6517,-21.6008 3.8923,-22.3602 -0.208,-0.2079 -6.6411,-1.2053 -14.2957,-2.2163 -47.5987,-6.2867 -76.0707,-16.4903 -86.6093,-31.0385 -4.1105,-5.6743 -3.7778,-6.3626 3.0824,-6.3761 9.7166,-0.019 35.1087,-2.5497 47.5782,-4.7413 21.7048,-3.8149 28.473,-2.9641 49.3577,6.2046 18.5642,8.1501 17.1422,7.9511 22.6879,3.1742 l 4.7259,-4.0707 -3.255,-4.2621 c -6.741,-8.8265 -19.1483,-28.021803 -23.6608,-36.605703 -5.634,-10.7172 -10.8753,-24.5783 -12.3184,-32.577 -2.0656,-11.4488 -0.8352,-25.6415 2.6966,-31.1071 1.1249,-1.7407 3.0545,-0.2664 22.2613,17.0067 27.6321,24.8503 30.1945,27.7186 36.6739,41.0524 6.5054,13.3871 10.6709,24.833603 12.3707,33.993603 1.0535,5.6773 1.4332,6.393 3.6462,6.8717 13.2152,2.8592 26.6416,9.3133 34.3965,16.5344 3.1709,2.9527 8.844,9.9136 12.607,15.4688 3.7629,5.5552 8.6119,12.2096 10.7756,14.7877 8.6585,10.317 10.2539,14.0832 7.5046,17.7151 -0.74,0.9778 -2.2278,4.4290001 -3.3062,7.6693961 -3.0858,9.2728 -6.0572,12.5991 -15.7063,17.5827999 -4.6371,2.3949 -9.724,5.827 -11.3042,7.6267 -4.3709,4.9781 -4.5515,6.5165 -3.8572,32.84353 0.3281,12.4419 0.2157,13.4555 -2.1596,19.4744 -7.4352,18.8403 -26.1164,42.651301 -41.7245,53.181901 l -4.8634,3.2812 -0.033,8.4375 c -0.03,7.6943 -1.7511,25.492 -3.6421,37.6574 -0.4142,2.6647 -0.4035,5.4695 0.024,6.233 0.4273,0.7635 2.9947,1.8848 5.7054,2.4916 2.7107,0.6069 6.0849,1.543 7.4983,2.0804 3.6498,1.3876 6.3364,6.2012 6.3364,11.3529 0,10.0276 -2.8379,11.4981 -20.6596,10.7056 -16.1419,-0.718 -20.1609,-2.6327 -26.0187,-12.3959 -3.4541,-5.757 -8.7311,-19.7997 -11.4496,-30.4687 -1.1168,-4.3828 -2.1815,-8.1203 -2.366,-8.3054 -0.1846,-0.1852 -1.6167,0.5756 -3.1826,1.6906 -5.9593,4.2434 -19.4085,9.2455 -43.1985,16.0667 l -4.2187,1.2096 4.2187,0.6935 c 2.3204,0.3815 8.0157,0.7252 12.6563,0.7638 12.1027,0.1008 28.4018,3.9265 33.3314,7.8236 2.658,2.1014 7.2578,9.6129 8.3341,13.6099 1.0233,3.8001 0.2197,7.6352 -1.6204,7.7335 -5.8906,0.3146 -83.2215,1.3483 -96.2951,1.2872 -19.5908,-0.092 -23.4715,-0.7557 -44.0625,-7.5407 l -10.3125,-3.3981 -9.033,4.3656 c -13.5866,6.5663 -25.5767,8.5363 -35.5645,5.8433 z"
         style="fill:#000000"
         inkscape:connector-curvature="0" />
      <path
         id="path4164"
         d="m -1218.4404,1011.6303 c -1.2851,-0.9722 -3.1746,-1.2138 -6.5625,-0.839 -4.5212,0.5002 -4.9844,0.3365 -9.3131,-3.2923 -2.5053,-2.1003 -5.5148,-3.8187 -6.6877,-3.8187 -2.4497,0 -7.4479,-5.13421 -11.1531,-11.45681 -3.5725,-6.0961 -9.5774,-21.28 -11.4298,-28.9014 -1.1916,-4.9024 -2.2296,-7.061 -4.0448,-8.4105 -1.343,-0.9985 -3.1358,-2.4845 -3.984,-3.3024 -2.2996,-2.2175 -7.3641,-12.1181 -7.3641,-14.3963 0,-1.0925 -1.2767,-3.7487 -2.837,-5.9028 -3.4574,-4.7726 -6.3342,-13.7845 -4.7191,-14.7826 0.7799,-0.482 0.6885,-0.9958 -0.3272,-1.8388 -0.7753,-0.6434 -1.8492,-0.8981 -2.3865,-0.5661 -0.5373,0.3322 -1.8669,-0.02 -2.9546,-0.7814 -1.1962,-0.8378 -3.1417,-1.1996 -4.9235,-0.9155 -2.1856,0.3485 -3.7927,-0.151 -6.2271,-1.9352 -7.4119,-5.4326 -8.7265,-6.0965 -10.35,-5.2276 -0.875,0.4682 -1.8093,0.6332 -2.0761,0.3663 -0.2668,-0.2669 -1.3971,0.6742 -2.5116,2.0911 -3.257,4.1406 -2.2891,6.8536 3.6217,10.1514 3.3785,1.8849 5.3011,3.6301 5.7172,5.1897 0.3449,1.2923 1.3238,3.6972 2.1754,5.344 3.0368,5.8725 0.7253,17.3925 -3.9969,19.9197 -3.0154,1.6139 -2.3469,3.2285 2.2641,5.4687 2.924,1.4206 4.2187,2.6288 4.2187,3.9368 0,1.9201 -1.3513,2.5555 -2.2707,1.0678 -0.2786,-0.4506 -2.8109,-1.9105 -5.6275,-3.2441 -2.8166,-1.3335 -5.6038,-3.3267 -6.1938,-4.4291 -0.9382,-1.753 -0.6507,-2.3912 2.2909,-5.0856 1.85,-1.6945 3.3636,-3.9215 3.3636,-4.9487 0,-1.6359 -0.4946,-1.8175 -3.9844,-1.4629 -4.9082,0.499 -9.7408,-2.2003 -11.1435,-6.2241 -1.0843,-3.1105 -6.3727,-7.5361 -9.0054,-7.5361 -0.9671,0 -2.5772,-0.6194 -3.5781,-1.3764 -2.3555,-1.7816 -4.5757,-1.7925 -6.0386,-0.03 -0.6419,0.7734 -1.8537,1.4107 -2.6929,1.4161 -3.1403,0.021 -12.3071,12.2579 -12.3071,16.4295 0,1.8855 -7.7954,9.8106 -9.6501,9.8106 -0.8436,0 -2.0216,-0.9112 -2.6176,-2.0249 -1.0135,-1.8937 -1.1446,-1.9162 -2.0228,-0.347 -0.5205,0.9302 -0.6822,3.8632 -0.3628,6.5811 0.5725,4.8706 0.5604,4.9 -1.83,4.443 -1.422,-0.2718 -2.7573,-1.3829 -3.2642,-2.7163 -1.2038,-3.1663 0.031,-24.5799 1.5966,-27.6862 1.4899,-2.9563 1.6592,-5.4372 0.371,-5.4372 -1.9092,0 -7.8428,6.2031 -10.5903,11.0713 -1.9892,3.5248 -3.8247,5.4873 -5.9709,6.384 -4.9003,2.0475 -6.8448,1.6625 -8.229,-1.6295 l -1.2295,-2.9243 -1.5377,2.1954 c -0.9077,1.296 -1.5377,4.0423 -1.5377,6.7036 0,4.6332 -1.8014,6.7731 -3.919,4.6555 -1.7889,-1.789 -2.0096,-9.2072 -0.4133,-13.8922 0.8359,-2.4531 1.5292,-5.7562 1.5407,-7.3401 0.011,-1.584 0.8458,-3.9346 1.8541,-5.2237 3.0507,-3.9001 2.4445,-4.6875 -3.6093,-4.6875 -4.4672,0 -6.1659,0.4782 -9.1589,2.5781 -2.021,1.418 -5.3444,3.4219 -7.3855,4.4532 -2.0411,1.0312 -6.1099,4.3007 -9.0419,7.2656 -2.9319,2.9648 -5.7605,5.3906 -6.2857,5.3906 -0.5252,0 -1.2303,0.8679 -1.567,1.9287 -0.8561,2.6973 -4.5388,3.9297 -7.5894,2.5397 -2.0765,-0.9461 -2.628,-0.8596 -3.6784,0.577 -0.6797,0.9296 -1.5127,3.3291 -1.8512,5.3325 -0.4831,2.8594 -0.1954,4.2323 1.3385,6.3864 4.2839,6.0162 0.9299,7.8945 -4.2636,2.3877 -2.6202,-2.7782 -3.1576,-4.0652 -3.1576,-7.5616 0,-4.5048 -1.2754,-7.8404 -2.9978,-7.8404 -0.5812,0 -3.1026,1.3128 -5.603,2.9173 -4.4821,2.8762 -7.0137,3.1787 -11.2828,1.3484 -2.7726,-1.1886 -5.645,4.6022 -4.9758,10.0312 0.4289,3.4788 0.2578,4.4531 -0.7817,4.4531 -2.5131,0 -4.3589,-4.3726 -4.3589,-10.3261 0,-6.362 1.2696,-9.4599 5.5413,-13.5212 1.5929,-1.5144 2.8962,-3.6616 2.8962,-4.7714 0,-3.9004 15.491,-14.0708 27.9725,-18.365 5.9159,-2.0354 14.2922,-7.8291 23.3907,-16.1789 8.1975,-7.5228 10.0164,-8.2025 12.9168,-4.8271 1.2303,1.4318 2.8946,2.3843 3.8459,2.2011 1.2857,-0.2476 0.5882,-1.1957 -2.9901,-4.064 -8.5675,-6.8677 -13.0899,-12.1144 -17.1179,-19.8596 -3.1284,-6.0153 -5.4393,-8.9631 -10.6563,-13.59373 -8.005,-7.1053 -12.3928,-13.3527 -20.2847,-28.8816 -3.2756,-6.4453 -7.5729,-13.4062 -9.5495,-15.4687 -10.0261,-10.4618 -15.7545,-22.3929 -19.2422,-40.0782 -0.2796,-1.4179 -1.1279,-2.5781 -1.885,-2.5781 -1.6644,0 -7.132,-10.617 -9.2475,-17.9568 -0.8402,-2.9151 -1.5277,-7.2017 -1.5277,-9.5256 0,-2.324 -0.8383,-6.8997 -1.8629,-10.1682 -1.8811,-6.001 -2.3722,-16.8717 -1.0308,-22.8179 0.4592,-2.0356 0.04,-3.9517 -1.5172,-6.9365 -1.939,-3.7165 -2.1516,-5.3956 -2.1516,-16.9902 0,-11.0707 0.2773,-13.4932 1.9873,-17.3589 l 1.9873,-4.4926 -3.2777,-7.1109 c -5.4569,-11.8387 -6.5948,-18.0384 -7.0384,-38.3478 -0.3877,-17.7544 -0.3568,-18.122 1.5667,-18.6249 2.3117,-0.6045 2.634,-2.1695 0.4468,-2.1695 -1.1739,0 -1.3802,-0.5812 -0.9152,-2.5781 0.3303,-1.418 0.9472,-6.375 1.371,-11.0156 0.4992,-5.4667 2.1596,-12.8938 4.7156,-21.0938 8.5772,-27.5173 10.4066,-33.6211 10.4066,-34.7217 0,-0.6299 1.844,-4.9931 4.0979,-9.6961 4.5795,-9.5559 4.9016,-13.0382 1.4636,-15.8221 -1.2382,-1.0027 -3.1015,-3.2227 -4.1407,-4.9334 -1.0393,-1.7109 -2.9961,-4.5162 -4.3485,-6.2343 -3.2326,-4.1063 -8.3111,-19.6672 -8.3634,-25.626 -0.023,-2.5768 -0.6491,-6.3726 -1.3922,-8.4351 -0.743,-2.0625 -1.3573,-4.5003 -1.3651,-5.4174 -0.017,-1.9553 5.1292,-12.4555 6.5274,-13.3197 0.5272,-0.3258 0.9585,-1.4604 0.9585,-2.5213 0,-1.5758 0.3863,-1.8053 2.1094,-1.2533 1.1601,0.3717 3.5859,0.8879 5.3906,1.1471 1.8047,0.2592 4.5469,1.6299 6.0938,3.0462 1.5468,1.4163 4.7463,3.4843 7.11,4.5956 4.9436,2.3243 7.281,4.618 10.3756,10.1812 3.27,5.8786 12.0202,15.4707 13.5703,14.8758 2.0557,-0.7888 6.8484,1.68 11.1246,5.7305 0.6545,0.62 1.4229,0.8943 1.7075,0.6097 0.6518,-0.6518 7.2057,1.4649 7.2057,2.3271 0,0.3505 3.4192,0.4821 7.5982,0.2923 6.6733,-0.3031 7.9374,-0.094 10.3858,1.7159 2.7332,2.0208 3.0394,2.0402 15.6987,0.9973 10.0666,-0.8294 13.4667,-0.8106 15.433,0.085 1.9953,0.9091 3.4739,0.905 7.08,-0.019 2.6991,-0.6918 8.602,-1.0469 14.4734,-0.8707 9.388,0.2816 9.9941,0.1852 11.3951,-1.8119 0.8138,-1.1602 2.0849,-2.1094 2.8248,-2.1094 0.7398,0 1.872,-0.8438 2.5161,-1.875 0.644,-1.0313 2.0866,-1.875 3.2058,-1.875 2.7167,0 6.6596,-4.8449 7.4613,-9.1682 0.8422,-4.5414 5.9941,-14.2258 10.4415,-19.6279 1.9347,-2.3498 4.3613,-6.0079 5.3926,-8.1289 1.3419,-2.76 3.7182,-5.1013 8.3589,-8.2356 3.5661,-2.4086 6.8566,-5.0454 7.3122,-5.8594 2.1096,-3.7697 9.8156,0.5129 12.4805,6.9361 0.9578,2.3085 2.0367,5.8944 2.3976,7.9688 0.3608,2.0742 1.2043,5.1125 1.8745,6.7518 1.0734,2.6258 0.9539,3.7975 -1.0046,9.8438 -1.2227,3.7747 -3.4537,9.3945 -4.9577,12.4882 -2.4072,4.9513 -2.657,6.2427 -2.0862,10.7813 0.3567,2.8359 0.8355,7.4704 1.064,10.2987 0.2285,2.8283 1.0138,6.0557 1.7451,7.1718 0.7313,1.1162 2.5985,5.8796 4.1494,10.5856 2.1336,6.4744 2.6084,9.1117 1.9517,10.8392 -1.2664,3.3308 3.7661,21.4354 7.8209,28.1359 0.6241,1.0313 2.1455,4.4063 3.381,7.5 1.2355,3.0938 3.2274,7.1987 4.4264,9.122 1.199,1.9234 2.18,4.0594 2.18,4.7468 0,0.6872 1.7408,4.1358 3.8684,7.6635 2.1276,3.5276 5.1723,9.8291 6.766,14.0033 2.6766,7.0102 2.9001,8.4951 2.9286,19.4555 l 0.031,11.8661 7.5,5.418 c 4.125,2.9799 9.0272,6.7654 10.8938,8.4121 1.8666,1.6467 6.4272,4.7656 10.1345,6.9308 5.1525,3.0092 8.1082,5.6469 12.5438,11.1943 3.1916,3.9917 8.5622,10.4581 11.9347,14.3699 3.3723,3.9117 7.2914,9.243 8.7088,11.8473 3.7581,6.9049 10.0937,25.8705 10.6665,31.9303 0.2717,2.8753 1.0003,6.0714 1.619,7.1026 0.6188,1.0313 2.0879,6.0938 3.2649,11.25 1.177,5.1563 2.7551,11.4844 3.507,14.0625 2.8164,9.6572 4.9405,34.3722 3.1826,37.0313 -0.785,1.1874 -1.2399,1.2138 -2.9245,0.1694 -1.0972,-0.6803 -2.175,-1.0567 -2.3952,-0.8365 -0.2202,0.2201 0.2856,2.8861 1.1239,5.9243 2.7506,9.9689 3.5391,14.8191 3.3361,20.524 -0.1101,3.0938 0.2114,7.3125 0.7144,9.375 0.503,2.0625 1.8036,8.3907 2.8905,14.0625 1.678,8.7576 3.9656,16.414 7.5629,25.3125 2.9731,7.3544 4.7654,23.00983 5.2591,45.93753 0.3943,18.3088 0.3562,18.7887 -1.6165,20.3907 -1.1111,0.9023 -2.8172,1.6406 -3.7914,1.6406 -2.0229,0 -2.2755,0.9956 -0.6618,2.6093 0.6102,0.6102 0.8347,1.3842 0.4989,1.72 -1.0059,1.0059 -5.8937,-1.4634 -8.7047,-4.3975 -1.4461,-1.5093 -3.4312,-2.7443 -4.4113,-2.7443 -1.5698,0 -1.7074,0.4745 -1.1555,3.9844 0.3445,2.1914 1.0086,5.25 1.4754,6.7968 2.108,6.9837 4.6034,18.6568 6.0125,28.125 0.844,5.6719 2.2113,14.1959 3.0383,18.9424 2.4133,13.8511 -0.3742,28.12651 -5.6967,29.17321 -2.0812,0.4093 -1.9417,-1.3731 0.3338,-4.266 3.3408,-4.24701 2.3966,-18.06831 -1.2342,-18.06831 -0.4994,0 -0.586,2.5517 -0.2067,6.0937 0.5294,4.9438 0.4016,6.0938 -0.6778,6.0938 -0.7317,0 -1.8713,-1.1602 -2.5326,-2.5781 -1.1274,-2.4177 -1.2493,-2.4614 -1.9596,-0.7032 -1.4187,3.5123 -1.0245,6.0938 0.9306,6.0938 2.6093,0 3.2387,1.6105 1.0806,2.76541 -2.7762,1.4859 -4.8989,1.1953 -7.2236,-0.98871 -1.3668,-1.2839 -2.534,-1.6933 -3.3417,-1.1718 -0.6827,0.4408 -2.085,0.8013 -3.1163,0.8013 -3.0926,0 -2.1287,2.54511 2.086,5.50721 3.5252,2.4776 4.2347,2.6592 6.4492,1.6502 2.8568,-1.3016 3.4723,-1.0319 2.6335,1.154 -2.1306,5.5524 -15.332,-0.2835 -17.7296,-7.83761 -0.8899,-2.8039 -2.3453,-2.2701 -2.3453,0.86041 0,1.7948 0.9704,3.7107 2.8125,5.5529 3.4397,3.4397 3.522,4.6084 0.4077,5.7924 -3.3974,1.2917 -7.1342,1.0853 -9.2437,-0.5107 z"
         style="fill:#000000"
         inkscape:connector-curvature="0" />
      <path
         id="path4160"
         d="m -421.53718,311.46172 c -11.3999,-2.4796 -13.73578,-3.9734 -15.76477,-10.082 -1.3402,-4.0348 -1.574,-6.6635 -1.09921,-12.3586 0.57454,-6.8918 0.46384,-7.4875 -2.34291,-12.6066 -1.62028,-2.955 -3.35138,-5.6234 -3.84692,-5.9296 -0.49552,-0.3062 -1.36129,0.7636 -1.92392,2.3776 -0.84307,2.4185 -1.45708,2.8843 -3.49137,2.6485 -3.59142,-0.4162 -4.69618,-4.7235 -4.76223,-18.5673 -0.0308,-6.4453 -0.68669,-15.3246 -1.45763,-19.7317 -0.77096,-4.4071 -2.23345,-14.5321 -3.25,-22.5 -1.8875,-14.7947 -4.84404,-24.5914 -10.7386,-35.5833 -1.24506,-2.3217 -4.43167,-11.603 -7.08134,-20.625 -2.64968,-9.0221 -5.61296,-19.0497 -6.58508,-22.2837 -1.65942,-5.5205 -4.33422,-10.6526 -16.58485,-31.8209 -5.22465,-9.0277 -7.19098,-10.2215 -8.3783,-5.0864 -0.3147,1.3611 -1.12869,3.3693 -1.80886,4.4625 -0.68018,1.0933 -3.21795,7.2105 -5.63951,13.5938 -2.42155,6.3833 -7.68338,18.1702 -11.69296,26.1932 l -7.29014,14.5871 -2.97699,16.8191 c -1.63734,9.2505 -3.76889,19.9925 -4.73677,23.8711 -1.5394,6.169 -1.73476,10.3117 -1.55996,33.0797 l 0.19982,26.0275 5.91185,5.8266 c 9.10295,8.9718 17.9944,18.9764 17.9944,20.2474 0,0.6301 -1.23914,1.5775 -2.75364,2.1055 -2.01089,0.701 -2.92411,1.7626 -3.3856,3.9355 -1.16539,5.4877 -2.61449,6.257 -11.78532,6.257 -9.1428,0 -25.2871,-2.7771 -29.84427,-5.1337 -3.87821,-2.0055 -4.73526,-4.6218 -4.71058,-14.3805 0.0154,-6.076 0.49115,-9.1791 1.875,-12.2288 2.13167,-4.6978 2.28606,-7.4939 0.77523,-14.0392 -0.75416,-3.2671 -1.46002,-4.5291 -2.34375,-4.1899 -0.69551,0.2669 -1.26457,1.0454 -1.26457,1.7301 0,0.6847 -0.45339,2.4326 -1.00753,3.8841 -0.97178,2.5455 -1.05497,2.5746 -2.34375,0.8194 -0.87196,-1.1876 -1.33622,-4.2274 -1.33622,-8.7492 0,-5.6441 0.51958,-8.1131 2.80132,-13.3118 2.82246,-6.4308 6.81051,-25.1304 8.50283,-39.8693 0.47363,-4.125 1.70333,-13.2896 2.73266,-20.3658 1.02933,-7.0763 2.12222,-18.8888 2.42865,-26.25 0.30643,-7.3613 1.14336,-16.3373 1.85983,-19.9467 0.71647,-3.6093 1.76402,-9.9375 2.3279,-14.0625 1.88656,-13.801 7.38677,-45.7727 10.64392,-61.8711 3.52068,-17.4009 3.4781,-17.7228 -2.23461,-16.888 -1.80469,0.2637 -11.08594,1.1054 -20.625,1.8705 -9.53906,0.7651 -20.92969,1.8097 -25.3125,2.3215 -15.47747,1.807 -36.42781,2.5788 -65.625,2.4173 -25.41966,-0.1406 -31.16284,-0.4431 -41.25,-2.1728 -6.44531,-1.1053 -16.14844,-2.7039 -21.5625,-3.5527 -5.41406,-0.8487 -12.14944,-2.3419 -14.96751,-3.3182 -2.81807,-0.9764 -5.63448,-1.7752 -6.2587,-1.7752 -0.62422,0 -3.94685,5.5299 -7.38362,12.2887 -4.07601,8.0159 -7.93026,14.1314 -11.08505,17.5886 -2.66,2.9149 -7.57856,8.5984 -10.93012,12.6296 -3.80819,4.5806 -9.96162,10.2677 -16.40625,15.163 -5.67188,4.3084 -14.74219,11.2805 -20.15625,15.4935 -5.41406,4.2131 -14.33642,10.776 -19.82745,14.5843 -10.97115,7.6091 -11.59442,8.526 -12.58748,18.5162 -0.67832,6.824 0.89638,12.3009 5.94107,20.6634 6.11319,10.1338 50.81197,68.1411 56.34663,73.1233 1.08106,0.9731 2.21666,3.2934 2.52356,5.1562 1.53286,9.304 6.74763,14.3699 23.16026,22.4995 11.48122,5.6869 17.6679,9.9137 19.48781,13.3142 0.78465,1.4661 0.50279,2.2432 -1.48002,4.0809 -2.06493,1.9136 -2.28476,2.5772 -1.40096,4.2286 1.3305,2.4861 0.82633,3.2489 -4.00875,6.0658 -4.8093,2.8018 -6.69005,3.0467 -15.65467,2.0387 -18.84143,-2.1188 -26.83312,-7.4029 -29.91253,-19.7783 -1.18347,-4.756 -4.59942,-11.2693 -5.45934,-10.4093 -0.25876,0.2588 -0.75361,1.8629 -1.09965,3.5649 -0.7411,3.6449 -3.57933,4.5672 -5.96009,1.9364 -1.43454,-1.5852 -4.44339,-11.1568 -4.44339,-14.1351 0,-3.5028 -8.76882,-19.1709 -21.24168,-37.9548 -12.74703,-19.1966 -28.99366,-40.238 -53.68767,-69.532 -8.28453,-9.8277 -9.11468,-11.4739 -8.51971,-16.8943 0.1124,-1.0241 1.48737,-3.4818 3.0555,-5.4617 3.40377,-4.2976 13.02233,-25.3491 11.79517,-25.8152 -0.47222,-0.1794 -10.4378,4.4509 -22.14572,10.2895 -11.70792,5.8386 -21.88707,10.7048 -22.62032,10.8137 -0.73326,0.109 -2.96394,1.8289 -4.95706,3.822 l -3.62388,3.6239 -1.06985,14.4822 c -1.43577,19.4357 -1.4276,28.7132 0.0516,58.5448 0.69029,13.9219 1.41125,33.2524 1.60215,42.9568 0.32586,16.5661 0.49419,17.9655 2.75476,22.9032 3.88415,8.4841 8.28936,13.109 15.84728,16.6379 4.16301,1.9437 8.86572,5.1911 12.52512,8.6491 7.05234,6.664 7.56381,9.1763 2.63376,12.9366 -1.95519,1.4913 -3.33985,3.4341 -3.51563,4.9326 -0.36458,3.1079 -2.46164,3.7359 -12.88636,3.8591 -11.36266,0.1343 -28.18493,-4.4851 -28.18493,-7.7396 0,-0.7354 -0.83448,-3.1761 -1.85441,-5.4239 -1.01992,-2.2477 -1.86367,-5.9159 -1.875,-8.1517 -0.0259,-5.1152 -2.90105,-16.1033 -4.20101,-16.0552 -0.53671,0.02 -1.8283,1.391 -2.8702,3.0469 -2.43653,3.8724 -4.09753,3.8032 -6.49058,-0.2705 -2.48713,-4.2338 -2.3838,-13.3871 0.42785,-37.903 2.37845,-20.7387 2.54695,-25.5666 1.5074,-43.1907 -0.4258,-7.2188 -0.73468,-15.0235 -0.68641,-17.3438 0.0483,-2.3203 -0.32447,-8.3202 -0.82831,-13.3332 -0.50383,-5.0129 -1.59405,-24.4549 -2.42271,-43.2043 l -1.50664,-34.09 3.45597,-5.4025 c 2.70164,-4.2233 4.40891,-5.8117 7.82189,-7.2772 24.78748,-10.6436 36.47326,-18.3017 40.44436,-26.505 1.10381,-2.2801 2.78416,-5.1338 3.73409,-6.3415 2.56163,-3.2565 7.29757,-19.8966 7.85921,-27.6140002 0.45207,-6.2115 0.0556,-8.22009998 -5.088,-25.7811998 -3.06804,-10.4747 -6.85758,-25.373 -8.4212,-33.1073 -1.56362,-7.7344 -3.45626,-16.143 -4.20587,-18.68581 -0.74961,-2.54278 -1.36939,-8.02716 -1.37728,-12.1875 -0.0219,-11.51016 -1.80663,-12.71484 -6.1471,-4.14938 -2.69215,5.31272 -8.67787,13.92891 -9.6765,13.92891 -0.36412,0 -1.12592,-0.46387 -1.69285,-1.03078 -1.04076,-1.04081 -2.18123,0.59625 -7.90257,11.34326 -1.80771,3.3956 -3.61555,4.9965 -9.26564,8.2047 -3.86086,2.1923 -8.8127,5.4828 -11.00411,7.3122 l -3.98438,3.3264 0,-8.2966 c 0,-4.5632 0.43167,-8.7283 0.95927,-9.2559 0.52759,-0.5277 1.36255,-5.5496 1.85546,-11.15984 0.49291,-5.61038 1.55644,-15.07163 2.3634,-21.02513 3.06457,-22.60959 2.53482,-20.98228 10.03277,-30.81834 3.7512,-4.92094 12.85573,-15.17017 20.23228,-22.77604 13.1954,-13.60559 13.54353,-13.88135 21.5625,-17.0801 19.06851,-7.60637 24.11113,-10.06286 33.77874,-16.45511 5.76181,-3.80973 15.41629,-9.00881 22.18982,-11.94954 13.76738,-5.97711 11.07179,-5.7016 50.69778,-5.18177 12.41805,0.1629 28.4493,-0.15402 35.625,-0.70428 50.11437,-3.84292 90.61894,-4.9886 133.04673,-3.76326 17.01562,0.49141 34.52344,1.29205 38.90625,1.77919 25.36707,2.81949 33.11398,2.38457 58.05441,-3.25923 17.18182,-3.88811 28.37603,-4.26259 44.60184,-1.4921 7.83891,1.33847 14.3602,1.7219 27.1875,1.59852 16.39143,-0.15765 17.13554,-0.25043 25.9668,-3.23782 5.00048,-1.69154 10.11758,-3.8824 11.37131,-4.86858 3.44089,-2.70661 5.57547,-8.0963 10.87859,-27.46792 2.65965,-9.71537 6.50441,-21.85276 8.54389,-26.97196 3.96589,-9.95455 4.34808,-12.52343 2.58758,-17.392 -1.41782,-3.92093 -6.22788,-5.59847 -17.85359,-6.22657 -11.13894,-0.6018 -15.38101,-2.79577 -23.01148,-11.9014 -13.42391,-16.01907 -15.11575,-20.89202 -19.58098,-56.3986 -0.30207,-2.40205 -0.26497,-5.88252 0.0824,-7.73438 0.55628,-2.96511 0.96342,-3.36702 3.41088,-3.36702 1.69802,0 3.41386,0.77566 4.41064,1.99387 3.26503,3.99035 12.74952,9.21334 22.83044,12.57245 11.32022,3.77206 15.63481,6.55141 24.73851,15.93593 3.09375,3.18918 7.3125,6.64184 9.375,7.67256 4.18857,2.09322 11.35794,3.47995 12.06624,2.33389 0.86957,-1.407 -3.66646,-12.85455 -7.08573,-17.88217 -3.69864,-5.4384 -25.10882,-26.13261 -38.73051,-37.43533 -4.64062,-3.8506 -14.0628,-11.0197 -20.93816,-15.93133 -6.87536,-4.91163 -16.45495,-12.55519 -21.28796,-16.98568 -4.833,-4.43049 -14.5086,-13.27875 -21.50131,-19.66279 -12.2761,-11.20752 -23.09372,-23.13992 -26.67841,-29.42763 -2.30299,-4.03956 -8.1107,-21.96069 -9.88761,-30.51069 -1.46389,-7.04384 -1.73708,-16.64717 -0.59165,-20.79808 0.73165,-2.65139 4.78437,-3.72559 6.36858,-1.68803 0.9732,1.2517 3.29888,10.35694 4.98086,19.50053 0.52168,2.83594 3.2905,9.88245 6.15293,15.65892 4.08581,8.24528 6.1505,11.29224 9.60607,14.17618 9.79889,8.1779 15.18291,10.62174 15.18291,6.8916 0,-0.94093 -1.0473,-4.78997 -2.32732,-8.55341 -3.29915,-9.69989 -6.10832,-25.47756 -6.10116,-34.26704 0.008,-9.58559 2.36756,-27.91744 4.23915,-32.93207 0.79431,-2.12825 2.28593,-4.6313 3.31471,-5.56233 1.67156,-1.51275 2.02166,-1.5416 3.29197,-0.27128 1.17609,1.17607 1.47031,5.37333 1.70432,24.31233 0.28449,23.0247 1.15983,29.9221 3.79739,29.9221 0.797,0 1.28486,-1.13243 1.31261,-3.04688 0.0243,-1.67578 0.48836,-4.52065 1.03125,-6.32193 0.54289,-1.80129 0.98708,-4.79886 0.98708,-6.66128 0,-4.05799 6.86318,-20.18659 11.67431,-27.43487 1.865,-2.80975 6.54158,-8.10145 10.39238,-11.75933 6.75987,-6.42123 7.16311,-6.65071 11.68613,-6.65071 l 4.68468,0 0,3.22022 c 0,4.65522 -1.03506,6.79909 -7.29833,15.11679 -11.29545,15.00049 -17.26809,28.43756 -18.51878,41.66299 -1.7795,18.8174 -0.34171,20.01543 18.99385,15.82655 11.38363,-2.46616 22.21666,-7.87082 29.05833,-14.49735 4.16756,-4.0365 5.88789,-5.02151 10.46755,-5.99338 9.78685,-2.07691 11.50618,0.76688 6.08968,10.07239 -5.31037,9.12316 -25.95161,20.98919 -44.5733,25.62387 -9.7878,2.43604 -12.05811,3.64175 -15.8338,8.40896 -2.5294,3.19362 -3.05686,4.65733 -3.00886,8.34962 0.032,2.46242 0.88211,6.32235 1.88912,8.57762 2.6351,5.90155 15.71299,17.92866 27.20471,25.01886 11.79746,7.27886 28.88451,19.41715 36.00268,25.57559 2.92414,2.52987 5.75813,4.59977 6.29776,4.59977 1.34415,0 7.81935,-8.81218 10.68322,-14.5389 6.36115,-12.72009 8.13793,-19.2122 8.9335,-32.6417 0.82458,-13.91923 1.51835,-15.79759 5.12236,-13.86879 3.93263,2.10469 4.29487,3.83917 4.55249,21.7981 l 0.24702,17.22004 -4.03744,8.90625 c -2.2206,4.89844 -4.99921,10.59375 -6.17469,12.65625 -2.59082,4.54583 -3.88123,14.47714 -2.27182,17.48437 1.92286,3.5929 13.29096,17.66728 14.36357,17.78296 0.56647,0.0611 1.54387,0.0457 2.17201,-0.0342 0.62815,-0.08 2.82618,0.71384 4.88453,1.76392 2.87462,1.46653 5.54603,1.90926 11.52035,1.90926 4.27786,0 9.12688,0.38688 10.77562,0.85972 2.09202,0.59999 4.57745,0.4472 8.22661,-0.50573 2.87591,-0.75101 5.58964,-1.14252 6.03051,-0.87005 2.05171,1.26803 5.66792,-8.62923 5.69042,-15.57417 0.0123,-3.77529 -10.09833,-25.9959 -14.41013,-31.67004 -2.41632,-3.1798 -2.45374,-3.4642 -2.45374,-18.64896 0,-12.81773 0.32407,-16.50808 1.92038,-21.86816 3.68508,-12.37385 11.7456,-17.19424 14.89597,-8.90817 1.43604,3.77709 1.24629,6.92674 -0.97909,16.25212 -2.81715,11.80513 -2.15694,17.83483 3.30728,30.20555 5.03426,11.39732 6.92587,14.62862 10.6482,18.18948 l 2.73659,2.61787 2.31522,-3.08662 c 1.27338,-1.69765 3.96894,-5.60219 5.99017,-8.67675 3.45316,-5.25278 6.2021,-8.436 24.85933,-28.7867 6.48727,-7.07612 7.57049,-8.75927 8.37825,-13.01859 1.14892,-6.05826 1.20166,-20.85141 0.09,-25.26084 -0.45496,-1.80469 -1.74076,-10.66406 -2.85733,-19.6875 -1.11658,-9.02344 -2.6151,-19.14844 -3.33005,-22.5 -0.71496,-3.35156 -1.54611,-7.57031 -1.84701,-9.375 -0.3009,-1.80469 -2.27299,-7.69729 -4.38243,-13.09468 -2.13946,-5.47423 -4.04876,-12.1671 -4.31801,-15.13645 -0.43119,-4.75526 -0.26702,-5.43845 1.53914,-6.40508 3.09857,-1.6583 6.4761,2.45655 11.50063,14.01121 8.78788,20.20909 11.67434,30.51986 16.19681,57.85686 4.90188,29.63049 5.04047,30.26814 6.57812,30.26814 3.1707,0 18.4076,-14.44862 21.45843,-20.34828 2.14083,-4.1399 1.98374,-13.30769 -0.445,-25.97158 -1.75703,-9.16146 -1.93161,-12.51852 -1.46707,-28.21139 0.50681,-17.12031 1.71098,-25.60122 4.50602,-31.73567 1.36552,-2.99698 2.76118,-3.1358 5.13822,-0.51107 1.62216,1.79119 1.84078,4.17687 2.38401,26.01563 0.59906,24.08329 1.54751,31.79831 4.89363,39.8067 0.79413,1.90061 1.83818,3.45566 2.32011,3.45566 0.48195,0 2.37946,-1.66386 4.21669,-3.69747 4.52573,-5.00943 9.97232,-21.73769 10.548,-32.39628 0.22279,-4.125 0.84492,-11.33977 1.38251,-16.03284 0.53758,-4.69306 0.85181,-8.91181 0.69827,-9.375 -0.15352,-0.46318 0.65515,-2.42419 1.79705,-4.35778 2.6453,-4.47932 6.793,-4.93223 9.35537,-1.02156 2.18961,3.34178 3.38664,29.53013 1.64291,35.94343 -0.63088,2.32031 -2.77674,10.92393 -4.76858,19.11914 -3.09919,12.75128 -4.24496,15.90989 -7.94382,21.89945 -6.76904,10.96106 -23.87541,30.83032 -30.1228,34.988 -2.96042,1.97019 -9.92135,7.52774 -15.46875,12.35012 -5.54739,4.82239 -13.46117,11.22178 -17.58617,14.22088 -9.60093,6.98039 -24.41781,21.47967 -26.9054,26.32866 -1.05808,2.0625 -3.41644,5.79904 -5.24078,8.30341 -4.00259,5.49457 -17.18406,28.92884 -16.6004,29.5125 0.22786,0.22787 1.89016,-0.71139 3.694,-2.08724 4.65747,-3.55242 14.52996,-7.79412 20.86747,-8.96568 3.62008,-0.66921 7.9064,-2.53138 12.95962,-5.63025 14.25456,-8.74157 22.07994,-11.3084 24.73228,-8.11251 1.66499,2.00618 0.2439,8.97017 -2.69969,13.22977 -3.36958,4.87603 -6.63403,11.497 -9.77933,19.83444 -3.15381,8.36007 -6.84912,13.99477 -14.5007,22.11109 -4.609,4.88894 -6.57174,6.33572 -8.5952,6.33572 -4.34378,0 -5.64005,0.87294 -5.012,3.37523 0.43488,1.73274 -0.0992,2.82312 -2.35043,4.79852 -3.46602,3.04138 -3.75671,6.19671 -1.03819,11.26889 2.89142,5.39476 2.24062,9.21477 -1.06087,6.22695 -2.43761,-2.20601 -4.214,-1.04802 -4.89147,3.18865 -0.32597,2.03852 -1.9114,6.52443 -3.52316,9.96869 -2.52375,5.39313 -2.94784,7.39554 -3.05561,14.42735 -0.11819,7.71159 0.0441,8.42961 2.92174,12.9281 2.88791,4.51452 3.04621,5.2234 3.03408,13.5872 -0.008,4.8533 -0.2764,9.80858 -0.59855,11.01175 -0.92447,3.45263 -15.57089,12.46301 -21.41991,13.1774 -4.5527,0.55606 -4.69548,0.66688 -4.96499,3.85377 -0.15262,1.80469 -0.8909,6.59738 -1.64062,10.65044 -0.7497,4.05304 -1.36311,11.91145 -1.36311,17.46313 0,13.0835 -4.55197,31.8716 -10.79172,44.54266 -7.49888,15.22791 -16.15632,29.89566 -21.24149,35.988 -2.74892,3.29344 -6.26367,7.74009 -7.81054,9.88153 -1.54688,2.14134 -5.81273,7.4624 -9.47967,11.8245 -6.23358,7.4151 -25.67658,34.6116 -25.67658,35.9158 0,1.073 -8.10389,13.2405 -9.69187,14.5518 -0.85696,0.7076998 -1.55813,1.8354998 -1.55813,2.5061998 0,2.6448 -5.30963,7.19050002 -20.80264,17.8097 -14.54932,9.9724002 -17.1238,11.3816002 -25.7253,14.0819002 -13.86344,4.3522 -13.64599,4.1224 -14.11543,14.9216 -0.62769,14.4397 4.79598,76.7683 8.16588,93.8421 1.73001,8.7651 2.79705,17.1352 2.80856,22.0312 0.0267,11.355 1.18256,17.9934 7.62491,43.7925 4.11472,16.4779 7.28825,26.8028 11.20669,36.4602 3.00654,7.4099 6.78162,18.8407 8.38908,25.4016 3.74607,15.2897 4.68865,17.1698 10.56368,21.0706 5.96477,3.9604 20.32207,17.3379 20.32207,18.9353 0,0.64 -0.85014,1.933 -1.88921,2.8733 -1.03907,0.9404 -2.14767,3.3261 -2.46357,5.3016 l -0.57436,3.5918 -6.20831,0.01 c -3.41456,0.01 -7.68486,0.194 -9.48955,0.4184 -1.80469,0.2245 -6.65625,-0.326 -10.78125,-1.2232 z"
         style="fill:#000000"
         inkscape:connector-curvature="0" />
      <path
         id="path4158"
         d="m -429.08202,861.08495 c -0.6187,-0.6187 -1.125,-2.0953 -1.125,-3.2812 0,-1.7811 -0.5001,-2.1563 -2.8741,-2.1563 -1.5808,0 -3.7355,-0.461 -4.7882,-1.0243 -1.3842,-0.7408 -2.1976,-0.7408 -2.9384,0 -1.9949,1.9949 -2.5243,0.956 -2.5243,-4.9547 0,-4.2072 0.4224,-6.3295 1.4257,-7.1621 0.7842,-0.6508 1.8857,-3.0101 2.448,-5.2427 0.5622,-2.2328 1.5678,-4.5124 2.2349,-5.066 1.9219,-1.5951 13.6678,-4.6752 17.8287,-4.6752 l 3.787,0 2.0586,-6.3281 c 2.3368,-7.1837 3.4438,-22.1847 3.0961,-41.9532 l -0.2144,-12.1875 -4.3667,-8.2031 c -2.4017,-4.5117 -4.6429,-8.2031 -4.9805,-8.2031 -0.3376,0 -1.2479,1.582 -2.0228,3.5156 -3.302,8.239 -17.8683,38.3403 -20.258,41.8631 -1.4327,2.112 -3.8078,6.0775 -5.2783,8.8122 -3.605,6.7045 -9.2472,11.7813 -12.2547,11.0265 -1.2395,-0.3111 -2.2573,-0.2412 -2.2618,0.1553 0,0.3966 -2.4303,2.2741 -5.3906,4.1723 -7.3842,4.7347 -18.4175,7.0231 -26.1968,5.4332 -2.9896,-0.6108 -6.1661,-1.7579 -7.0586,-2.5488 -1.2959,-1.1482 -1.902,-1.2068 -3.0059,-0.2906 -1.7101,1.4192 -3.3399,0.5261 -3.3399,-1.8302 0,-1.4445 -0.8155,-1.8207 -4.4531,-2.0541 l -4.4531,-0.2858 -0.2893,-4.0042 c -0.3129,-4.3311 0.537,-5.8408 7.9335,-14.0932 3.7568,-4.1914 4.1208,-4.364 10.3125,-4.888 3.53,-0.2987 8.3167,-0.2403 10.637,0.1299 3.7994,0.6061 4.7077,0.3537 9.1373,-2.5399 2.7052,-1.7671 5.3654,-3.9479 5.9118,-4.8462 0.5464,-0.8983 2.6033,-6.274 4.5708,-11.9458 1.9676,-5.6719 4.72,-13.2657 6.1164,-16.875 5.7037,-14.7431 7.37,-30.3003 3.825,-35.7106 -0.7899,-1.2058 -1.4363,-3.4856 -1.4363,-5.0664 0,-4.1627 -7.2052,-15.94 -9.7567,-15.9477 -1.1947,0 -2.5866,-1.1035 -3.5591,-2.8125 -0.8783,-1.5436 -2.2535,-2.8066 -3.0559,-2.8066 -0.8118,0 -2.4188,-1.9752 -3.6228,-4.4531 -1.3566,-2.7916 -2.6649,-4.323 -3.5066,-4.1045 -0.7384,0.1918 -1.9755,0.5079 -2.7489,0.7024 -1.3962,0.3511 -5.6165,-7.1768 -5.6322,-10.0465 0,-0.7244 -1.7444,-2.3093 -3.8676,-3.5221 -2.2695,-1.2963 -4.2826,-3.3238 -4.8851,-4.92 -0.7238,-1.9175 -1.4888,-2.5678 -2.6043,-2.2137 -1.1944,0.3791 -1.9755,-0.5358 -3.2037,-3.7518 -0.8934,-2.3393 -2.1689,-4.2532 -2.8345,-4.2532 -0.6656,0 -2.3096,-2.2148 -3.6532,-4.9219 -1.3437,-2.707 -3.3327,-6.6094 -4.4199,-8.6719 -1.0872,-2.0625 -2.4446,-4.7708 -3.0162,-6.0185 -1.6838,-3.6746 -3.3833,-3.5162 -3.3833,0.3155 0,1.8476 -0.4219,3.3593 -0.9375,3.3593 -0.5156,0 -0.9375,-1.2656 -0.9375,-2.8125 0,-1.5469 -0.4219,-2.8125 -0.9375,-2.8125 -0.5156,0 -0.9375,1.2922 -0.9375,2.8715 0,2.4396 -0.3172,2.8273 -2.1094,2.5781 -1.5848,-0.2204 -2.1839,0.2312 -2.409,1.816 -0.3365,2.3699 -2.0748,2.6547 -6.5917,1.0802 -2.6367,-0.9192 -2.9524,-1.4235 -2.9524,-4.7169 0,-4.4058 -1.7536,-5.4759 -5.2352,-3.1947 -2.2797,1.4938 -2.3895,1.9367 -2.0588,8.3062 0.1921,3.7006 0.6913,7.4666 1.1094,8.369 0.5547,1.1973 0.3531,1.6406 -0.7463,1.6406 -0.8287,0 -1.5066,-0.6982 -1.5066,-1.5516 0,-1.4437 -0.1192,-1.4437 -1.7144,0 -0.9429,0.8534 -2.2464,1.5516 -2.8966,1.5516 -1.4121,0 -4.6886,3.7321 -4.7328,5.3906 -0.042,1.5887 -1.9062,1.5016 -1.9062,-0.089 0,-2.0986 -3.0538,-4.1227 -7.2607,-4.8123 -2.1887,-0.3589 -4.2175,-1.0376 -4.5085,-1.5084 -1.3688,-2.2149 -2.2933,-0.368 -2.2933,4.5816 0,2.9906 -0.5062,5.9437 -1.125,6.5625 -0.875,0.875 -0.8303,1.125 0.2009,1.125 1.0738,0 1.0425,0.2834 -0.1647,1.4906 -1.3625,1.3625 -1.7497,1.3566 -4.5044,-0.068 -2.9479,-1.5244 -3.0003,-1.516 -2.3971,0.3844 0.3609,1.1372 0.2016,1.9429 -0.384,1.9429 -0.5504,0 -1.0007,-0.5063 -1.0007,-1.125 0,-2.2223 -1.7317,0.6648 -2.0373,3.3964 -0.3681,3.2919 -2.5663,4.3456 -3.2902,1.5774 -0.6245,-2.3881 -2.1602,-2.6202 -2.2037,-0.3332 -0.026,1.3763 -0.3282,1.2841 -1.875,-0.5726 -1.0141,-1.2173 -1.8438,-2.7745 -1.8438,-3.4603 0,-0.6859 -0.4692,-1.5371 -1.0428,-1.8915 -0.73,-0.4513 -0.912,0.6659 -0.6067,3.7246 0.4394,4.4029 -0.3867,6.285 -1.7952,4.0901 -0.5002,-0.7794 -0.9251,-0.085 -1.2367,2.0195 -0.5973,4.0335 -2.3795,4.7338 -3.2765,1.2873 l -0.6815,-2.619 -0.8459,2.2164 c -0.688,1.8024 -1.0992,2.0062 -2.2018,1.0912 -0.7456,-0.6189 -1.7519,-0.8804 -2.2361,-0.5811 -0.4842,0.2992 -1.1223,-0.086 -1.4179,-0.8568 -0.2956,-0.7705 -1.1485,-1.4009 -1.8951,-1.4009 -0.7466,0 -1.5703,-0.5274 -1.8304,-1.1719 -0.2601,-0.6445 -0.5061,-0.1977 -0.5469,0.9928 -0.041,1.2049 -0.4937,1.9053 -1.0206,1.5797 -0.5206,-0.3218 -2.0422,0.2769 -3.3814,1.3303 -1.826,1.4364 -2.8633,1.686 -4.148,0.9985 -0.9423,-0.5043 -1.8872,-0.9169 -2.0998,-0.9169 -0.2127,0 -0.7046,10.0195 -1.0931,22.2656 -0.3886,12.2461 -1.1224,29.6484 -1.6308,38.6719 -0.5084,9.0234 -0.8541,21.5035 -0.7683,27.7335 0.1545,11.2172 0.1325,11.3426 -2.263,12.9123 -1.9961,1.3079 -2.419,2.3089 -2.419,5.7267 0,2.278 -0.4219,4.4026 -0.9375,4.7212 -0.5156,0.3187 -0.9375,2.2662 -0.9375,4.3279 0,2.0617 -0.4759,6.63 -1.0575,10.152 -0.9877,5.9808 -1.2866,6.5323 -4.5281,8.3541 -8.2714,4.6487 -21.9512,6.0938 -32.2627,3.408 -2.9864,-0.7779 -5.8298,-1.167 -6.3186,-0.8649 -0.4889,0.3022 -2.3676,-0.7489 -4.1749,-2.3358 -1.8072,-1.5868 -3.6931,-2.885 -4.1908,-2.885 -1.682,0 -0.9094,-6.0709 1.2093,-9.5032 4.7189,-7.6445 11.6451,-10.394 17.1303,-6.7999 3.0682,2.0102 4.9282,1.1257 6.5954,-3.1368 0.7592,-1.9409 2.0616,-4.8801 2.8941,-6.5317 2.0453,-4.057 1.0271,-18.575 -2.2119,-31.543 -2.2963,-9.1936 -2.8217,-12.753 -4.8645,-32.9542 -0.5215,-5.1562 -1.3889,-10.8487 -1.9278,-12.65 -0.5389,-1.8013 -0.9798,-5.2143 -0.9798,-7.5844 0,-2.3702 -0.8744,-7.6464 -1.9432,-11.7249 -1.0687,-4.0786 -2.3205,-9.525 -2.7818,-12.1032 -1.9909,-11.1266 -1.7243,-10.5973 -5.6731,-11.2644 -5.4096,-0.914 -8.8765,2.1552 -9.5475,8.4519 -0.2747,2.5782 -1.1948,7.6407 -2.0447,11.25 -0.8499,3.6094 -2.1293,9.1772 -2.8432,12.3729 -0.7139,3.1956 -1.7466,6.6484 -2.2947,7.6728 -0.5483,1.0243 -0.9968,3.0713 -0.9968,4.549 0,1.4776 -0.4181,3.1047 -0.9292,3.6158 -0.5112,0.5112 -1.3041,2.8104 -1.7622,5.1094 -1.4313,7.184 -3.1162,13.4808 -4.1233,15.4094 -1.5184,2.9083 -7.2478,21.2385 -7.2478,23.1881 0,0.9638 -0.8557,2.9097 -1.9016,4.3244 -1.046,1.4147 -2.0368,4.078 -2.202,5.9185 -0.1651,1.8404 -1.6297,6.0066 -3.2546,9.2584 -1.6248,3.2516 -2.9543,6.815 -2.9543,7.9185 0,1.1037 -0.3766,2.4074 -0.8368,2.8972 -2.4037,2.5581 -6.0224,13.7032 -6.6203,20.3887 -0.7697,8.6102 -2.5033,11.008 -8.5597,11.8395 -4.1426,0.5687 -4.8471,1.3281 -15.5684,16.7829 -2.016,2.9061 -4.958,5.7569 -7.0339,6.8159 -1.9626,1.0013 -3.5684,2.4138 -3.5684,3.139 0,0.7252 -1.3711,2.0533 -3.0469,2.9513 -2.7883,1.4942 -6.2476,1.9108 -20.3906,2.456 -6.7263,0.2593 -17.2037,-1.2622 -18.9105,-2.7461 -0.8617,-0.7491 -2.7601,-1.2822 -4.2187,-1.1844 -5.9876,0.4013 -6.269,-0.5201 -2.5838,-8.4584 3.0849,-6.645 6.2346,-9.8949 12.4481,-12.8444 4.5334,-2.152 5.7116,-2.3206 12.2344,-1.7517 8.3272,0.7265 10.5107,-0.331 13.7286,-6.6486 1.0082,-1.9795 3.2338,-5.215 4.9457,-7.19 3.0055,-3.4676 6.7312,-10.7828 6.7312,-13.2165 0,-0.6508 0.8438,-1.9468 1.875,-2.8801 1.0313,-0.9333 1.875,-2.4752 1.875,-3.4265 0,-0.9513 0.3638,-1.7297 0.8086,-1.7297 0.4447,0 1.1021,-3.6914 1.461,-8.2032 0.3589,-4.5117 1.4705,-13.2731 2.4703,-19.4697 0.9999,-6.1966 1.7363,-14.6341 1.6366,-18.75 -0.2791,-11.5214 1.075,-30.3304 2.6082,-36.2314 2.1259,-8.1816 2.0749,-44.9278 -0.069,-49.9303 -1.1182,-2.609 -1.485,-5.594 -1.2615,-10.2696 0.2955,-6.1871 0.1753,-6.662 -1.9612,-7.7413 -1.2518,-0.6325 -2.819,-2.1282 -3.4824,-3.3241 -1.0587,-1.908 -1.2104,-1.17 -1.2396,6.0289 -0.018,4.5118 -0.4023,8.2032 -0.8535,8.2032 -1.1859,0 -2.0389,-5.1573 -1.3898,-8.403 0.65,-3.2497 -0.2359,-7.5345 -1.5578,-7.5345 -0.5058,0 -0.9196,2.2953 -0.9196,5.1009 0,2.8055 -0.4219,5.3617 -0.9375,5.6803 -1.0318,0.6377 -1.2846,-1.4763 -0.9756,-8.1585 0.3239,-7.0037 -1.299,-7.729 -1.8369,-0.8209 -0.2821,3.6227 -0.9354,6.174 -1.6406,6.4062 -0.7218,0.2375 -1.1719,-0.4891 -1.1719,-1.8921 0,-1.2529 -0.6831,-3.6471 -1.5179,-5.3205 -1.3132,-2.6324 -1.3763,-4.1455 -0.4687,-11.2232 0.577,-4.4992 1.0491,-9.9449 1.0491,-12.1013 0,-4.0753 -1.2936,-5.3081 -2.1466,-2.0459 -0.5346,2.0445 -2.538,2.5978 -2.5455,0.7031 0,-0.6445 0.7102,-3.1662 1.5837,-5.6037 1.7169,-4.7901 1.6652,-5.0707 -1.0227,-5.5571 -1.511,-0.2735 -2.0555,0.7555 -3.5214,6.6542 -0.9536,3.8378 -1.4921,7.7401 -1.1963,8.6719 0.6877,2.1667 -0.39,5.6389 -1.5312,4.9336 -0.4785,-0.2957 -0.87,-2.2003 -0.87,-4.2323 0,-2.6592 -0.3941,-3.6947 -1.4062,-3.6947 -1.0686,0 -1.4063,-1.1632 -1.4063,-4.8438 0,-2.664 -0.3111,-4.5327 -0.6911,-4.1526 -0.3802,0.3802 -0.6966,1.3634 -0.7031,2.185 -0.01,0.8215 -0.5394,1.6707 -1.1839,1.8869 -0.6883,0.231 -1.1719,-0.4127 -1.1719,-1.5599 0,-1.2405 -0.603,-1.9531 -1.6527,-1.9531 -0.909,0 -2.0692,-0.9492 -2.5781,-2.1094 -0.6765,-1.5419 -1.8577,-2.1868 -4.391,-2.3974 -2.5352,-0.2106 -4.1935,-1.117 -6.1769,-3.376 -3.2219,-3.6695 -6.9617,-4.9193 -8.6463,-2.8894 -1.2272,1.4786 -3.7425,1.9135 -3.7425,0.6472 0,-0.4125 0.376,-1.1508 0.8356,-1.6407 1.0454,-1.1143 1.8843,-12.6093 0.9202,-12.6093 -0.3892,0 -0.979,0.439 -1.3106,0.9756 -0.3317,0.5366 -1.4116,0.719 -2.3997,0.4054 -1.0827,-0.3437 -2.8786,0.2001 -4.519,1.3681 -1.4972,1.0661 -3.1844,1.9384 -3.7494,1.9384 -1.4006,0 -1.3034,-1.6267 0.1257,-2.103 0.6803,-0.2268 0.104,-1.0714 -1.4063,-2.0609 -1.5014,-0.9838 -2.559,-2.5278 -2.559,-3.7359 0,-1.1326 -0.8639,-2.9865 -1.9199,-4.1199 -1.546,-1.6596 -2.2813,-1.8673 -3.7762,-1.0673 -1.0211,0.5465 -1.6088,1.3943 -1.3061,1.884 0.3027,0.4898 0.1388,0.8905 -0.3643,0.8905 -0.5031,0 -1.1097,-0.5274 -1.3479,-1.1719 -0.9819,-2.6558 -18.9424,17.7608 -20.8134,23.6596 -1.5366,4.8445 -5.56653,9.4349 -12.51209,14.2521 l -7.17881,4.9789 -8.11407,-0.2329 -8.11415,-0.2331 0.50109,5.5263 c 0.38128,4.2046 0.13575,6.0478 -1.02647,7.7072 -0.84018,1.1995 -1.52765,2.8573 -1.52765,3.684 0,2.3168 -4.04457,5.5798 -6.91622,5.5798 -1.95525,0 -2.50819,-0.4041 -2.29275,-1.6756 0.15609,-0.9215 -0.63656,-2.8456 -1.76147,-4.2757 -4.45969,-5.6696 -4.98872,-19.0385 -1.15285,-29.1307 0.99544,-2.619 1.81004,-5.5001 1.81032,-6.4024 2.8e-4,-0.9023 0.55265,-1.6406 1.22756,-1.6406 1.70944,0 4.99594,-2.527 4.25287,-3.27 -0.3359,-0.3359 -2.44462,0.3583 -4.68599,1.5427 -3.58538,1.8947 -5.69879,2.1952 -17.58235,2.5002 -12.13034,0.3113 -13.94599,0.1475 -17.8125,-1.6073 -2.36795,-1.0747 -6.41475,-2.7084 -8.99287,-3.6306 -3.92721,-1.4046 -4.73635,-2.0985 -4.98867,-4.2776 -0.20971,-1.8111 0.44455,-3.3696 2.15457,-5.1323 4.48953,-4.6278 8.65267,-9.9925 10.33097,-13.3126 0.91224,-1.8047 4.4502,-7.1548 7.86212,-11.8891 3.41193,-4.73437 7.36233,-10.42969 8.77867,-12.65625 1.41635,-2.22665 3.94759,-5.87962 5.62496,-8.11781 2.98313,-3.98025 3.05353,-4.29834 3.21694,-14.53125 0.19228,-12.04134 1.72256,-19.17216 4.82231,-22.47169 1.19569,-1.27275 2.99588,-4.95478 4.00031,-8.18229 1.00454,-3.2275 2.84044,-7.80929 4.07982,-10.18177 1.23937,-2.37247 2.52187,-5.92559 2.85,-7.89579 0.32822,-1.97021 0.80803,-4.13301 1.0664,-4.80622 0.27938,-0.72797 -0.44343,-1.45317 -1.7835,-1.78951 -3.6765,-0.92274 -18.58734,-12.02744 -21.45487,-15.97836 -1.4596,-2.01096 -2.65378,-4.85861 -2.65378,-6.32813 0,-1.46951 0.10893,-2.67183 0.24208,-2.67183 0.31971,0 14.76054,5.20688 16.86729,6.08177 2.95735,1.22816 1.83216,-1.92482 -2.65115,-7.42848 -4.57744,-5.6193 -6.02072,-9.1717 -6.02072,-14.81898 0,-3.39993 0.11353,-3.52182 3.28125,-3.52182 2.29162,0 3.28125,0.42411 3.28125,1.40625 0,0.82451 0.87262,1.41859 2.10937,1.43607 1.16016,0.0164 2.92828,0.64922 3.92916,1.40625 1.00097,0.75704 2.70956,1.37643 3.79687,1.37643 1.08741,0 2.37788,0.38467 2.86772,0.85481 1.48238,1.42279 18.79444,7.58269 21.31069,7.58269 1.29141,0 2.55178,-0.52734 2.80069,-1.17187 0.32718,-0.84721 3.56784,-1.17188 11.6969,-1.17188 8.08055,0 11.12865,-0.30303 10.83375,-1.07704 -0.939,-2.46379 1.7145,-2.03965 4.9362,0.78901 l 3.4561,3.03448 -0.6477,-2.94865 c -0.5345,-2.43375 -0.2961,-3.13681 1.3655,-4.02608 1.6316,-0.87316 2.3539,-0.76911 3.8102,0.54886 1.7281,1.56396 1.797,1.53089 1.797,-0.86277 0,-3.05875 2.2929,-3.3366 3.8303,-0.46415 0.9907,1.85134 1.1611,1.88662 1.9865,0.41153 1.0255,-1.83238 3.1835,-1.57689 12.3493,1.46205 4.1128,1.36361 6.1587,1.60066 8.0683,0.9349 3.5922,-1.2522 5.0682,0.0368 5.124,4.47484 0.053,4.17807 0.8471,4.82781 2.3865,1.95148 0.549,-1.02592 2.2137,-2.49384 3.6992,-3.26204 2.5189,-1.30258 2.9896,-1.23543 6.9823,0.99616 2.3549,1.3161 4.7768,2.08675 5.3822,1.71257 0.6065,-0.37484 1.613,0.0201 2.2415,0.87952 1.0125,1.38476 1.2726,1.40084 2.3163,0.14323 1.4202,-1.71122 4.6904,-1.88115 4.7105,-0.24477 0.036,2.92237 1.3669,3.46546 5.1722,2.11018 5.143,-1.83169 5.7766,-1.73964 6.4483,0.93669 0.6827,2.72002 2.0569,2.96982 4.4456,0.80812 2.2946,-2.0766 4.5342,-0.2353 4.573,3.7598 0.025,2.56597 0.1557,2.71319 1.047,1.17898 0.8007,-1.37807 1.1834,-1.48632 1.7893,-0.50603 0.6167,0.99783 1.1576,0.8969 2.7068,-0.50502 1.6233,-1.46908 2.3225,-1.57598 4.3289,-0.66185 1.3159,0.59962 2.1351,1.50697 1.8204,2.01631 -0.3148,0.50936 -0.2256,1.54559 0.198,2.30277 0.6289,1.12367 1.5239,0.78045 4.8702,-1.86758 4.7877,-3.7886 9.0329,-4.45145 8.0174,-1.25184 -0.4552,1.43419 -0.3122,1.79453 0.5104,1.28614 0.6285,-0.38845 1.4638,-0.18678 1.8562,0.44814 0.5358,0.86697 1.1946,0.89688 2.6461,0.12011 2.8214,-1.50998 3.5059,-1.30627 4.7444,1.41185 0.8077,1.7728 1.6231,2.31316 2.962,1.96301 2.1998,-0.57527 3.4295,0.94826 1.9553,2.42253 -0.5738,0.57345 -1.0433,1.46481 -1.0433,1.98044 0,0.52084 0.5,0.4375 1.125,-0.1875 1.4697,-1.46967 3.5544,-1.44247 3.5921,0.0469 0.016,0.64454 1.0332,2.31165 2.2599,3.70469 1.9198,2.18039 2.731,2.45663 5.8297,1.98534 1.9797,-0.3011 4.5042,-1.36712 5.61,-2.36893 1.3405,-1.21441 2.2223,-1.47881 2.6459,-0.79332 0.4171,0.67487 1.1759,0.39842 2.2083,-0.80458 3.4906,-4.06739 28.2916,-9.81662 28.2916,-6.55841 0,0.55193 0.7891,0.49451 1.9826,-0.14428 1.1303,-0.60486 3.2465,-0.78787 4.9219,-0.42566 1.6166,0.34949 4.591,0.70667 6.6098,0.79373 2.1365,0.0922 3.8482,0.6892 4.0953,1.42856 0.3072,0.91869 -0.1249,1.0958 -1.5612,0.63994 -1.1762,-0.37331 -1.9859,-0.2223 -1.9859,0.37037 0,0.55038 1.0756,1.00068 2.3903,1.00068 3.0878,0 7.6087,2.34995 8.7987,4.57355 0.656,1.22579 1.6361,1.60705 3.3091,1.28725 1.9213,-0.36728 2.3769,-0.0847 2.3769,1.47458 0,2.36259 1.0586,3.12359 2.8258,2.03139 0.7907,-0.48865 1.7911,-0.43935 2.467,0.12155 1.7649,1.46474 25.6359,0.0172 49.551,-3.00458 15.4694,-1.9547 23.3642,-1.48598 36.2044,2.14941 2.623,0.74265 4.8547,0.59003 9.8438,-0.67318 6.3772,-1.61468 16.1862,-1.9148 34.5768,-1.05794 4.125,0.19219 8.5546,-0.069 9.8437,-0.58049 1.2891,-0.51146 7.4063,-1.05165 13.5938,-1.20043 6.1875,-0.14877 12.832,-0.57333 14.7656,-0.94347 2.7268,-0.52197 3.5156,-0.37452 3.5156,0.65718 0,1.08066 1.8743,1.2842 9.993,1.08514 8.3555,-0.20486 10.1767,0.007 11.1136,1.28743 0.7292,0.99719 3.3786,1.7998 7.5851,2.29788 4.8871,0.57868 6.7784,1.22807 7.7508,2.66134 0.7074,1.04274 2.1062,1.89589 3.1085,1.89589 1.0023,0 2.7438,0.49756 3.87,1.1057 1.1263,0.60812 3.4148,1.01706 5.0855,0.90873 1.6708,-0.10831 4.413,0.53509 6.0938,1.4298 2.712,1.44364 5.7625,1.59768 27.1001,1.36846 18.1707,-0.19519 24.2172,0.0217 24.7526,0.88798 0.4087,0.66126 0.054,1.62474 -0.838,2.27707 -1.2899,0.94319 -0.591,1.23066 4.213,1.73277 3.1677,0.3311 7.4011,0.60199 9.4075,0.60199 3.4201,0 3.6311,0.1611 3.3781,2.57812 -0.2663,2.5437 -0.1907,2.58188 5.6521,2.85886 4.0919,0.19397 5.8077,0.62861 5.5516,1.40625 -0.2037,0.61904 -1.2866,1.26033 -2.4063,1.4251 -2.345,0.34504 -2.7857,2.04417 -0.5303,2.04417 0.8281,0 3.043,1.21055 4.9219,2.69012 1.8788,1.47956 5.631,4.04704 8.338,5.70538 2.7071,1.65844 4.9219,3.42769 4.9219,3.93178 0,0.504 3.1892,4.26441 7.087,8.35631 3.898,4.09191 6.8163,7.878 6.4854,8.4135 -0.331,0.53541 0.9087,2.75063 2.7548,4.92263 4.8259,5.67769 5.7134,6.56719 8.4272,8.44594 2.7049,1.87256 3.1779,3.47184 1.0269,3.47184 -2.1911,0 -1.7854,0.705 4.1035,7.13175 3.1327,3.41887 5.754,7.23422 6.0759,8.84391 0.3115,1.557 1.6289,3.81581 2.9277,5.01946 1.2989,1.20373 2.3616,3.06913 2.3616,4.14543 0,1.2583 1.4759,2.9723 4.1344,4.8014 3.002,2.0654 4.0095,3.3222 3.6783,4.5887 -0.4468,1.7084 0.034,2.2087 8.0663,8.3955 1.5719,1.2108 2.5692,2.7068 2.2898,3.4348 -0.2967,0.7733 0.8918,2.232 2.9679,3.6427 1.9045,1.2942 3.9425,3.3152 4.5287,4.4911 0.5863,1.176 2.9615,3.5505 5.2784,5.2767 6.5004,4.8433 16.8935,13.5748 19.1009,16.0473 1.0926,1.2238 3.7795,4.0339 5.9709,6.2445 2.1914,2.2107 3.9844,4.8634 3.9844,5.8949 0,1.2098 3.1692,4.5864 8.9284,9.5124 4.9106,4.2002 8.7081,7.9932 8.439,8.4287 -0.2692,0.4354 0.9865,2.985 2.7904,5.6655 1.8038,2.6805 3.2815,5.3586 3.2836,5.9513 0,0.5927 1.0569,3.1531 2.3438,5.6897 1.2869,2.5366 2.3398,5.55 2.3398,6.6965 0,1.1465 0.6328,2.3274 1.4063,2.6242 1.4505,0.5566 1.995,3.411 0.6508,3.411 -0.4155,0 -3.417,-0.8988 -6.6701,-1.9973 -5.5908,-1.8882 -6.0899,-1.9138 -9.1201,-0.4688 -4.2244,2.0145 -8.3229,1.9016 -13.3224,-0.367 -2.2477,-1.0199 -5.4266,-1.8544 -7.0642,-1.8544 -1.6376,0 -6.1266,-1.0993 -9.9757,-2.4429 -3.8491,-1.3437 -8.6153,-2.3856 -10.5918,-2.3155 -2.0947,0.074 -4.8318,-0.6248 -6.5625,-1.6766 -1.6329,-0.9923 -4.7288,-2.0913 -6.8797,-2.4421 -3.6311,-0.5922 -12.176,-4.4795 -16.4919,-7.5024 -1.3409,-0.9392 -2.5096,-1.0516 -4.21,-0.4052 -3.2999,1.2546 -5.1201,0.4352 -8.5705,-3.8583 -1.6495,-2.0526 -3.559,-3.732 -4.2433,-3.732 -1.4689,0 -4.7279,-2.6808 -14.7283,-12.1157 -7.6308,-7.1992 -9.8413,-8.1834 -4.0954,-1.8233 3.1892,3.53 4.0877,5.5015 2.5072,5.5015 -0.4257,0 -1.7875,-1.0788 -3.0262,-2.3972 -1.3859,-1.4752 -2.9163,-2.2235 -3.9793,-1.9456 -2.3471,0.6138 -7.9363,-2.8243 -9.5072,-5.8481 -0.7043,-1.356 -2.5243,-4.0261 -4.0443,-5.9335 -2.1588,-2.7092 -3.0141,-3.2222 -3.9078,-2.3438 -1.1837,1.1633 -1.6438,0.7481 -5.9768,-5.3941 -0.9264,-1.3132 -2.4935,-2.3877 -3.4826,-2.3877 -2.0257,0 -3.2158,-1.8743 -5.5498,-8.7409 -1.7382,-5.1137 -3.7908,-6.8671 -3.8516,-3.2903 -0.033,1.9492 -0.4961,1.6888 -4.2506,-2.3915 -2.3173,-2.5184 -5.5977,-6.9481 -7.2897,-9.8437 -1.9814,-3.3911 -3.694,-5.2648 -4.8119,-5.2648 -2.6622,0 -2.6827,1.817 -0.055,4.9392 2.6378,3.1347 3.0969,6.8945 1.0496,8.5937 -0.7331,0.6084 -1.6246,2.8749 -1.981,5.0367 -0.3564,2.1617 -0.9983,4.3667 -1.4265,4.9 -0.9994,1.2448 -2.7432,11.9535 -2.7524,16.9023 -0.01,3.4248 -0.3147,3.9301 -3.054,5.0052 -2.2205,0.8715 -3.0848,1.8289 -3.1867,3.5295 -0.077,1.2834 -0.9723,3.2498 -1.99,4.3697 -1.0176,1.1199 -1.6592,2.5597 -1.4256,3.1997 0.2337,0.6399 -0.2418,1.8302 -1.0567,2.645 -0.8149,0.8149 -1.4816,2.0843 -1.4816,2.8209 0,1.7417 -1.3379,1.7098 -2.8125,-0.067 -1.1743,-1.4149 -3.75,-1.9486 -3.75,-0.7769 0,0.3461 0.7005,1.4034 1.5567,2.3495 2.2419,2.4772 0.7351,3.2966 -2.5231,1.372 -3.2942,-1.9459 -3.3726,-1.6928 -0.9023,2.9161 1.9743,3.6836 1.3566,4.7785 -1.7562,3.1125 -1.6218,-0.8679 -1.9327,-0.6329 -2.4841,1.8772 -0.4422,2.0135 -0.1845,3.3618 0.8644,4.5208 0.929,1.0265 1.4946,3.3472 1.4946,6.1324 0,4.3115 -0.088,4.4587 -2.3438,3.8927 -1.9722,-0.495 -2.3558,-0.251 -2.4199,1.5389 -0.297,8.2967 -1.4552,10.4097 -4.622,8.432 -2.7862,-1.74 -2.9144,-1.4676 -1.2579,2.6724 1.4147,3.5356 1.4142,3.9354 -0.01,5.3571 -1.4235,1.4235 -1.5364,1.315 -1.5364,-1.477 0,-3.5605 -1.4236,-4.0022 -2.2526,-0.6989 -0.8192,3.264 0.8732,9.9887 4.1455,16.471 1.537,3.0448 2.7946,6.0957 2.7946,6.7797 0,0.6841 2.78,5.4308 6.1776,10.5482 3.3978,5.1174 6.8178,10.5815 7.6001,12.1423 0.7822,1.561 2.8659,4.9686 4.6304,7.5727 3.9264,5.7946 5.3088,12.1347 5.1861,23.7849 -0.071,6.7885 -0.6306,10.389 -2.4164,15.5602 -1.2778,3.7005 -3.0065,11.7494 -3.8415,17.8866 -1.7749,13.0458 -3.8574,22.7277 -5.2493,24.4048 -0.5426,0.6537 -1.0986,3.6975 -1.2355,6.764 -0.1795,4.0183 -0.8132,6.2927 -2.2691,8.1434 -1.2902,1.6403 -2.0199,3.8995 -2.0199,6.2532 0,2.0269 -0.4195,4.4691 -0.9322,5.427 -1.5479,2.8922 -10.6775,11.2181 -12.3248,11.2397 -0.846,0.011 -3.3773,0.8547 -5.625,1.8747 -2.7477,1.2468 -6.1494,1.8612 -10.3819,1.875 -5.3234,0.018 -6.4501,0.31 -7.2986,1.8956 -1.1549,2.1579 -1.9807,2.3318 -3.5625,0.75 z"
         style="fill:#000000"
         inkscape:connector-curvature="0" />
      <path
         id="path4154"
         d="m -1678.9426,184.00535 c -1.808,-3.23066 0.6289,-7.751 10.8584,-20.14223 13.4883,-16.33864 15.7917,-24.25399 8.0048,-27.50754 -3.1901,-1.33293 -3.2588,-1.47221 -2.6686,-5.40822 0.5523,-3.6827 0.3527,-4.26567 -2.2565,-6.59047 -3.7701,-3.35915 -2.7501,-5.31412 4.7474,-9.09882 5.8604,-2.95833 7.4296,-5.13493 7.4296,-10.30539 0,-3.48279 4.6618,-8.883296 8.8659,-10.270776 4.8468,-1.59959 13.4408,-11.36882 19.1418,-21.75951 3.5936,-6.54972 3.7961,-8.93697 0.3821,-4.5038 -5.3486,6.94527 -13.0286,13.11397 -16.3364,13.12149 -4.5478,0.0103 -1.2595,-7.73169 7.1029,-16.72345 6.1584,-6.62181 5.3823,-6.93586 -3.0031,-1.21518 -8.0481,5.49065 -17.6033,15.83784 -19.0334,20.61096 -1.4922,4.98046 -6.0791,9.12525 -11.023,9.96051 -4.6017,0.77745 -6.0228,2.28891 -8.5748,9.120116 -2.4623,6.5909 -4.7956,7.74335 -8.2137,4.057 -1.8696,-2.01628 -2.8279,-2.38367 -4.8061,-1.84268 -4.707,1.28722 -6.1205,0.95455 -7.4369,-1.7503 -2.4771,-5.089846 -8.3178,-5.099566 -15.0522,-0.025 -1.8806,1.41706 -7.849,6.8257 -13.2631,12.01916 -5.414,5.19345 -11.2072,10.00532 -12.8738,10.69303 -3.3697,1.39058 -5.8762,0.8742 -5.8762,-1.21058 0,-1.46952 8.2079,-9.10413 22.4585,-20.88986 4.8756,-4.03229 10.1395,-9.147106 11.6974,-11.366246 3.6121,-5.14494 3.8374,-10.25889 0.6035,-13.70119 l -2.2293,-2.37294 3.9993,-4.33874 c 3.8389,-4.16475 3.9811,-4.53224 3.5449,-9.16427 -0.25,-2.65406 -0.748,-5.51785 -1.1067,-6.36398 -0.4323,-1.01973 0.3166,-2.64191 2.2213,-4.81127 2.8685,-3.267 3.7094,-6.61685 1.9361,-7.7128 -1.563,-0.96598 -1.0515,-4.76245 0.8767,-6.50746 0.9978,-0.903 2.6653,-3.4524 3.7055,-5.66534 1.0402,-2.21294 3.4415,-5.30138 5.3363,-6.86319 l 3.445,-2.839681 -1.9591,-2.75132 c -3.635,-5.10479 -4.3004,-10.6469995 -4.4724,-37.24801 -0.1738,-26.87405 -0.021,-25.75446 -5.4584,-40.12077 -1.7794,-4.70175 -2.4102,-8.14025 -2.4076,-13.125 0.01,-11.68095 4.1342,-15.26512 14.9181,-12.95238 24.8606,5.33164 47.6565,28.4298 63.8665,64.71317 5.1878,11.6122205 13.3173,34.77493 14.9165,42.5006 0.6137,2.964851 1.2622,5.390631 1.4411,5.390631 0.1789,0 2.4052,-1.04469 4.9473,-2.32153 3.8006,-1.9089 5.1548,-3.321071 7.6194,-7.945031 4.8996,-9.1927095 6.6626,-15.4600195 6.6626,-23.6855395 0,-4.94263 0.3282,-7.2057505 0.9859,-6.7992505 1.2438,0.76872 0.2816,12.20904048 -1.5745,18.7201005 -0.7349,2.57812 -2.9597,7.7460895 -4.944,11.4843695 -3.1052,5.84994 -3.3717,6.796881 -1.9133,6.796881 0.932,0 1.9625,0.84433 2.2901,1.87629 0.5693,1.79371 0.7786,1.7503 4.7561,-0.98632 2.2884,-1.57444 7.2168,-4.310801 10.9521,-6.080801 8.8319,-4.1851 21.3226,-6.63618 21.3226,-4.18417 0,0.52018 -2.4883,0.9375 -5.5898,0.9375 -6.9118,0 -13.1623,2.26639 -22.8795,8.295881 -6.7628,4.19633 -7.516,4.97561 -9.0672,9.38035 -0.9305,2.64209 -1.4083,4.96549 -1.062,5.16309 0.3464,0.1976 2.7391,0.64704 5.3173,0.99875 8.3861,1.14404 35.0265,8.02096 45.381,11.71462 34.1444,12.17999 57.8727,31.215 66.6285,53.449746 2.2851,5.80294 2.6821,13.45229 0.8151,15.70363 -3.8886,4.6889 -15.7922,5.37849 -28.05,1.62497 -9.6176,-2.94501 -17.6382,-3.16475 -32.8514,-0.90003 -14.5477,2.16565 -37.6444,1.79188 -41.1162,-0.66539 -3.2034,-2.26733 -4.1396,-2.07136 -5.3437,1.11855 -0.6465,1.71293 -2.9724,3.99439 -6.1337,6.01667 -2.8008,1.79163 -5.7347,4.2249 -6.5197,5.40729 -1.365,2.05569 -1.5992,2.09308 -5.3526,0.85436 l -3.9251,-1.29542 -3.5314,3.44826 c -3.3723,3.29301 -3.7191,3.4132 -7.7036,2.66981 -5.8783,-1.09674 -9.2794,0.10493 -13.1823,4.65769 l -3.3851,3.94865 -2.6007,-2.04574 c -6.8752,-5.40799 -13.7465,-0.80188 -25.8733,17.34366 -8.1781,12.23715 -14.6217,20.61107 -16.3787,21.28529 -0.713,0.27359 -1.6798,-0.18785 -2.1485,-1.02543 z"
         style="fill:#000000"
         inkscape:connector-curvature="0" />
      <path
         id="path4150"
         d="m -1375.6911,-250.58159 c -1.8892,-0.36794 -4.4306,-1.32135 -5.6475,-2.11868 -2.6733,-1.75166 -11.3419,-1.21388 -14.5895,0.9051 -1.9012,1.24056 -2.1093,1.21843 -2.1093,-0.22423 0,-0.88032 0.884,-2.72181 1.9644,-4.0922 1.7529,-2.22326 1.7952,-2.52583 0.3934,-2.80925 -0.8641,-0.1747 -3.752,0.41081 -6.4176,1.30111 -2.6656,0.89032 -6.7386,2.20306 -9.0511,2.91721 l -4.2047,1.29845 4.6169,-4.68734 c 2.5393,-2.57804 4.3917,-4.91251 4.1165,-5.1877 -0.6276,-0.62762 -6.7499,1.50688 -11.9905,4.18044 -4.3888,2.23903 -5.8932,1.91757 -3.4841,-0.74449 0.8562,-0.9461 1.5568,-2.85171 1.5568,-4.23468 0,-2.11203 0.8137,-2.91361 5.0844,-5.00812 2.7964,-1.3715 5.4331,-3.22747 5.8593,-4.12438 1.1526,-2.42542 16.647,-13.63249 21.1987,-15.33301 2.1732,-0.81191 9.0298,-1.84161 15.2369,-2.2882 16.9881,-1.2223 19.7513,-3.04289 27.1651,-17.8982 4.3576,-8.73165 12.4725,-19.116 26.8831,-34.40169 2.9961,-3.17803 5.4475,-6.40243 5.4475,-7.16533 0,-0.7629 0.605,-1.61926 1.3445,-1.90304 1.9411,-0.74487 10.843,-13.71663 10.843,-15.80034 0,-0.96753 1.0055,-3.74903 2.2344,-6.1811 2.8934,-5.72604 6.5197,-17.33855 8.5533,-27.39071 0.8867,-4.38281 2.8079,-11.34375 4.2694,-15.46875 2.9682,-8.37757 4.9765,-15.22462 5.0871,-17.34375 0.04,-0.77344 0.421,-2.83004 0.846,-4.57024 0.5658,-2.31698 0.4321,-3.37976 -0.4994,-3.97002 -1.8288,-1.15879 -8.6801,-1.02045 -9.9005,0.1999 -0.6976,0.6976 -1.5691,0.73557 -2.6752,0.11655 -1.1981,-0.6705 -2.4888,-0.41763 -4.7858,0.93763 -1.7298,1.02064 -3.8279,1.59373 -4.6623,1.27352 -0.8345,-0.3202 -1.9911,-0.21424 -2.5702,0.23546 -2.5323,1.96623 -7.4059,2.97928 -8.7933,1.82782 -1.096,-0.9096 -1.6053,-0.81282 -2.5546,0.48543 -0.6522,0.89183 -1.7994,1.38604 -2.5494,1.09823 -1.8411,-0.7065 -5.8587,0.91241 -8.2846,3.33827 -1.1093,1.10929 -2.6132,1.74382 -3.4092,1.43837 -0.7861,-0.30167 -3.2951,0.71602 -5.5995,2.27126 -2.2964,1.5498 -4.7949,2.81782 -5.5524,2.81782 -1.0007,0 -1.2163,0.64048 -0.7888,2.34375 0.7338,2.92388 -1.0504,3.15 -1.8494,0.23438 -0.4822,-1.75964 -0.7312,-1.87621 -1.5013,-0.70313 -0.5077,0.77344 -0.9296,2.35547 -0.9375,3.51563 -0.01,1.16015 -0.4362,2.10937 -0.9518,2.10937 -0.5157,0 -0.9375,-0.84375 -0.9375,-1.875 0,-1.03125 -0.4711,-1.875 -1.0468,-1.875 -0.6016,0 -0.8625,0.96407 -0.6135,2.26658 0.3733,1.95286 -9e-4,2.348 -2.7033,2.85497 -1.8499,0.34705 -3.1364,1.14783 -3.1364,1.95218 0,0.75007 -0.4219,1.36377 -0.9375,1.36377 -0.5157,0 -0.9375,-1.29656 -0.9375,-2.88124 0,-2.25573 -0.3562,-2.80335 -1.6407,-2.52244 -0.9023,0.19733 -1.4837,0.96654 -1.2919,1.70936 0.1917,0.74282 0.5573,2.08885 0.8124,2.99119 0.2551,0.90235 -0.01,1.64063 -0.583,1.64063 -0.5758,0 -1.0468,-0.63281 -1.0468,-1.40625 0,-0.77344 -0.4503,-1.40625 -1.0007,-1.40625 -0.5741,0 -0.747,0.7994 -0.4056,1.875 0.6846,2.15682 -0.931,2.59073 -1.7453,0.46875 -1.0923,-2.84662 -2.2799,-1.29346 -1.792,2.34375 0.3302,2.46218 0.1386,3.75 -0.558,3.75 -0.5835,0 -1.0609,-1.02979 -1.0609,-2.28842 0,-1.25863 -0.3928,-2.53114 -0.8728,-2.82779 -1.4486,-0.89533 -2.0959,1.19774 -1.0022,3.24121 1.8058,3.37418 -0.107,4.06579 -2.1601,0.78101 -1.475,-2.35986 -2.0372,-2.73857 -2.2969,-1.54707 -0.1891,0.86772 0.3253,2.87163 1.1432,4.45313 1.5026,2.90578 0.8832,3.81985 -1.1862,1.75043 -0.875,-0.875 -1.125,-0.48384 -1.125,1.76021 0,1.58686 -0.6329,3.41039 -1.4063,4.05229 -1.1892,0.98695 -1.4062,0.78761 -1.4062,-1.29146 0,-1.3522 -0.4689,-2.45854 -1.0419,-2.45854 -0.6829,0 -0.8298,1.1304 -0.4263,3.28125 0.3846,2.04991 0.2479,3.28125 -0.3644,3.28125 -0.539,0 -0.9799,-1.00956 -0.9799,-2.24345 0,-1.2339 -0.6674,-2.49952 -1.483,-2.8125 -2.2379,-0.85876 -2.3107,-0.75316 -1.1851,1.71733 0.8386,1.84061 0.7433,2.58478 -0.4889,3.81696 -0.8418,0.84182 -1.5305,2.42858 -1.5305,3.52613 0,1.55207 -0.25,1.74553 -1.125,0.87053 -1.7616,-1.76153 -2.7103,-1.32472 -2.1379,0.98437 0.3683,1.48586 -0.042,2.45813 -1.3884,3.2892 -1.6436,1.01462 -1.9196,0.94899 -1.9707,-0.46875 -0.043,-1.18148 -0.3385,-0.98452 -1.0444,0.69518 -0.6191,1.47294 -1.1546,1.88989 -1.4415,1.12219 -0.3406,-0.91143 -0.8007,-0.79242 -1.8123,0.46875 -1.2385,1.54415 -1.3076,1.43938 -0.8001,-1.21173 0.4515,-2.35842 0.034,-3.46052 -2.2294,-5.8834 -1.6012,-1.71414 -3.0376,-2.57266 -3.3792,-2.01983 -0.3269,0.52884 -1.0162,0.96152 -1.5318,0.96152 -0.5156,0 -0.7116,-0.36549 -0.4355,-0.8122 0.2761,-0.44672 -0.3763,-1.60688 -1.4497,-2.57813 -2.9777,-2.6943 -17.5331,-2.44886 -23.4071,0.39469 -2.3383,1.13197 -4.526,2.05814 -4.8614,2.05814 -0.3354,0 -3.1558,1.64554 -6.2676,3.65675 -9.4133,6.08416 -17.5537,6.99337 -29.8681,3.33603 -4.2774,-1.27037 -5.1961,-1.96733 -6.404,-4.85826 -0.8676,-2.07641 -1.1853,-4.57434 -0.8256,-6.49168 0.3219,-1.71569 0.1112,-4.00136 -0.4688,-5.08499 -1.2247,-2.28842 -0.4446,-3.60096 1.1766,-1.97972 1.7497,1.7497 2.6094,1.31037 2.6094,-1.33353 l 0,-2.44289 2.9576,3.14602 c 3.1694,3.3714 4.856,2.43678 2.2687,-1.25718 -2.1428,-3.05924 -1.8374,-4.74651 1.4198,-7.84328 3.581,-3.40465 7.7615,-10.3428 6.9871,-11.59592 -0.8205,-1.32761 -4.4833,0.24381 -9.5041,4.07743 -2.313,1.76608 -6.474,4.15135 -9.2468,5.3006 -4.6867,1.94254 -4.9809,2.24886 -4.1806,4.35362 0.4734,1.24523 0.8608,2.44753 0.8608,2.67178 0,1.14467 -2.2987,0.0719 -6.1575,-2.87353 -3.5624,-2.71923 -5.0859,-3.28125 -8.8947,-3.28125 -8.4224,0 -21.5103,-5.67695 -21.5103,-9.33023 0,-0.54025 0.7382,-1.02745 1.6406,-1.08267 0.9023,-0.0552 -0.1081,-0.49317 -2.2454,-0.97322 -4.4835,-1.00701 -9.043,-4.78631 -8.5931,-7.1226 0.1696,-0.88086 2.4828,-3.08847 5.1404,-4.90579 2.6576,-1.81734 8.1382,-7.28347 12.1791,-12.14696 4.0409,-4.86349 9.2735,-10.98068 11.6279,-13.59375 5.118,-5.68024 12.4279,-15.18357 13.9122,-18.08668 0.5865,-1.1471 1.2497,-4.47552 1.4739,-7.39647 0.3776,-4.92136 0.2043,-5.50067 -2.3641,-7.89985 -3.4552,-3.22766 -3.4513,-4.14786 0.041,-9.65455 1.5469,-2.43916 2.8125,-4.74751 2.8125,-5.12966 0,-0.38215 1.8681,-3.69667 4.1514,-7.3656 2.2832,-3.66893 5.1912,-8.72052 6.4622,-11.22575 1.2709,-2.50524 4.921,-7.29716 8.1112,-10.64872 5.7495,-6.04023 5.7961,-6.133 5.2989,-10.56242 -0.5848,-5.21046 2.0858,-16.81663 5.082,-22.08634 2.374,-4.1753 5.9432,-6.96061 8.9197,-6.96061 1.2132,0 4.2956,1.50143 6.8499,3.33653 8.5924,6.17297 11.2125,7.09627 16.3273,5.75353 5.6137,-1.47369 6.8122,-2.4733 9.0612,-7.55766 2.5516,-5.76825 6.2691,-10.34756 11.0965,-13.6689 3.9535,-2.72009 4.3555,-2.80563 8.0413,-1.71143 2.4085,0.71501 5.4156,2.74698 7.9298,5.35841 4.9694,5.16132 7.2009,4.95426 12.8435,-1.19169 2.094,-2.28081 4.2161,-4.14692 4.7157,-4.14692 0.4996,0 1.4353,-0.84375 2.0794,-1.875 0.644,-1.03125 1.7242,-1.875 2.4005,-1.875 0.6762,0 2.9546,-1.47656 5.0629,-3.28125 2.1084,-1.80469 4.453,-3.28125 5.2103,-3.28125 0.7572,0 1.9322,-0.6693 2.6111,-1.48734 1.3735,-1.65496 15.1082,-8.78605 17.9917,-9.34138 1.0131,-0.19509 2.3905,-1.10494 3.061,-2.02189 0.6705,-0.91695 1.7826,-1.69217 2.4714,-1.7227 1.7273,-0.0766 10.3147,-4.03562 12.0336,-5.54789 0.7735,-0.68044 3.1672,-1.52571 5.3195,-1.87837 4.1789,-0.68472 15.2506,-6.14376 17.1831,-8.47231 0.6405,-0.77172 1.6069,-1.40312 2.1475,-1.40312 1.8559,0 12.677,-5.69699 13.1468,-6.92146 0.2585,-0.67351 2.4253,-1.77203 4.8151,-2.44114 3.0039,-0.84105 5.3008,-2.33298 7.4409,-4.83324 1.7027,-1.98916 3.6881,-3.6284 4.4121,-3.64274 0.7239,-0.0143 2.9735,-1.27997 4.9989,-2.8125 2.0255,-1.53253 4.2079,-2.78642 4.85,-2.78642 0.642,0 2.4309,-1.06324 3.9752,-2.36275 2.9888,-2.51484 17.122,-8.13749 24.3779,-9.69831 2.4003,-0.51634 8.3721,-1.8175 13.2705,-2.89146 4.8985,-1.07397 10.6744,-1.94587 12.8353,-1.93757 2.161,0.008 4.2076,-0.43554 4.548,-0.98632 0.3404,-0.55078 1.3145,-0.70375 2.1647,-0.33995 0.8502,0.36381 8.2958,0.80734 16.5458,0.98563 16.2737,0.35169 20.8033,0.69029 21.738,1.625 0.3332,0.33315 1.5901,0.60573 2.7932,0.60573 1.2844,0 2.1875,0.56037 2.1875,1.35726 0,0.97634 1.3814,1.43678 4.9219,1.64062 3.3237,0.19136 4.8458,0.6639 4.6875,1.45525 -0.1289,0.64453 0.6582,1.17187 1.7492,1.17187 2.4501,0 11.4953,3.02276 11.9227,3.98438 0.1719,0.38672 0.8467,0.70312 1.4995,0.70312 0.6529,0 2.9918,1.21207 5.1976,2.6935 2.2058,1.48142 4.7719,2.49438 5.7026,2.25102 1.3345,-0.34901 1.5833,-0.0268 1.1774,1.52525 -0.4236,1.61986 -0.091,1.96773 1.8832,1.96773 1.3188,0 2.642,0.39523 2.9406,0.87828 1.2675,2.05081 11.8723,6.05355 19.7058,7.43783 11.1796,1.97561 45.3051,1.80933 52.987,-0.25817 2.836,-0.76326 11.4844,-2.49928 19.2188,-3.85782 28.47996,-5.00251 34.18311,-6.10896 36.75096,-7.12997 2.97813,-1.18414 18.43528,-2.45077 42.46777,-3.48001 14.15553,-0.60623 17.30654,-0.47548 22.96875,0.95314 3.60937,0.91067 11.61065,2.09737 17.78061,2.63713 12.45715,1.08976 16.88607,2.05515 21.3741,4.65901 1.66803,0.96775 4.93123,2.24812 7.25154,2.84526 3.69725,0.9515 13.69499,4.81236 23.23493,8.97271 1.69328,0.73844 3.90812,1.34261 4.92188,1.34261 1.01376,0 1.84319,0.43092 1.84319,0.9576 0,0.52668 1.16016,1.43259 2.57812,2.01313 9.08371,3.71902 23.60518,10.81728 25.77619,12.5997 1.4152,1.16188 3.52457,2.40214 4.6875,2.75613 3.21628,0.97903 9.26706,5.71514 18.04577,14.12493 4.36781,4.18426 9.8302,9.15542 12.13865,11.04701 2.30844,1.89159 5.56842,5.63998 7.2444,8.32975 1.67598,2.68977 5.24481,6.78894 7.93075,9.10925 2.68594,2.32031 4.91785,4.57885 4.95982,5.01898 0.0703,0.73714 5.5122,7.40485 11.58927,14.19977 6.1965,6.92845 10.04953,11.92676 10.04953,13.03667 0,0.66214 1.60034,3.69507 3.55631,6.73985 6.78214,10.55748 9.93955,24.53625 6.23625,27.60971 -3.13651,2.60307 -3.2967,4.31585 -0.88766,9.49067 1.27973,2.74895 2.33091,6.18466 2.33594,7.63489 0.0114,3.29179 3.34938,13.94148 5.9319,18.92571 1.06867,2.0625 2.23829,5.64844 2.59916,7.96875 1.76863,11.37149 3.71325,19.86776 5.19023,22.67655 1.11864,2.12734 1.8608,6.64621 2.35753,14.3547 0.61049,9.47376 2.80693,31.87911 4.13572,42.1875 0.69583,5.39812 1.9417,11.32674 2.60619,12.40191 0.36825,0.59583 1.10813,3.53354 1.64419,6.52821 1.15085,6.42931 2.67581,11.29683 4.34117,13.85661 0.66169,1.01706 1.20308,2.52556 1.20308,3.3522 0,0.82664 1.02077,2.46194 2.26837,3.634 1.2476,1.17206 2.80055,3.46044 3.451,5.0853 0.65044,1.62485 2.58279,4.34567 4.29412,6.04628 1.71134,1.70059 3.11151,3.67385 3.11151,4.38499 0,0.71115 1.52908,4.17132 3.39797,7.68926 1.86888,3.51793 3.76859,8.08374 4.22156,10.14624 0.79798,3.63335 1.00402,5.13754 2.27988,16.64472 0.62154,5.60576 -0.94406,14.76153 -2.52417,14.76153 -0.96486,0 -17.99922,11.25308 -26.12524,17.25862 -6.94103,5.12977 -14.15725,8.47996 -15.07323,6.99789 -0.51437,-0.83227 -4.7974,-0.97037 -16.76266,-0.54051 -14.31139,0.51416 -16.70832,0.37782 -21.88356,-1.24471 -7.02248,-2.20167 -10.40009,-2.29427 -15.68393,-0.43003 -2.20776,0.77894 -4.2383,1.19207 -4.51231,0.91807 -0.274,-0.27401 0.95197,-1.73793 2.72437,-3.25316 3.9286,-3.35856 1.8792,-3.85791 -3.84604,-0.93712 -4.69096,2.39316 -5.07252,0.65751 -0.90015,-4.09457 1.54687,-1.76179 2.8125,-3.45073 2.8125,-3.7532 0,-0.92433 -3.11444,0.48266 -6.32813,2.85882 -2.72087,2.01178 -3.04687,2.07261 -3.04687,0.56856 0,-0.92634 3.63004,-5.09265 8.06675,-9.25846 9.13028,-8.57279 16.38317,-12.12078 28.027,-13.71036 9.44102,-1.28886 13.48137,-2.65998 15.53627,-5.27236 2.10343,-2.67408 2.41121,-6.73248 0.51057,-6.73248 -0.7133,0 -1.5194,-0.85082 -1.79134,-1.89071 -0.82917,-3.17074 -8.33964,-5.77782 -18.89457,-6.55878 -10.14856,-0.7509 -24.71003,-4.1874 -26.40178,-6.2308 -0.57247,-0.69147 -2.61587,-1.25721 -4.54089,-1.25721 -2.61476,0 -3.61456,-0.43791 -3.95279,-1.73128 -0.32051,-1.22563 -1.0842,-1.61056 -2.61483,-1.31797 -1.18917,0.22733 -2.44739,-0.0483 -2.79608,-0.61247 -0.34868,-0.56417 -1.66018,-1.02578 -2.91444,-1.02578 -1.26517,0 -2.80181,-0.83479 -3.45144,-1.875 -0.64402,-1.03125 -1.68311,-1.875 -2.30908,-1.875 -0.62597,0 -2.19281,-1.05469 -3.48187,-2.34375 -1.28906,-1.28906 -2.9809,-2.34375 -3.75963,-2.34375 -0.77873,0 -1.86744,-0.84375 -2.41935,-1.875 -0.55191,-1.03125 -1.62143,-1.875 -2.37673,-1.875 -0.7553,0 -1.37327,-0.35839 -1.37327,-0.79643 0,-0.43802 -1.25795,-2.65287 -2.79544,-4.92187 -1.53749,-2.26899 -2.80311,-4.86373 -2.8125,-5.76608 -0.009,-0.90234 -0.64987,-1.64062 -1.42331,-1.64062 -0.77344,0 -1.40625,-0.6087 -1.40625,-1.35266 0,-0.74397 -0.87723,-2.83946 -1.9494,-4.65665 -1.07216,-1.81718 -1.69809,-3.71059 -1.39096,-4.20756 0.30714,-0.49696 0.0776,-1.20072 -0.51,-1.5639 -1.50669,-0.9312 -10.01181,3.47224 -10.53911,5.45652 -0.26905,1.0124 -0.98324,1.43488 -1.85813,1.09916 -0.8537,-0.3276 -1.81701,0.19444 -2.41271,1.30749 -1.74866,3.26742 -12.86264,11.49385 -14.61816,10.82019 -1.12387,-0.43127 -2.74,0.62434 -5.5107,3.59945 -2.15625,2.31533 -4.85765,4.71126 -6.00314,5.32431 -1.14548,0.61304 -2.08269,1.73258 -2.08269,2.48788 0,0.7553 -0.84375,1.37327 -1.875,1.37327 -1.21335,0 -1.875,0.625 -1.875,1.77114 0,0.97412 -0.81627,2.76709 -1.81394,3.98438 -1.56977,1.91531 -2.07284,2.05549 -3.73728,1.04135 -2.54586,-1.55116 -2.79345,-1.48812 -2.25418,0.57403 0.31567,1.20712 -0.15155,1.90491 -1.51402,2.2612 -1.1157,0.29177 -2.41303,1.78455 -2.99048,3.44104 -0.75486,2.16538 -1.44687,2.79019 -2.66287,2.40425 -2.07995,-0.66015 -13.15223,9.75229 -13.15223,12.36844 0,0.99086 -1.26563,2.73728 -2.8125,3.88093 -1.54688,1.14366 -2.8125,2.88747 -2.8125,3.87515 0,1.02043 -1.08771,2.32384 -2.51922,3.01881 -3.04496,1.47827 -13.93801,14.74921 -17.54265,21.37213 -2.21752,4.07431 -2.41556,5.00118 -1.34706,6.30443 1.10561,1.3485 0.99781,1.46217 -0.91825,0.96822 -1.19788,-0.30881 -4.5595,0.27966 -7.5,1.31292 -4.20727,1.47838 -8.58533,1.9672 -20.79782,2.32216 -8.50781,0.24727 -17.36719,0.92229 -19.6875,1.50003 -2.32031,0.57775 -7.38281,1.11962 -11.25,1.20417 -3.86719,0.0846 -10.19531,0.26914 -14.0625,0.41021 -7.77503,0.28362 -11.26323,-0.33411 -15.46873,-2.73942 -2.8413,-1.62501 -7.9993,-1.88246 -11.0156,-0.54981 -1.011,0.44666 -1.6407,0.32656 -1.6407,-0.31296 0,-0.57079 0.4219,-1.0378 0.9375,-1.0378 0.5157,0 0.9375,-0.41384 0.9375,-0.91964 0,-1.73792 -4.4531,-2.06222 -7.399,-0.53883 -2.5941,1.34147 -4.3245,0.5662 -1.976,-0.88528 1.1194,-0.6918 1.266,-4.21875 0.1754,-4.21875 -0.4191,0 -1.9746,1.26562 -3.4566,2.8125 -3.4218,3.57162 -4.9442,3.65198 -2.4353,0.12855 1.7623,-2.4749 1.7649,-3.87855 0.01,-3.87855 -0.3901,0 -2.0251,1.10718 -3.6333,2.4604 -3.6163,3.04289 -4.6522,2.33189 -2.0097,-1.37927 2.7505,-3.8627 2.4225,-5.9253 -0.3955,-2.48738 -2.2783,2.77948 -2.3054,2.78608 -2.31,0.56187 -0.01,-3.02291 8.7471,-11.42126 13.621,-13.06848 2.0449,-0.69113 5.8773,-2.70811 8.5163,-4.48216 5.687,-3.82295 11.5287,-4.98977 25.67051,-5.12745 5.41406,-0.0527 12.14444,-0.58249 14.95639,-1.17731 4.24052,-0.89699 5.41445,-1.60085 6.88194,-4.12623 1.57888,-2.71708 1.65845,-3.72602 0.73938,-9.375 -0.56646,-3.48163 -1.18157,-10.60417 -1.36691,-15.82786 -0.18536,-5.22368 -0.64374,-9.99392 -1.01863,-10.60052 -0.66216,-1.07138 -2.66623,-18.78227 -2.65864,-23.49561 0.002,-1.28906 0.24473,-5.29169 0.53924,-8.89473 0.3205,-3.92105 0.16238,-6.78155 -0.39388,-7.12535 -0.59672,-0.36879 -0.36566,-3.39285 0.64555,-8.44902 2.32317,-11.61603 2.32714,-11.57687 -1.20832,-11.91792 -2.49761,-0.24094 -3.23551,0.13551 -4.13487,2.10938 -1.4042,3.08188 -2.88529,3.1231 -2.11622,0.0589 0.73377,-2.92357 -0.76708,-3.05229 -2.73276,-0.23437 l -1.47142,2.10937 -0.0492,-2.10937 c -0.0698,-2.99564 -2.67248,-2.65554 -3.03378,0.39645 -0.16315,1.37821 -0.88353,2.69883 -1.60083,2.93473 -0.98687,0.32454 -1.15359,-0.1711 -0.68527,-2.03708 0.36486,-1.4546 0.22688,-2.46596 -0.33667,-2.46596 -0.52545,0 -0.95536,0.58116 -0.95536,1.29146 0,0.7103 -0.70275,1.87046 -1.56175,2.57813 -1.4079,1.15993 -1.4985,1.03273 -0.9196,-1.29147 0.679,-2.72642 -0.1492,-3.32261 -2.0186,-1.45312 -0.875,0.875 -1.125,0.76048 -1.125,-0.51533 0,-1.27173 -0.3599,-1.43894 -1.6015,-0.74409 -1.1654,0.65218 -1.9158,0.4734 -2.7554,-0.65654 -0.9446,-1.27101 -1.4884,-1.3488 -2.9968,-0.42868 -1.4326,0.87381 -2.5412,0.87381 -4.979,0 -1.7249,-0.61826 -3.3998,-1.48555 -3.722,-1.92732 -0.3223,-0.44177 -0.8755,-0.33476 -1.2294,0.23781 -0.3623,0.58625 -1.6475,0.78902 -2.9418,0.46415 -1.2642,-0.31728 -2.8848,-0.0903 -3.6014,0.50444 -0.9886,0.82048 -1.3939,0.80826 -1.6802,-0.0507 -0.2849,-0.8547 -1.0915,-0.88303 -3.2928,-0.11568 -1.6034,0.55897 -3.1343,0.79733 -3.402,0.52967 -0.4936,-0.49357 -5.6948,-0.97992 -14.204,-1.32814 -2.5781,-0.10552 -4.9974,-0.65512 -5.3763,-1.22135 -1.3,-1.9432 -0.7172,4.73109 0.8166,9.35035 0.8437,2.54108 3.5859,8.95838 6.0937,14.26068 2.5079,5.3023 4.5598,10.49973 4.5598,11.54984 0,1.0501 1.3497,3.87113 2.9995,6.26894 1.6497,2.39781 3.1069,5.72307 3.2381,7.38948 0.1312,1.66641 1.265,4.63213 2.5194,6.59051 2.8621,4.46807 3.8133,11.20967 2.0589,14.59142 -0.7079,1.36431 -1.0615,3.34285 -0.7859,4.39678 0.2756,1.05393 0.061,1.91623 -0.477,1.91623 -1.4497,0 -3.8348,5.31019 -3.3014,7.34997 0.321,1.22771 -0.1351,1.92296 -1.4948,2.27853 -1.256,0.32847 -2.1644,1.54976 -2.5365,3.41036 -0.3188,1.5943 -0.9489,2.89869 -1.4,2.89869 -0.4512,0 -0.8203,0.54871 -0.8203,1.21935 0,2.29606 -2.3423,6.18415 -3.9841,6.6135 -1.0045,0.26269 -1.6409,1.32772 -1.6409,2.74614 0,2.42174 -2.5201,9.23629 -3.7151,10.04601 -0.3804,0.25781 -1.1657,1.36944 -1.7449,2.47028 -0.5792,1.10085 -2.2244,2.28958 -3.6559,2.64162 -1.4316,0.35205 -3.6576,1.34536 -4.9466,2.20736 -1.2891,0.862 -3.9846,1.64188 -5.99,1.73306 -2.0054,0.0912 -3.9038,0.53207 -4.2187,0.97976 -0.6313,0.89738 -17.486,0.0215 -19.8961,-1.03397 -0.831,-0.36394 -4.4169,0.0336 -7.9687,0.88334 -4.2043,1.00588 -11.3155,1.61248 -20.3783,1.73832 -11.999,0.16661 -14.0435,0.41322 -14.8122,1.78676 -1.0955,1.95764 -2.819,2.12588 -2.0812,0.20316 0.4507,-1.17453 0.075,-1.23046 -2.421,-0.36036 -4.3436,1.51419 -4.577,0.27302 -0.4108,-2.18507 4.2978,-2.53579 2.2133,-3.63096 -2.3851,-1.25306 -3.8175,1.97409 -3.6286,0.88289 0.5961,-3.44355 3.5639,-3.64982 2.9478,-4.73315 -1.1608,-2.04108 -1.2709,0.83275 -2.3092,1.14915 -2.3072,0.70313 0.015,-3.51877 15.563,-19.89437 20.6875,-21.78897 1.7684,-0.65379 5.5355,-2.10204 8.3715,-3.21834 3.4862,-1.37229 7.2301,-2.03352 11.5597,-2.04164 5.3126,-0.01 6.6374,-0.33144 7.7762,-1.887 2.6646,-3.63977 -0.2748,-9.43612 -6.9234,-13.65253 -2.3882,-1.51454 -3.9553,-2.75372 -3.4825,-2.75372 1.8196,0 -11.5226,-12.50174 -16.1957,-15.17544 -2.707,-1.54883 -4.9218,-3.20669 -4.9218,-3.68415 0,-0.47746 -0.9739,-1.31183 -2.1642,-1.85414 -1.1902,-0.54233 -2.6132,-2.17596 -3.1622,-3.6303 -0.5489,-1.45435 -2.2118,-3.42508 -3.6952,-4.3794 -1.4835,-0.95433 -5.0175,-3.94991 -7.8534,-6.65684 -2.836,-2.70692 -5.8611,-4.92405 -6.7224,-4.92696 -0.9759,-0.004 -1.799,-1.06525 -2.1839,-2.81777 -0.3397,-1.54688 -0.9603,-2.8125 -1.3791,-2.8125 -0.4188,0 -1.0261,-1.05469 -1.3496,-2.34375 -0.3236,-1.28906 -1.1673,-2.34375 -1.875,-2.34375 -0.7077,0 -1.5278,-0.94922 -1.8224,-2.10938 -0.2945,-1.16015 -1.3982,-2.64236 -2.4527,-3.29378 -1.7036,-1.05249 -2.3746,-0.76272 -6.0246,2.60168 -2.259,2.08234 -4.6272,5.04111 -5.2626,6.57503 -0.6354,1.53393 -1.4846,2.78895 -1.8873,2.78895 -0.4026,0 -1.1732,1.26562 -1.7125,2.8125 -0.5392,1.54687 -1.4242,2.8125 -1.9667,2.8125 -0.5424,0 -0.9862,0.50016 -0.9862,1.11145 0,0.6113 -0.8744,2.04219 -1.9431,3.17974 -1.0687,1.13756 -2.043,2.74925 -2.1652,3.58152 -0.3256,2.21865 -6.2986,8.06479 -8.2397,8.06479 -1.3138,0 -1.5631,0.54714 -1.1748,2.57812 0.4366,2.28412 0.052,2.78601 -3.3693,4.40097 -2.1241,1.00256 -4.2697,2.58459 -4.768,3.51562 -0.4982,0.93103 -1.5239,1.69279 -2.2792,1.69279 -0.7553,0 -1.3732,0.79802 -1.3732,1.77337 0,1.10625 -0.8753,1.99304 -2.3267,2.35733 -1.2797,0.32118 -2.9781,1.84347 -3.7741,3.38288 -0.7961,1.53941 -1.825,2.79892 -2.2866,2.79892 -0.4615,0 -2.5436,1.6875 -4.6268,3.75 -2.0832,2.0625 -4.2113,3.75 -4.7291,3.75 -0.5178,0 -2.3273,1.20376 -4.021,2.67502 -1.6937,1.47125 -4.1342,3.22571 -5.4232,3.89878 -1.2891,0.67307 -2.8951,2.00056 -3.5688,2.94998 -0.6738,0.94942 -1.8191,1.72622 -2.5452,1.72622 -0.726,0 -1.7457,0.79522 -2.2658,1.76716 -0.5202,0.97194 -2.0039,2.03274 -3.2972,2.35733 -1.299,0.32602 -3.0064,1.85665 -3.8147,3.41974 -0.8047,1.55627 -1.8258,2.60547 -2.269,2.33156 -0.4432,-0.2739 -1.6804,0.98443 -2.7495,2.79628 -1.069,1.81185 -2.9406,3.67334 -4.1592,4.13664 -1.2186,0.4633 -3.3112,2.14432 -4.6501,3.73558 -1.339,1.59127 -2.8836,2.89321 -3.4325,2.89321 -0.5489,0 -0.998,0.42187 -0.998,0.9375 0,0.51562 -0.829,0.9375 -1.8421,0.9375 -1.0131,0 -2.324,0.90074 -2.9132,2.00166 -0.8402,1.56986 -1.2413,1.72657 -1.8594,0.72648 -0.5709,-0.9238 -1.2735,-0.19082 -2.55,2.66011 -1.2407,2.77126 -2.0557,3.64142 -2.7553,2.94182 -0.6996,-0.69959 -1.1797,-0.69198 -1.6233,0.0258 -0.3465,0.56055 -1.4883,1.01919 -2.5373,1.01919 -1.1278,0 -2.1107,0.77713 -2.4047,1.90128 -0.3615,1.3825 -0.995,1.74328 -2.3218,1.3222 -1.3475,-0.42769 -1.9621,-0.0531 -2.3507,1.43299 -0.3162,1.20904 -1.0382,1.81558 -1.8092,1.51972 -0.7057,-0.27079 -1.283,-0.18375 -1.283,0.19343 0,0.69072 -2.8212,2.39642 -5.8594,3.54262 -0.9024,0.34042 -1.6406,0.99161 -1.6406,1.4471 0,0.45548 -1.214,0.82816 -2.6978,0.82816 -1.4837,0 -3.2524,0.66842 -3.9304,1.48536 -0.678,0.81696 -3.1335,2.79309 -5.4565,4.3914 l -4.2238,2.90604 -15.9864,0.22819 c -15.3899,0.21969 -22.8968,1.10489 -26.7194,3.1507 -1.9961,1.06827 -7.1407,1.10095 -12.3894,0.0787 z"
         style="fill:#000000"
         inkscape:connector-curvature="0" />
      <text
         sodipodi:linespacing="125%"
         id="text3422"
         y="-1018.9875"
         x="-4495.2695"
         style="font-style:normal;font-weight:normal;font-size:180px;line-height:125%;font-family:sans-serif;letter-spacing:0px;word-spacing:0px;fill:#000000;fill-opacity:1;stroke:none;stroke-width:1px;stroke-linecap:butt;stroke-linejoin:miter;stroke-opacity:1"
         xml:space="preserve"><tspan
           y="-1018.9875"
           x="-4495.2695"
           id="tspan3424"
           sodipodi:role="line">Language           (denotes)                World</tspan></text>
      <text
         sodipodi:linespacing="125%"
         id="text4641"
         y="-590.66235"
         x="-4451.0864"
         style="font-style:normal;font-weight:normal;font-size:180px;line-height:125%;font-family:sans-serif;letter-spacing:0px;word-spacing:0px;fill:#000000;fill-opacity:1;stroke:none;stroke-width:1px;stroke-linecap:butt;stroke-linejoin:miter;stroke-opacity:1"
         xml:space="preserve"><tspan
           y="-590.66235"
           x="-4451.0864"
           id="tspan4643"
           sodipodi:role="line">Mammal</tspan><tspan
           id="tspan4645"
           y="-365.66232"
           x="-4451.0864"
           sodipodi:role="line" /><tspan
           id="tspan4647"
           y="-140.66232"
           x="-4451.0864"
           sodipodi:role="line" /><tspan
           id="tspan4649"
           y="84.337677"
           x="-4451.0864"
           sodipodi:role="line" /><tspan
           id="tspan4651"
           y="309.33768"
           x="-4451.0864"
           sodipodi:role="line">Flies</tspan></text>
      <path
         sodipodi:nodetypes="ssssssss"
         inkscape:connector-curvature="0"
         inkscape:original-d="m -1470.9326,-95.54209 c 84.5692,123.859946 -88.0124,249.88132 2.8842,369.17525 65.8727,86.45223 224.2909,126.75023 299.9549,204.7769 90.9036,93.74223 92.9704,213.0902 103.8305,343.21761 6.7335,80.68234 43.9017,189.27393 -17.3051,242.27123 -171.2444,148.2759 -377.3612,-52.2769 -533.5736,-216.31364 -283.8419,-298.05897 -412.1684,-750.349288 -74.9887,-986.39007 93.0188,-65.1173 155.1714,-50.51029 219.1978,43.26272 z"
         inkscape:path-effect="#path-effect4655"
         id="path4653"
         d="m -1470.9326,-95.54209 c 17.3431,26.324723 24.0501,58.561817 23.9771,90.0859115 -0.073,31.5240945 -6.5311,62.6629785 -13.6987,93.3614885 -7.1677,30.69851 -15.0977,61.35623 -18.2021,92.72718 -3.1045,31.37094 -1.1743,63.84247 10.8079,93.00067 11.7483,28.58899 32.6988,52.74657 57.0578,71.77261 24.359,19.02605 52.1154,33.23532 80.3569,45.79596 56.483,25.12127 117.2621,45.12143 162.5402,87.20833 44.8398,41.67953 69.5831,101.056 82.3361,160.93214 12.7531,59.87614 14.7537,121.4385 21.4944,182.28547 4.5471,41.04546 11.274,82.00052 11.2631,123.29707 -0.011,41.29655 -7.2115,83.62876 -28.5682,118.97416 -14.9778,24.7884 -36.5858,45.3894 -61.5805,60.0203 -24.9948,14.6309 -53.306,23.3488 -82.1177,26.2961 -57.6233,5.8945 -116.1146,-11.3389 -165.7005,-41.2793 -49.586,-29.9405 -90.908,-72.0069 -126.5414,-117.67369 -35.6334,-45.66684 -65.9958,-95.15641 -97.6335,-143.67705 -103.7616,-159.13228 -224.4734,-314.30153 -268.1336,-499.18891 -21.8301,-92.44368 -22.8702,-191.33764 8.4941,-280.99629 31.3642,-89.658648 97.2457,-169.01975 184.6508,-206.20487 37.2219,-15.83547 78.4731,-23.93313 118.4656,-17.86365 39.9924,6.06949 78.4783,27.34771 100.7322,61.12637 z"
         style="fill:none;fill-rule:evenodd;stroke:#ff0000;stroke-width:8;stroke-linecap:butt;stroke-linejoin:miter;stroke-miterlimit:4;stroke-dasharray:8, 8;stroke-dashoffset:0;stroke-opacity:1" />
      <path
         sodipodi:nodetypes="ssssssssss"
         inkscape:connector-curvature="0"
         inkscape:original-d="m -1562.1991,-399.70797 c 24.275,82.72707 128.6561,123.27196 159.0751,203.94244 49.015,129.986386 -70.7098,314.85393 24.4731,416.04258 77.8783,82.79215 206.608,111.21232 290.6118,187.78205 157.27394,143.35567 47.0064,300.26804 211.29428,435.52864 163.77404,134.83756 423.23275,158.81936 607.5408,53.77821 81.46299,-46.42753 114.90356,-154.03157 138.68086,-244.73093 124.1211421,-473.46457 280.61545,-945.85337 -67.9891,-1289.43688 -330.22742,-325.47109 -922.38414,-291.80393 -1263.06704,22.70642 -98.3141,90.76125 -138.2939,85.99771 -100.6198,214.38747 z"
         inkscape:path-effect="#path-effect5199"
         id="path5197"
         d="m -1562.1991,-399.70797 c 5.3115,21.14074 15.9615,40.66849 29.0171,58.12397 13.0557,17.45548 28.5096,32.96897 44.3339,47.96018 31.6485,29.98243 65.7648,59.1001 85.7241,97.85829 16.2015,31.461 21.949,67.46198 21.8622,102.84949 -0.087,35.387506 -5.7551,70.4944 -11.2693,105.449766 -5.5141,34.955367 -10.9031,70.129271 -10.4243,105.513644 0.4787,35.38437 7.1059,71.30247 24.3045,102.22968 14.2239,25.57809 35.2409,46.94094 58.8447,64.24459 23.6039,17.30365 49.8139,30.73432 76.4707,42.81631 53.3135,24.16399 109.8716,43.80475 155.2964,80.72115 63.3584,51.4909 97.4362,130.33001 122.79407,207.93529 25.35787,77.60528 44.95274,158.53382 88.50021,227.59335 62.45832,99.0492 173.47425,165.35226 290.16473,175.10506 116.69049,9.7527 236.46973,-36.67491 317.37607,-121.32685 65.21259,-68.23164 104.19777,-156.8722 138.68086,-244.73093 C -47.551283,441.23278 17.480169,219.07299 19.370705,-8.0209657 21.261241,-235.11492 -45.412952,-469.06445 -198.51226,-636.80186 -356.22917,-809.59837 -596.58547,-897.8426 -830.293,-887.16347 c -233.7075,10.67912 -458.5611,115.27299 -631.2863,273.06803 -30.6593,28.00911 -60.1956,58.1587 -80.3883,94.44577 -20.1928,36.28708 -30.3505,79.66631 -20.2315,119.9417 z"
         style="fill:none;fill-rule:evenodd;stroke:#00ff00;stroke-width:8;stroke-linecap:butt;stroke-linejoin:miter;stroke-miterlimit:4;stroke-dasharray:8, 8;stroke-dashoffset:0;stroke-opacity:1" />
      <path
         inkscape:connector-curvature="0"
         inkscape:original-d="m -3619.5148,-634.2543 2093.8668,11.82705"
         inkscape:path-effect="#path-effect5203"
         id="path5201"
         d="m -3619.5148,-634.2543 2093.8668,11.82705"
         style="fill:none;fill-rule:evenodd;stroke:#000000;stroke-width:6.99511194;stroke-linecap:butt;stroke-linejoin:miter;stroke-miterlimit:4;stroke-dasharray:13.99022356, 6.99511178;stroke-dashoffset:0;stroke-opacity:1;marker-end:url(#Arrow1Mend)"
         sodipodi:nodetypes="cc" />
      <path
         inkscape:connector-curvature="0"
         inkscape:original-d="m -3986.9183,253.96232 2008.0614,6.36475"
         inkscape:path-effect="#path-effect5227"
         id="path5225"
         d="m -3986.9183,253.96232 2008.0614,6.36475"
         style="fill:none;fill-rule:evenodd;stroke:#000000;stroke-width:6.50496769;stroke-linecap:butt;stroke-linejoin:miter;stroke-miterlimit:4;stroke-dasharray:13.00993555, 6.50496778;stroke-dashoffset:0;stroke-opacity:1;marker-end:url(#marker5235)"
         sodipodi:nodetypes="cc" />
    </g>
  </g>
</svg>
