<?xml version="1.0" encoding="UTF-8" standalone="no"?>
<!-- Created with Inkscape (http://www.inkscape.org/) -->

<svg
   xmlns:dc="http://purl.org/dc/elements/1.1/"
   xmlns:cc="http://creativecommons.org/ns#"
   xmlns:rdf="http://www.w3.org/1999/02/22-rdf-syntax-ns#"
   xmlns:svg="http://www.w3.org/2000/svg"
   xmlns="http://www.w3.org/2000/svg"
   xmlns:sodipodi="http://sodipodi.sourceforge.net/DTD/sodipodi-0.dtd"
   xmlns:inkscape="http://www.inkscape.org/namespaces/inkscape"
   id="svg4136"
   version="1.1"
   inkscape:version="0.91 r13725"
   width="1722.1875"
   height="1691.25"
   viewBox="0 0 1722.1875 1691.25"
   sodipodi:docname="WoodlandAnimals.svg">
  <metadata
     id="metadata4142">
    <rdf:RDF>
      <cc:Work
         rdf:about="">
        <dc:format>image/svg+xml</dc:format>
        <dc:type
           rdf:resource="http://purl.org/dc/dcmitype/StillImage" />
        <dc:title></dc:title>
      </cc:Work>
    </rdf:RDF>
  </metadata>
  <defs
     id="defs4140" />
  <sodipodi:namedview
     pagecolor="#ffffff"
     bordercolor="#666666"
     borderopacity="1"
     objecttolerance="10"
     gridtolerance="10"
     guidetolerance="10"
     inkscape:pageopacity="0"
     inkscape:pageshadow="2"
     inkscape:window-width="1600"
     inkscape:window-height="837"
     id="namedview4138"
     showgrid="false"
     inkscape:zoom="0.39615669"
     inkscape:cx="861.09375"
     inkscape:cy="845.625"
     inkscape:window-x="-8"
     inkscape:window-y="-8"
     inkscape:window-maximized="1"
     inkscape:current-layer="svg4136" />
  <path
     style="fill:#000000"
     d="m 148.05877,1689.9681 c -9.34425,-2.5195 -18.36116,-9.9806 -22.89764,-18.9467 -3.05389,-6.036 -3.55766,-15.0266 -1.10745,-19.7647 2.06615,-3.9955 7.62702,-8.6358 13.41844,-11.197 l 4.91639,-2.1743 -1.82549,-6.3646 c -5.41063,-18.8641 -7.84222,-43.9216 -5.63843,-58.1034 2.93864,-18.9107 9.77256,-35.7668 20.74053,-51.1572 7.49631,-10.519 23.41533,-25.8963 34.44826,-33.2761 30.51219,-20.4093 55.73277,-23.347 105.01212,-12.2322 11.82744,2.6676 26.47193,2.9038 30.87425,0.4979 1.66706,-0.9111 3.65376,-2.8608 4.41491,-4.3327 1.3439,-2.5988 4.65164,-21.6008 3.89229,-22.3602 -0.20803,-0.2079 -6.6411,-1.2053 -14.29572,-2.2163 -47.59868,-6.2867 -76.07067,-16.4903 -86.60931,-31.0385 -4.11047,-5.6743 -3.77773,-6.3626 3.08245,-6.3761 9.71655,-0.019 35.10871,-2.5497 47.57813,-4.7413 21.70484,-3.8149 28.47303,-2.9641 49.35774,6.2046 18.56425,8.1501 17.1422,7.9511 22.6879,3.1742 l 4.72586,-4.0707 -3.25499,-4.2621 c -6.741,-8.8265 -19.14828,-28.0218 -23.66079,-36.6057 -5.63399,-10.7172 -10.87528,-24.5783 -12.31838,-32.577 -2.06556,-11.4488 -0.83519,-25.6415 2.69665,-31.1071 1.12481,-1.7407 3.05444,-0.2664 22.26121,17.0067 27.63214,24.8503 30.1945,27.7186 36.67396,41.0524 6.50539,13.3871 10.67089,24.8336 12.37065,33.9936 1.0535,5.6773 1.43325,6.393 3.64621,6.8717 13.21525,2.8592 26.64165,9.3133 34.39653,16.5344 3.17089,2.9527 8.84402,9.9136 12.60695,15.4688 3.76293,5.5552 8.61198,12.2096 10.77566,14.7877 8.6585,10.317 10.25392,14.0832 7.50462,17.7151 -0.74008,0.9778 -2.22788,4.429 -3.30623,7.6694 -3.08577,9.2728 -6.05718,12.5991 -15.7063,17.5828 -4.63713,2.3949 -9.72404,5.827 -11.30421,7.6267 -4.37086,4.9781 -4.55153,6.5165 -3.8572,32.8435 0.32814,12.4419 0.21574,13.4555 -2.15955,19.4744 -7.43522,18.8403 -26.11645,42.6513 -41.72456,53.1819 l -4.86338,3.2812 -0.0327,8.4375 c -0.0298,7.6943 -1.75113,25.492 -3.64209,37.6574 -0.41419,2.6647 -0.40349,5.4695 0.0238,6.233 0.42727,0.7635 2.99469,1.8848 5.70537,2.4916 2.71068,0.6069 6.08494,1.543 7.49835,2.0804 3.64981,1.3876 6.33641,6.2012 6.33641,11.3529 0,10.0276 -2.83798,11.4981 -20.65968,10.7056 -16.14183,-0.718 -20.16087,-2.6327 -26.01862,-12.3959 -3.45414,-5.757 -8.73116,-19.7997 -11.44967,-30.4687 -1.11675,-4.3828 -2.18147,-8.1203 -2.36602,-8.3054 -0.18455,-0.1852 -1.6167,0.5756 -3.18254,1.6906 -5.95927,4.2434 -19.40848,9.2455 -43.19847,16.0667 l -4.21875,1.2096 4.21875,0.6935 c 2.32031,0.3815 8.01563,0.7252 12.65625,0.7638 12.10267,0.1008 28.40179,3.9265 33.33136,7.8236 2.65809,2.1014 7.25788,9.6129 8.33414,13.6099 1.02328,3.8001 0.21975,7.6352 -1.62036,7.7335 -5.89064,0.3146 -83.22152,1.3483 -96.29514,1.2872 -19.59075,-0.092 -23.47148,-0.7557 -44.0625,-7.5407 l -10.3125,-3.3981 -9.03301,4.3656 c -13.58655,6.5663 -25.57671,8.5363 -35.56447,5.8433 z"
     id="path4166" />
  <path
     style="fill:#000000"
     d="m 1000.8516,1676.7 c -1.28507,-0.9722 -3.1746,-1.2138 -6.56254,-0.839 -4.52118,0.5002 -4.9844,0.3365 -9.31303,-3.2923 -2.50537,-2.1003 -5.51484,-3.8187 -6.68775,-3.8187 -2.44969,0 -7.44787,-5.1342 -11.15306,-11.4568 -3.57253,-6.0961 -9.57741,-21.28 -11.42981,-28.9014 -1.19157,-4.9024 -2.22966,-7.061 -4.04485,-8.4105 -1.34297,-0.9985 -3.13575,-2.4845 -3.984,-3.3024 -2.29959,-2.2175 -7.36406,-12.1181 -7.36406,-14.3963 0,-1.0925 -1.27669,-3.7487 -2.83705,-5.9028 -3.45731,-4.7726 -6.33416,-13.7845 -4.71909,-14.7826 0.77992,-0.482 0.68849,-0.9958 -0.32717,-1.8388 -0.77525,-0.6434 -1.84917,-0.8981 -2.38648,-0.5661 -0.53731,0.3322 -1.86688,-0.02 -2.9546,-0.7814 -1.19622,-0.8378 -3.14173,-1.1996 -4.92353,-0.9155 -2.18557,0.3485 -3.79265,-0.151 -6.22708,-1.9352 -7.41189,-5.4326 -8.72647,-6.0965 -10.35001,-5.2276 -0.87503,0.4682 -1.80927,0.6332 -2.07609,0.3663 -0.26683,-0.2669 -1.39706,0.6742 -2.51162,2.0911 -3.25701,4.1406 -2.28909,6.8536 3.62169,10.1514 3.37855,1.8849 5.30108,3.6301 5.71724,5.1897 0.34486,1.2923 1.32379,3.6972 2.17541,5.344 3.03676,5.8725 0.72525,17.3925 -3.99692,19.9197 -3.01538,1.6139 -2.34688,3.2285 2.26405,5.4687 2.92403,1.4206 4.21875,2.6288 4.21875,3.9368 0,1.9201 -1.35127,2.5555 -2.27075,1.0678 -0.27852,-0.4506 -2.81088,-1.9105 -5.62744,-3.2441 -2.81658,-1.3335 -5.60381,-3.3267 -6.19383,-4.4291 -0.93814,-1.753 -0.65064,-2.3912 2.29087,-5.0856 1.85001,-1.6945 3.36365,-3.9215 3.36365,-4.9487 0,-1.6359 -0.49463,-1.8175 -3.98438,-1.4629 -4.90825,0.499 -9.74079,-2.2003 -11.1435,-6.2241 -1.08435,-3.1105 -6.37272,-7.5361 -9.00539,-7.5361 -0.96709,0 -2.57728,-0.6194 -3.57817,-1.3764 -2.35542,-1.7816 -4.57565,-1.7925 -6.03856,-0.03 -0.6419,0.7734 -1.85371,1.4107 -2.69291,1.4161 -3.14031,0.021 -12.30709,12.2579 -12.30709,16.4295 0,1.8855 -7.79543,9.8106 -9.65006,9.8106 -0.84369,0 -2.02164,-0.9112 -2.61767,-2.0249 -1.01347,-1.8937 -1.14456,-1.9162 -2.02274,-0.347 -0.52055,0.9302 -0.68223,3.8632 -0.3628,6.5811 0.57245,4.8706 0.56035,4.9 -1.83006,4.443 -1.42202,-0.2718 -2.75725,-1.3829 -3.26419,-2.7163 -1.20382,-3.1663 0.0311,-24.5799 1.59664,-27.6862 1.4899,-2.9563 1.6592,-5.4372 0.371,-5.4372 -1.90927,0 -7.84283,6.2031 -10.59031,11.0713 -1.98926,3.5248 -3.82474,5.4873 -5.97089,6.384 -4.90037,2.0475 -6.8448,1.6625 -8.229,-1.6295 l -1.22955,-2.9243 -1.53768,2.1954 c -0.90773,1.296 -1.53769,4.0423 -1.53769,6.7036 0,4.6332 -1.8014,6.7731 -3.91898,4.6555 -1.78895,-1.789 -2.00965,-9.2072 -0.41329,-13.8922 0.83587,-2.4531 1.52915,-5.7562 1.54062,-7.3401 0.0114,-1.584 0.84583,-3.9346 1.85415,-5.2237 3.05072,-3.9001 2.44445,-4.6875 -3.60934,-4.6875 -4.46713,0 -6.16587,0.4782 -9.15885,2.5781 -2.02098,1.418 -5.34446,3.4219 -7.38552,4.4532 -2.04107,1.0312 -6.1099,4.3007 -9.04187,7.2656 -2.93196,2.9648 -5.76053,5.3906 -6.2857,5.3906 -0.52518,0 -1.23034,0.8679 -1.56701,1.9287 -0.85608,2.6973 -4.53883,3.9297 -7.58938,2.5397 -2.07649,-0.9461 -2.62801,-0.8596 -3.67848,0.577 -0.67967,0.9296 -1.51269,3.3291 -1.85114,5.3325 -0.48311,2.8594 -0.19538,4.2323 1.33845,6.3864 4.2839,6.0162 0.92996,7.8945 -4.26359,2.3877 -2.62014,-2.7782 -3.15757,-4.0652 -3.15757,-7.5616 0,-4.5048 -1.27538,-7.8404 -2.99779,-7.8404 -0.58124,0 -3.1026,1.3128 -5.60301,2.9173 -4.48207,2.8762 -7.01366,3.1787 -11.28279,1.3484 -2.77258,-1.1886 -5.64504,4.6022 -4.97579,10.0312 0.42885,3.4788 0.25781,4.4531 -0.78176,4.4531 -2.5131,0 -4.35886,-4.3726 -4.35886,-10.3261 0,-6.362 1.26959,-9.4599 5.5413,-13.5212 1.59292,-1.5144 2.8962,-3.6616 2.8962,-4.7714 0,-3.9004 15.49099,-14.0708 27.97247,-18.365 5.91589,-2.0354 14.29218,-7.8291 23.39075,-16.1789 8.19748,-7.5228 10.01634,-8.2025 12.91675,-4.8271 1.23028,1.4318 2.8946,2.3843 3.84588,2.2011 1.28579,-0.2476 0.58829,-1.1957 -2.99006,-4.064 -8.56746,-6.8677 -13.08985,-12.1144 -17.11793,-19.8596 -3.12839,-6.0153 -5.43929,-8.9631 -10.65622,-13.5937 -8.00507,-7.1053 -12.39283,-13.3527 -20.28479,-28.8816 -3.27557,-6.4453 -7.57281,-13.4062 -9.54944,-15.4687 -10.02615,-10.4618 -15.75449,-22.3929 -19.2422,-40.0782 -0.27964,-1.4179 -1.1279,-2.5781 -1.88504,-2.5781 -1.66437,0 -7.13197,-10.617 -9.24744,-17.9568 -0.84025,-2.9151 -1.52773,-7.2017 -1.52773,-9.5256 0,-2.324 -0.8383,-6.8997 -1.86291,-10.1682 -1.88109,-6.001 -2.37218,-16.8717 -1.03081,-22.8179 0.4592,-2.0356 0.0401,-3.9517 -1.51716,-6.9365 -1.93898,-3.7165 -2.15162,-5.3956 -2.15162,-16.9902 0,-11.0707 0.27734,-13.4932 1.98729,-17.3589 l 1.9873,-4.4926 -3.2777,-7.1109 c -5.45687,-11.8387 -6.59477,-18.0384 -7.03835,-38.3478 -0.38777,-17.7544 -0.35687,-18.122 1.56669,-18.6249 2.31169,-0.6045 2.63394,-2.1695 0.44673,-2.1695 -1.17388,0 -1.38018,-0.5812 -0.91513,-2.5781 0.33024,-1.418 0.94717,-6.375 1.37097,-11.0156 0.49923,-5.4667 2.15957,-12.8938 4.71555,-21.0938 8.57727,-27.5173 10.40665,-33.6211 10.40665,-34.7217 0,-0.6299 1.84404,-4.9931 4.09787,-9.6961 4.57952,-9.5559 4.90163,-13.0382 1.46362,-15.8221 -1.23815,-1.0027 -3.10148,-3.2227 -4.14072,-4.9334 -1.03924,-1.7109 -2.99607,-4.5162 -4.34852,-6.2343 -3.23255,-4.1063 -8.31107,-19.6672 -8.3634,-25.626 -0.0226,-2.5768 -0.64909,-6.3726 -1.39214,-8.4351 -0.74303,-2.0625 -1.35733,-4.5003 -1.36509,-5.4174 -0.0166,-1.9553 5.12915,-12.4555 6.5274,-13.3197 0.52716,-0.3258 0.95848,-1.4604 0.95848,-2.5213 0,-1.5758 0.38634,-1.8053 2.10937,-1.2533 1.16016,0.3717 3.58594,0.8879 5.39063,1.1471 1.80469,0.2592 4.54687,1.6299 6.09375,3.0462 1.54687,1.4163 4.74637,3.4843 7.11,4.5956 4.94363,2.3243 7.28106,4.618 10.3756,10.1812 3.27,5.8786 12.02024,15.4707 13.57032,14.8758 2.05573,-0.7888 6.84846,1.68 11.12459,5.7305 0.65451,0.62 1.42292,0.8943 1.70757,0.6097 0.65173,-0.6518 7.20567,1.4649 7.20567,2.3271 0,0.3505 3.41917,0.4821 7.59817,0.2923 6.67336,-0.3031 7.93746,-0.094 10.38579,1.7159 2.73326,2.0208 3.0394,2.0402 15.69871,0.9973 10.06664,-0.8294 13.4667,-0.8106 15.43304,0.085 1.99526,0.9091 3.47384,0.905 7.08002,-0.019 2.6991,-0.6918 8.60198,-1.0469 14.47341,-0.8707 9.38795,0.2816 9.99404,0.1852 11.39501,-1.8119 0.81382,-1.1602 2.08499,-2.1094 2.82482,-2.1094 0.73982,0 1.87207,-0.8438 2.5161,-1.875 0.64402,-1.0313 2.08666,-1.875 3.20585,-1.875 2.71666,0 6.65958,-4.8449 7.46131,-9.1682 0.84219,-4.5414 5.99404,-14.2258 10.44149,-19.6279 1.93465,-2.3498 4.36128,-6.0079 5.39253,-8.1289 1.34197,-2.76 3.71826,-5.1013 8.35893,-8.2356 3.56615,-2.4086 6.85665,-5.0454 7.31221,-5.8594 2.10962,-3.7697 9.81564,0.5129 12.48055,6.9361 0.9578,2.3085 2.03668,5.8944 2.39751,7.9688 0.36082,2.0742 1.20437,5.1125 1.87454,6.7518 1.07344,2.6258 0.95388,3.7975 -1.00458,9.8438 -1.22268,3.7747 -3.45367,9.3945 -4.95774,12.4882 -2.40714,4.9513 -2.65702,6.2427 -2.08619,10.7813 0.35669,2.8359 0.83548,7.4704 1.06398,10.2987 0.22851,2.8283 1.01381,6.0557 1.74514,7.1718 0.73132,1.1162 2.59852,5.8796 4.14935,10.5856 2.13362,6.4744 2.60849,9.1117 1.9517,10.8392 -1.26638,3.3308 3.76616,21.4354 7.82095,28.1359 0.62406,1.0313 2.1455,4.4063 3.381,7.5 1.23548,3.0938 3.22735,7.1987 4.42637,9.122 1.19901,1.9234 2.18003,4.0594 2.18003,4.7468 0,0.6872 1.74077,4.1358 3.86841,7.6635 2.12756,3.5276 5.17228,9.8291 6.76603,14.0033 2.67656,7.0102 2.90006,8.4951 2.92856,19.4555 l 0.0309,11.8661 7.5,5.418 c 4.125,2.9799 9.02718,6.7654 10.89375,8.4121 1.86665,1.6467 6.42722,4.7656 10.13456,6.9308 5.1525,3.0092 8.10816,5.6469 12.54375,11.1943 3.19162,3.9917 8.56219,10.4581 11.93474,14.3699 3.3723,3.9117 7.2914,9.243 8.7088,11.8473 3.7581,6.9049 10.0937,25.8705 10.6665,31.9303 0.2717,2.8753 1.0003,6.0714 1.619,7.1026 0.6188,1.0313 2.0879,6.0938 3.2649,11.25 1.177,5.1563 2.7551,11.4844 3.507,14.0625 2.8164,9.6572 4.9405,34.3722 3.1826,37.0313 -0.785,1.1874 -1.2399,1.2138 -2.9245,0.1694 -1.0972,-0.6803 -2.175,-1.0567 -2.3952,-0.8365 -0.2202,0.2201 0.2856,2.8861 1.1239,5.9243 2.7506,9.9689 3.5391,14.8191 3.3361,20.524 -0.1101,3.0938 0.2114,7.3125 0.7144,9.375 0.503,2.0625 1.8036,8.3907 2.8905,14.0625 1.678,8.7576 3.9656,16.414 7.5629,25.3125 2.9731,7.3544 4.7654,23.0098 5.2591,45.9375 0.3943,18.3088 0.3562,18.7887 -1.6165,20.3907 -1.1111,0.9023 -2.8172,1.6406 -3.7914,1.6406 -2.0229,0 -2.2755,0.9956 -0.6618,2.6093 0.6102,0.6102 0.8347,1.3842 0.4989,1.72 -1.0059,1.0059 -5.8937,-1.4634 -8.7047,-4.3975 -1.4461,-1.5093 -3.4312,-2.7443 -4.4113,-2.7443 -1.5698,0 -1.7074,0.4745 -1.1555,3.9844 0.3445,2.1914 1.0086,5.25 1.4754,6.7968 2.108,6.9837 4.6034,18.6568 6.0125,28.125 0.844,5.6719 2.2113,14.1959 3.0383,18.9424 2.4133,13.8511 -0.3742,28.1265 -5.6967,29.1732 -2.0812,0.4093 -1.9417,-1.3731 0.3338,-4.266 3.3408,-4.247 2.3966,-18.0683 -1.2342,-18.0683 -0.4994,0 -0.586,2.5517 -0.2067,6.0937 0.5294,4.9438 0.4016,6.0938 -0.6778,6.0938 -0.7317,0 -1.8713,-1.1602 -2.5326,-2.5781 -1.1274,-2.4177 -1.2493,-2.4614 -1.9596,-0.7032 -1.4187,3.5123 -1.0245,6.0938 0.9306,6.0938 2.6093,0 3.2387,1.6105 1.0806,2.7654 -2.7762,1.4859 -4.8989,1.1953 -7.2236,-0.9887 -1.3668,-1.2839 -2.534,-1.6933 -3.3417,-1.1718 -0.6827,0.4408 -2.085,0.8013 -3.1163,0.8013 -3.0926,0 -2.1287,2.5451 2.086,5.5072 3.5252,2.4776 4.2347,2.6592 6.4492,1.6502 2.8568,-1.3016 3.4723,-1.0319 2.6335,1.154 -2.1306,5.5524 -15.332,-0.2835 -17.7296,-7.8376 -0.8899,-2.8039 -2.3453,-2.2701 -2.3453,0.8604 0,1.7948 0.9704,3.7107 2.8125,5.5529 3.4397,3.4397 3.522,4.6084 0.4077,5.7924 -3.3974,1.2917 -7.1342,1.0853 -9.2437,-0.5107 z"
     id="path4164" />
  <path
     style="fill:#000000"
     d="m 1329.375,1661.208 c -7.6429,-0.7194 -23.7317,-3.6009 -29.4142,-5.2681 -0.967,-0.2837 -4.1974,-2.7584 -7.179,-5.4993 -2.9814,-2.7409 -11.2606,-9.3217 -18.3982,-14.6239 -17.1728,-12.7571 -26.0132,-19.8158 -31.8379,-25.4216 l -4.7981,-4.6177 -3.3523,2.9434 c -1.8438,1.6188 -5.2545,6.2411 -7.5793,10.2718 -2.3249,4.0307 -5.5451,8.4375 -7.156,9.7929 -6.8547,5.7679 -19.4093,1.0734 -27.1264,-10.143 -5.2295,-7.6007 -6.6309,-13.9865 -7.5658,-34.4745 -0.4685,-10.2664 -1.3833,-22.3298 -2.0328,-26.8077 -1.6392,-11.3 -1.6062,-50.4692 0.049,-57.829 2.4356,-10.833 5.0378,-16.933 10.4635,-24.528 3.0068,-4.2092 7.9262,-12.0015 10.932,-17.316 5.9498,-10.5203 15.0676,-20.4386 40.1523,-43.6771 27.2616,-25.2554 40.5822,-35.2746 59.5871,-44.8195 12.749,-6.4029 17.033,-7.8788 31.3504,-10.8009 7.2188,-1.4733 18.8203,-4.542 25.7813,-6.8192 6.9609,-2.2773 16.191,-4.677 20.5113,-5.3327 13.2709,-2.0141 31.8541,-0.2719 59.6449,5.592 30.4062,6.4157 34.9968,7.0379 52.0313,7.052 14.1133,0.012 15.9205,-0.1785 20.625,-2.1709 4.5972,-1.9469 7.3414,-2.268 25.3125,-2.9617 23.4876,-0.9065 27.8931,-1.5701 66.0937,-9.9552 33.508,-7.3549 53.6674,-4.9516 80.7021,9.6215 4.1674,2.2464 8.222,4.0844 9.0102,4.0844 0.7884,0 4.7563,-1.0547 8.8179,-2.3437 8.1748,-2.5946 14.1349,-2.9893 16.7097,-1.1066 1.4981,1.0954 1.6524,2.4653 1.3472,11.9531 -0.3028,9.4065 -0.6623,11.3633 -2.9423,16.0129 -1.4286,2.9134 -4.0398,6.3972 -5.8026,7.7419 l -3.2055,2.4448 1.5561,4.9145 c 1.1933,3.7683 1.551,8.5219 1.5341,20.3831 -0.021,14.3754 -0.2071,16.032 -2.6413,23.4375 -3.704,11.2686 -8.3334,19.6353 -14.722,26.6074 l -5.5198,6.0238 0,12.6357 0,12.6356 -2.9892,2.9225 c -4.7,4.5952 -11.5096,6.675 -21.8546,6.675 -10.5706,0 -17.8041,-2.2669 -21.5898,-6.766 -1.347,-1.6007 -4.3621,-6.7449 -6.7005,-11.4315 -4.4465,-8.9123 -7.2683,-12.74 -9.3917,-12.74 -3.2616,0 -11.7969,6.5277 -23.0211,17.6063 l -8.2031,8.0969 0.019,7.539 c 0.041,16.9105 4.0251,35.2259 9.8093,45.096 2.7025,4.6115 10.0526,11.3398 15.7692,14.4351 2.1639,1.1717 8.6794,4.1746 14.4787,6.673 10.9013,4.6965 19.4844,9.9511 23.8417,14.5959 3.1671,3.376 7.5576,12.0673 7.1542,14.1621 -0.1835,0.9525 -2.9768,2.7199 -6.9937,4.4252 -3.6786,1.5616 -7.4241,3.4661 -8.3235,4.2322 -2.3816,2.0287 -28.1578,1.85 -38.6691,-0.2681 -16.4807,-3.3211 -31.4352,-9.7711 -44.6354,-19.2518 -4.0667,-2.9208 -12.566,-10.7019 -18.8873,-17.2914 l -11.4933,-11.9808 -2.2064,4.4808 c -1.9488,3.9576 -2.1971,5.7397 -2.1265,15.2621 0.1098,14.8373 0.9868,16.6883 9.9199,20.9357 3.7814,1.7979 12.7814,5.2581 20.0002,7.6895 7.2187,2.4312 16.1688,5.9154 19.8889,7.7427 6.9123,3.3951 16.2048,11.5041 16.2048,14.1409 0,0.7847 -3.1802,4.5057 -7.0673,8.2686 -6.9139,6.6933 -7.214,6.8661 -13.8281,7.9597 -10.3062,1.7042 -39.6317,1.3757 -50.3546,-0.564 -17.9544,-3.2479 -30.9285,-8.9803 -39.4923,-17.4491 -6.6623,-6.5882 -8.7492,-10.7078 -10.7011,-21.1251 -1.0778,-5.7515 -2.8471,-10.8919 -5.7137,-16.5996 -2.2839,-4.5474 -4.729,-10.6755 -5.4339,-13.618 -0.7047,-2.9425 -2.0067,-8.5141 -2.8932,-12.3813 -2.7483,-11.9887 -6.3772,-16.875 -12.5328,-16.875 -3.2188,0 -21.1876,5.0536 -33.3892,9.3905 -23.4687,8.3417 -20.5253,7.7021 -32.3438,7.0275 -10.5985,-0.6051 -10.8682,-0.57 -15.9153,2.0676 -3.8197,1.9962 -7.0601,4.9739 -12.6563,11.6307 -11.1511,13.2642 -13.4524,14.7361 -30.7252,19.6516 -4.1873,1.1917 -7.2657,2.5747 -7.2657,3.2642 0,2.0436 10.8726,6.751 20.418,8.8403 28.5664,6.2525 33.6615,8.0642 38.6453,13.7404 3.2926,3.75 5.6242,8.8983 5.6242,12.4181 0,5.3117 -4.2045,8.3885 -17.5068,12.8115 -4.0353,1.3417 -9.2038,3.4705 -11.4856,4.7307 -4.9876,2.7544 -13.1573,3.4365 -26.3201,2.1974 z"
     id="path4162" />
  <path
     style="fill:#000000"
     d="m 610.78125,1381.0805 c -11.3999,-2.4796 -13.73578,-3.9734 -15.76477,-10.082 -1.3402,-4.0348 -1.574,-6.6635 -1.09921,-12.3586 0.57454,-6.8918 0.46384,-7.4875 -2.34291,-12.6066 -1.62028,-2.955 -3.35138,-5.6234 -3.84692,-5.9296 -0.49552,-0.3062 -1.36129,0.7636 -1.92392,2.3776 -0.84307,2.4185 -1.45708,2.8843 -3.49137,2.6485 -3.59142,-0.4162 -4.69618,-4.7235 -4.76223,-18.5673 -0.0308,-6.4453 -0.68669,-15.3246 -1.45763,-19.7317 -0.77096,-4.4071 -2.23345,-14.5321 -3.25,-22.5 -1.8875,-14.7947 -4.84404,-24.5914 -10.7386,-35.5833 -1.24506,-2.3217 -4.43167,-11.603 -7.08134,-20.625 -2.64968,-9.0221 -5.61296,-19.0497 -6.58508,-22.2837 -1.65942,-5.5205 -4.33422,-10.6526 -16.58485,-31.8209 -5.22465,-9.0277 -7.19098,-10.2215 -8.3783,-5.0864 -0.3147,1.3611 -1.12869,3.3693 -1.80886,4.4625 -0.68018,1.0933 -3.21795,7.2105 -5.63951,13.5938 -2.42155,6.3833 -7.68338,18.1702 -11.69296,26.1932 l -7.29014,14.5871 -2.97699,16.8191 c -1.63734,9.2505 -3.76889,19.9925 -4.73677,23.8711 -1.5394,6.169 -1.73476,10.3117 -1.55996,33.0797 l 0.19982,26.0275 5.91185,5.8266 c 9.10295,8.9718 17.9944,18.9764 17.9944,20.2474 0,0.6301 -1.23914,1.5775 -2.75364,2.1055 -2.01089,0.701 -2.92411,1.7626 -3.3856,3.9355 -1.16539,5.4877 -2.61449,6.257 -11.78532,6.257 -9.1428,0 -25.2871,-2.7771 -29.84427,-5.1337 -3.87821,-2.0055 -4.73526,-4.6218 -4.71058,-14.3805 0.0154,-6.076 0.49115,-9.1791 1.875,-12.2288 2.13167,-4.6978 2.28606,-7.4939 0.77523,-14.0392 -0.75416,-3.2671 -1.46002,-4.5291 -2.34375,-4.1899 -0.69551,0.2669 -1.26457,1.0454 -1.26457,1.7301 0,0.6847 -0.45339,2.4326 -1.00753,3.8841 -0.97178,2.5455 -1.05497,2.5746 -2.34375,0.8194 -0.87196,-1.1876 -1.33622,-4.2274 -1.33622,-8.7492 0,-5.6441 0.51958,-8.1131 2.80132,-13.3118 2.82246,-6.4308 6.81051,-25.1304 8.50283,-39.8693 0.47363,-4.125 1.70333,-13.2896 2.73266,-20.3658 1.02933,-7.0763 2.12222,-18.8888 2.42865,-26.25 0.30643,-7.3613 1.14336,-16.3373 1.85983,-19.9467 0.71647,-3.6093 1.76402,-9.9375 2.3279,-14.0625 1.88656,-13.801 7.38677,-45.7727 10.64392,-61.8711 3.52068,-17.4009 3.4781,-17.7228 -2.23461,-16.888 -1.80469,0.2637 -11.08594,1.1054 -20.625,1.8705 -9.53906,0.7651 -20.92969,1.8097 -25.3125,2.3215 -15.47747,1.807 -36.42781,2.5788 -65.625,2.4173 -25.41966,-0.1406 -31.16284,-0.4431 -41.25,-2.1728 -6.44531,-1.1053 -16.14844,-2.7039 -21.5625,-3.5527 -5.41406,-0.8487 -12.14944,-2.3419 -14.96751,-3.3182 -2.81807,-0.9764 -5.63448,-1.7752 -6.2587,-1.7752 -0.62422,0 -3.94685,5.5299 -7.38362,12.2887 -4.07601,8.0159 -7.93026,14.1314 -11.08505,17.5886 -2.66,2.9149 -7.57856,8.5984 -10.93012,12.6296 -3.80819,4.5806 -9.96162,10.2677 -16.40625,15.163 -5.67188,4.3084 -14.74219,11.2805 -20.15625,15.4935 -5.41406,4.2131 -14.33642,10.776 -19.82745,14.5843 -10.97115,7.6091 -11.59442,8.526 -12.58748,18.5162 -0.67832,6.824 0.89638,12.3009 5.94107,20.6634 6.11319,10.1338 50.81197,68.1411 56.34663,73.1233 1.08106,0.9731 2.21666,3.2934 2.52356,5.1562 1.53286,9.304 6.74763,14.3699 23.16026,22.4995 11.48122,5.6869 17.6679,9.9137 19.48781,13.3142 0.78465,1.4661 0.50279,2.2432 -1.48002,4.0809 -2.06493,1.9136 -2.28476,2.5772 -1.40096,4.2286 1.3305,2.4861 0.82633,3.2489 -4.00875,6.0658 -4.8093,2.8018 -6.69005,3.0467 -15.65467,2.0387 -18.84143,-2.1188 -26.83312,-7.4029 -29.91253,-19.7783 -1.18347,-4.756 -4.59942,-11.2693 -5.45934,-10.4093 -0.25876,0.2588 -0.75361,1.8629 -1.09965,3.5649 -0.7411,3.6449 -3.57933,4.5672 -5.96009,1.9364 -1.43454,-1.5852 -4.44339,-11.1568 -4.44339,-14.1351 0,-3.5028 -8.76882,-19.1709 -21.24168,-37.9548 -12.74703,-19.1966 -28.99366,-40.238 -53.68767,-69.532 -8.28453,-9.8277 -9.11468,-11.4739 -8.51971,-16.8943 0.1124,-1.0241 1.48737,-3.4818 3.0555,-5.4617 3.40377,-4.2976 13.02233,-25.3491 11.79517,-25.8152 -0.47222,-0.1794 -10.4378,4.4509 -22.14572,10.2895 -11.70792,5.8386 -21.88707,10.7048 -22.62032,10.8137 -0.73326,0.109 -2.96394,1.8289 -4.95706,3.822 l -3.62388,3.6239 -1.06985,14.4822 c -1.43577,19.4357 -1.4276,28.7132 0.0516,58.5448 0.69029,13.9219 1.41125,33.2524 1.60215,42.9568 0.32586,16.5661 0.49419,17.9655 2.75476,22.9032 3.88415,8.4841 8.28936,13.109 15.84728,16.6379 4.16301,1.9437 8.86572,5.1911 12.52512,8.6491 7.05234,6.664 7.56381,9.1763 2.63376,12.9366 -1.95519,1.4913 -3.33985,3.4341 -3.51563,4.9326 -0.36458,3.1079 -2.46164,3.7359 -12.88636,3.8591 -11.36266,0.1343 -28.18493,-4.4851 -28.18493,-7.7396 0,-0.7354 -0.834487,-3.1761 -1.854411,-5.4239 -1.019926,-2.2477 -1.863676,-5.9159 -1.875,-8.1517 -0.02591,-5.1152 -2.901054,-16.1033 -4.201018,-16.0552 -0.536702,0.02 -1.828291,1.391 -2.870198,3.0469 -2.436525,3.8724 -4.097524,3.8032 -6.490575,-0.2705 -2.487129,-4.2338 -2.383807,-13.3871 0.427848,-37.903 2.378449,-20.7387 2.546948,-25.5666 1.507397,-43.1907 -0.425794,-7.2188 -0.734678,-15.0235 -0.686409,-17.3438 0.04827,-2.3203 -0.324468,-8.3202 -0.828306,-13.3332 -0.503836,-5.0129 -1.594055,-24.4549 -2.422708,-43.2043 l -1.50664,-34.09 3.455966,-5.4025 c 2.701636,-4.2233 4.408913,-5.8117 7.821885,-7.2772 24.787489,-10.6436 36.473269,-18.3017 40.444369,-26.505 1.10381,-2.2801 2.78416,-5.1338 3.73409,-6.3415 2.56163,-3.2565 7.29757,-19.8966 7.85921,-27.614 0.45207,-6.2115 0.0556,-8.2201 -5.088,-25.7812 -3.06804,-10.4747 -6.85758,-25.373 -8.4212,-33.1073 -1.56362,-7.7344 -3.45626,-16.143 -4.20587,-18.68583 -0.74961,-2.54278 -1.36939,-8.02716 -1.37728,-12.1875 -0.0219,-11.51016 -1.80663,-12.71484 -6.1471,-4.14938 -2.69215,5.31272 -8.67787,13.92891 -9.6765,13.92891 -0.36412,0 -1.12592,-0.46387 -1.69285,-1.03078 -1.040766,-1.04081 -2.181234,0.59625 -7.902575,11.34328 -1.807707,3.3956 -3.615546,4.9965 -9.265643,8.2047 -3.860853,2.1923 -8.812701,5.4828 -11.004107,7.3122 l -3.984375,3.3264 0,-8.2966 c 0,-4.5632 0.431667,-8.7283 0.959261,-9.2559 0.527594,-0.5277 1.362553,-5.5496 1.855466,-11.15986 0.492911,-5.61038 1.556441,-15.07163 2.363399,-21.02513 3.064574,-22.60959 2.534817,-20.98228 10.032774,-30.81834 3.751193,-4.92094 12.855722,-15.17017 20.23228,-22.77604 13.1954,-13.60559 13.54353,-13.88135 21.5625,-17.0801 19.06851,-7.60637 24.11113,-10.06286 33.77874,-16.45511 5.76181,-3.80973 15.41629,-9.00881 22.18982,-11.94954 13.76738,-5.97711 11.07179,-5.7016 50.69778,-5.18177 12.41805,0.1629 28.4493,-0.15402 35.625,-0.70428 50.11437,-3.84292 90.61894,-4.9886 133.04673,-3.76326 17.01562,0.49141 34.52344,1.29205 38.90625,1.77919 25.36707,2.81949 33.11398,2.38457 58.05441,-3.25923 17.18182,-3.88811 28.37603,-4.26259 44.60184,-1.4921 7.83891,1.33847 14.3602,1.7219 27.1875,1.59852 16.39143,-0.15765 17.13554,-0.25043 25.9668,-3.23782 5.00048,-1.69154 10.11758,-3.8824 11.37131,-4.86858 3.44089,-2.70661 5.57547,-8.0963 10.87859,-27.46792 2.65965,-9.71537 6.50441,-21.85276 8.54389,-26.97196 3.96589,-9.95455 4.34808,-12.52343 2.58758,-17.392 -1.41782,-3.92093 -6.22788,-5.59847 -17.85359,-6.22657 -11.13894,-0.6018 -15.38101,-2.79577 -23.01148,-11.9014 -13.42391,-16.01907 -15.11575,-20.89202 -19.58098,-56.3986 -0.30207,-2.40205 -0.26497,-5.88252 0.0824,-7.73438 0.55628,-2.96511 0.96342,-3.36702 3.41088,-3.36702 1.69802,0 3.41386,0.77566 4.41064,1.99387 3.26503,3.99035 12.74952,9.21334 22.83044,12.57245 11.32022,3.77206 15.63481,6.55141 24.73851,15.93593 3.09375,3.18918 7.3125,6.64184 9.375,7.67256 4.18857,2.09322 11.35794,3.47995 12.06624,2.33389 0.86957,-1.407 -3.66646,-12.85455 -7.08573,-17.88217 -3.69864,-5.4384 -25.10882,-26.13261 -38.73051,-37.43533 -4.64062,-3.8506 -14.0628,-11.0197 -20.93816,-15.93133 -6.87536,-4.91163 -16.45495,-12.55519 -21.28796,-16.98568 -4.833,-4.43049 -14.5086,-13.27875 -21.50131,-19.66279 -12.2761,-11.20752 -23.09372,-23.13992 -26.67841,-29.42763 -2.30299,-4.03956 -8.1107,-21.96069 -9.88761,-30.51069 -1.46389,-7.04384 -1.73708,-16.64717 -0.59165,-20.79808 0.73165,-2.65139 4.78437,-3.72559 6.36858,-1.68803 0.9732,1.2517 3.29888,10.35694 4.98086,19.50053 0.52168,2.83594 3.2905,9.88245 6.15293,15.65892 4.08581,8.24528 6.1505,11.29224 9.60607,14.17618 9.79889,8.1779 15.18291,10.62174 15.18291,6.8916 0,-0.94093 -1.0473,-4.78997 -2.32732,-8.55341 -3.29915,-9.69989 -6.10832,-25.47756 -6.10116,-34.26704 0.008,-9.58559 2.36756,-27.91744 4.23915,-32.93207 0.79431,-2.12825 2.28593,-4.6313 3.31471,-5.56233 1.67156,-1.51275 2.02166,-1.5416 3.29197,-0.27128 1.17609,1.17607 1.47031,5.37333 1.70432,24.31233 0.28449,23.0247 1.15983,29.9221 3.79739,29.9221 0.797,0 1.28486,-1.13243 1.31261,-3.04688 0.0243,-1.67578 0.48836,-4.52065 1.03125,-6.32193 0.54289,-1.80129 0.98708,-4.79886 0.98708,-6.66128 0,-4.05799 6.86318,-20.18659 11.67431,-27.43487 1.865,-2.80975 6.54158,-8.10145 10.39238,-11.75933 6.75987,-6.42123 7.16311,-6.65071 11.68613,-6.65071 l 4.68468,0 0,3.22022 c 0,4.65522 -1.03506,6.79909 -7.29833,15.11679 -11.29545,15.00049 -17.26809,28.43756 -18.51878,41.66299 -1.7795,18.8174 -0.34171,20.01543 18.99385,15.82655 11.38363,-2.46616 22.21666,-7.87082 29.05833,-14.49735 4.16756,-4.0365 5.88789,-5.02151 10.46755,-5.99338 9.78685,-2.07691 11.50618,0.76688 6.08968,10.07239 -5.31037,9.12316 -25.95161,20.98919 -44.5733,25.62387 -9.7878,2.43604 -12.05811,3.64175 -15.8338,8.40896 -2.5294,3.19362 -3.05686,4.65733 -3.00886,8.34962 0.032,2.46242 0.88211,6.32235 1.88912,8.57762 2.6351,5.90155 15.71299,17.92866 27.20471,25.01886 11.79746,7.27886 28.88451,19.41715 36.00268,25.57559 2.92414,2.52987 5.75813,4.59977 6.29776,4.59977 1.34415,0 7.81935,-8.81218 10.68322,-14.5389 6.36115,-12.72009 8.13793,-19.2122 8.9335,-32.6417 0.82458,-13.91923 1.51835,-15.79759 5.12236,-13.86879 3.93263,2.10469 4.29487,3.83917 4.55249,21.7981 l 0.24702,17.22004 -4.03744,8.90625 c -2.2206,4.89844 -4.99921,10.59375 -6.17469,12.65625 -2.59082,4.54583 -3.88123,14.47714 -2.27182,17.48437 1.92286,3.5929 13.29096,17.66728 14.36357,17.78296 0.56647,0.0611 1.54387,0.0457 2.17201,-0.0342 0.62815,-0.08 2.82618,0.71384 4.88453,1.76392 2.87462,1.46653 5.54603,1.90926 11.52035,1.90926 4.27786,0 9.12688,0.38688 10.77562,0.85972 2.09202,0.59999 4.57745,0.4472 8.22661,-0.50573 2.87591,-0.75101 5.58964,-1.14252 6.03051,-0.87005 2.05171,1.26803 5.66792,-8.62923 5.69042,-15.57417 0.0123,-3.77529 -10.09833,-25.9959 -14.41013,-31.67004 -2.41632,-3.1798 -2.45374,-3.4642 -2.45374,-18.64896 0,-12.81773 0.32407,-16.50808 1.92038,-21.86816 3.68508,-12.37385 11.7456,-17.19424 14.89597,-8.90817 1.43604,3.77709 1.24629,6.92674 -0.97909,16.25212 -2.81715,11.80513 -2.15694,17.83483 3.30728,30.20555 5.03426,11.39732 6.92587,14.62862 10.6482,18.18948 l 2.73659,2.61787 2.31522,-3.08662 c 1.27338,-1.69765 3.96894,-5.60219 5.99017,-8.67675 3.45316,-5.25278 6.2021,-8.436 24.85933,-28.7867 6.48727,-7.07612 7.57049,-8.75927 8.37825,-13.01859 1.14892,-6.05826 1.20166,-20.85141 0.09,-25.26084 -0.45496,-1.80469 -1.74076,-10.66406 -2.85733,-19.6875 -1.11658,-9.02344 -2.6151,-19.14844 -3.33005,-22.5 -0.71496,-3.35156 -1.54611,-7.57031 -1.84701,-9.375 -0.3009,-1.80469 -2.27299,-7.69729 -4.38243,-13.09468 -2.13946,-5.47423 -4.04876,-12.1671 -4.31801,-15.13645 -0.43119,-4.75526 -0.26702,-5.43845 1.53914,-6.40508 3.09857,-1.6583 6.4761,2.45655 11.50063,14.01121 8.78788,20.20909 11.67434,30.51986 16.19681,57.85686 4.90188,29.63049 5.04047,30.26814 6.57812,30.26814 3.1707,0 18.4076,-14.44862 21.45843,-20.34828 2.14083,-4.1399 1.98374,-13.30769 -0.445,-25.97158 -1.75703,-9.16146 -1.93161,-12.51852 -1.46707,-28.21139 0.50681,-17.12031 1.71098,-25.60122 4.50602,-31.73567 1.36552,-2.99698 2.76118,-3.1358 5.13822,-0.51107 1.62216,1.79119 1.84078,4.17687 2.38401,26.01563 0.59906,24.08329 1.54751,31.79831 4.89363,39.8067 0.79413,1.90061 1.83818,3.45566 2.32011,3.45566 0.48195,0 2.37946,-1.66386 4.21669,-3.69747 4.52573,-5.00943 9.97232,-21.73769 10.548,-32.39628 0.22279,-4.125 0.84492,-11.33977 1.38251,-16.03284 0.53758,-4.69306 0.85181,-8.91181 0.69827,-9.375 -0.15352,-0.46318 0.65515,-2.42419 1.79705,-4.35778 2.6453,-4.47932 6.793,-4.93223 9.35537,-1.02156 2.18961,3.34178 3.38664,29.53013 1.64291,35.94343 -0.63088,2.32031 -2.77674,10.92393 -4.76858,19.11914 -3.09919,12.75128 -4.24496,15.90989 -7.94382,21.89945 -6.76904,10.96106 -23.87541,30.83032 -30.1228,34.988 -2.96042,1.97019 -9.92135,7.52774 -15.46875,12.35012 -5.54739,4.82239 -13.46117,11.22178 -17.58617,14.22088 -9.60093,6.98039 -24.41781,21.47967 -26.9054,26.32866 -1.05808,2.0625 -3.41644,5.79904 -5.24078,8.30341 -4.00259,5.49457 -17.18406,28.92884 -16.6004,29.5125 0.22786,0.22787 1.89016,-0.71139 3.694,-2.08724 4.65747,-3.55242 14.52996,-7.79412 20.86747,-8.96568 3.62008,-0.66921 7.9064,-2.53138 12.95962,-5.63025 14.25456,-8.74157 22.07994,-11.3084 24.73228,-8.11251 1.66499,2.00618 0.2439,8.97017 -2.69969,13.22977 -3.36958,4.87603 -6.63403,11.497 -9.77933,19.83444 -3.15381,8.36007 -6.84912,13.99477 -14.5007,22.11109 -4.609,4.88894 -6.57174,6.33572 -8.5952,6.33572 -4.34378,0 -5.64005,0.87294 -5.012,3.37523 0.43488,1.73274 -0.0992,2.82312 -2.35043,4.79852 -3.46602,3.04138 -3.75671,6.19671 -1.03819,11.26889 2.89142,5.39476 2.24062,9.21477 -1.06087,6.22695 -2.43761,-2.20601 -4.214,-1.04802 -4.89147,3.18865 -0.32597,2.03852 -1.9114,6.52443 -3.52316,9.96869 -2.52375,5.39313 -2.94784,7.39554 -3.05561,14.42735 -0.11819,7.71159 0.0441,8.42961 2.92174,12.9281 2.88791,4.51452 3.04621,5.2234 3.03408,13.5872 -0.008,4.8533 -0.2764,9.80858 -0.59855,11.01175 -0.92447,3.45263 -15.57089,12.46301 -21.41991,13.1774 -4.5527,0.55606 -4.69548,0.66688 -4.96499,3.85377 -0.15262,1.80469 -0.8909,6.59738 -1.64062,10.65044 C 720.61341,893.141 720,900.99941 720,906.55109 c 0,13.0835 -4.55197,31.8716 -10.79172,44.54266 -7.49888,15.22791 -16.15632,29.89566 -21.24149,35.988 -2.74892,3.29344 -6.26367,7.74009 -7.81054,9.88153 -1.54688,2.14134 -5.81273,7.46242 -9.47967,11.82452 C 664.443,1016.2029 645,1043.3994 645,1044.7036 c 0,1.073 -8.10389,13.2405 -9.69187,14.5518 -0.85696,0.7077 -1.55813,1.8355 -1.55813,2.5062 0,2.6448 -5.30963,7.1905 -20.80264,17.8097 -14.54932,9.9724 -17.1238,11.3816 -25.7253,14.0819 -13.86344,4.3522 -13.64599,4.1224 -14.11543,14.9216 -0.62769,14.4397 4.79598,76.7683 8.16588,93.8421 1.73001,8.7651 2.79705,17.1352 2.80856,22.0312 0.0267,11.355 1.18256,17.9934 7.62491,43.7925 4.11472,16.4779 7.28825,26.8028 11.20669,36.4602 3.00654,7.4099 6.78162,18.8407 8.38908,25.4016 3.74607,15.2897 4.68865,17.1698 10.56368,21.0706 5.96477,3.9604 20.32207,17.3379 20.32207,18.9353 0,0.64 -0.85014,1.933 -1.88921,2.8733 -1.03907,0.9404 -2.14767,3.3261 -2.46357,5.3016 l -0.57436,3.5918 -6.20831,0.01 c -3.41456,0.01 -7.68486,0.194 -9.48955,0.4184 -1.80469,0.2245 -6.65625,-0.326 -10.78125,-1.2232 z"
     id="path4160" />
  <path
     style="fill:#000000"
     d="m 1434.5625,1303.875 c -0.6187,-0.6187 -1.125,-2.0953 -1.125,-3.2812 0,-1.7811 -0.5001,-2.1563 -2.8741,-2.1563 -1.5808,0 -3.7355,-0.461 -4.7882,-1.0243 -1.3842,-0.7408 -2.1976,-0.7408 -2.9384,0 -1.9949,1.9949 -2.5243,0.956 -2.5243,-4.9547 0,-4.2072 0.4224,-6.3295 1.4257,-7.1621 0.7842,-0.6508 1.8857,-3.0101 2.448,-5.2427 0.5622,-2.2328 1.5678,-4.5124 2.2349,-5.066 1.9219,-1.5951 13.6678,-4.6752 17.8287,-4.6752 l 3.787,0 2.0586,-6.3281 c 2.3368,-7.1837 3.4438,-22.1847 3.0961,-41.9532 l -0.2144,-12.1875 -4.3667,-8.2031 c -2.4017,-4.5117 -4.6429,-8.2031 -4.9805,-8.2031 -0.3376,0 -1.2479,1.582 -2.0228,3.5156 -3.302,8.239 -17.8683,38.3403 -20.258,41.8631 -1.4327,2.112 -3.8078,6.0775 -5.2783,8.8122 -3.605,6.7045 -9.2472,11.7813 -12.2547,11.0265 -1.2395,-0.3111 -2.2573,-0.2412 -2.2618,0.1553 0,0.3966 -2.4303,2.2741 -5.3906,4.1723 -7.3842,4.7347 -18.4175,7.0231 -26.1968,5.4332 -2.9896,-0.6108 -6.1661,-1.7579 -7.0586,-2.5488 -1.2959,-1.1482 -1.902,-1.2068 -3.0059,-0.2906 -1.7101,1.4192 -3.3399,0.5261 -3.3399,-1.8302 0,-1.4445 -0.8155,-1.8207 -4.4531,-2.0541 l -4.4531,-0.2858 -0.2893,-4.0042 c -0.3129,-4.3311 0.537,-5.8408 7.9335,-14.0932 3.7568,-4.1914 4.1208,-4.364 10.3125,-4.888 3.53,-0.2987 8.3167,-0.2403 10.637,0.1299 3.7994,0.6061 4.7077,0.3537 9.1373,-2.5399 2.7052,-1.7671 5.3654,-3.9479 5.9118,-4.8462 0.5464,-0.8983 2.6033,-6.274 4.5708,-11.9458 1.9676,-5.6719 4.72,-13.2657 6.1164,-16.875 5.7037,-14.7431 7.37,-30.3003 3.825,-35.7106 -0.7899,-1.2058 -1.4363,-3.4856 -1.4363,-5.0664 0,-4.1627 -7.2052,-15.94 -9.7567,-15.9477 -1.1947,0 -2.5866,-1.1035 -3.5591,-2.8125 -0.8783,-1.5436 -2.2535,-2.8066 -3.0559,-2.8066 -0.8118,0 -2.4188,-1.9752 -3.6228,-4.4531 -1.3566,-2.7916 -2.6649,-4.323 -3.5066,-4.1045 -0.7384,0.1918 -1.9755,0.5079 -2.7489,0.7024 -1.3962,0.3511 -5.6165,-7.1768 -5.6322,-10.0465 0,-0.7244 -1.7444,-2.3093 -3.8676,-3.5221 -2.2695,-1.2963 -4.2826,-3.3238 -4.8851,-4.92 -0.7238,-1.9175 -1.4888,-2.5678 -2.6043,-2.2137 -1.1944,0.3791 -1.9755,-0.5358 -3.2037,-3.7518 -0.8934,-2.3393 -2.1689,-4.2532 -2.8345,-4.2532 -0.6656,0 -2.3096,-2.2148 -3.6532,-4.9219 -1.3437,-2.707 -3.3327,-6.6094 -4.4199,-8.6719 -1.0872,-2.0625 -2.4446,-4.7708 -3.0162,-6.0185 -1.6838,-3.6746 -3.3833,-3.5162 -3.3833,0.3155 0,1.8476 -0.4219,3.3593 -0.9375,3.3593 -0.5156,0 -0.9375,-1.2656 -0.9375,-2.8125 0,-1.5469 -0.4219,-2.8125 -0.9375,-2.8125 -0.5156,0 -0.9375,1.2922 -0.9375,2.8715 0,2.4396 -0.3172,2.8273 -2.1094,2.5781 -1.5848,-0.2204 -2.1839,0.2312 -2.409,1.816 -0.3365,2.3699 -2.0748,2.6547 -6.5917,1.0802 -2.6367,-0.9192 -2.9524,-1.4235 -2.9524,-4.7169 0,-4.4058 -1.7536,-5.4759 -5.2352,-3.1947 -2.2797,1.4938 -2.3895,1.9367 -2.0588,8.3062 0.1921,3.7006 0.6913,7.4666 1.1094,8.369 0.5547,1.1973 0.3531,1.6406 -0.7463,1.6406 -0.8287,0 -1.5066,-0.6982 -1.5066,-1.5516 0,-1.4437 -0.1192,-1.4437 -1.7144,0 -0.9429,0.8534 -2.2464,1.5516 -2.8966,1.5516 -1.4121,0 -4.6886,3.7321 -4.7328,5.3906 -0.042,1.5887 -1.9062,1.5016 -1.9062,-0.089 0,-2.0986 -3.0538,-4.1227 -7.2607,-4.8123 -2.1887,-0.3589 -4.2175,-1.0376 -4.5085,-1.5084 -1.3688,-2.2149 -2.2933,-0.368 -2.2933,4.5816 0,2.9906 -0.5062,5.9437 -1.125,6.5625 -0.875,0.875 -0.8303,1.125 0.2009,1.125 1.0738,0 1.0425,0.2834 -0.1647,1.4906 -1.3625,1.3625 -1.7497,1.3566 -4.5044,-0.068 -2.9479,-1.5244 -3.0003,-1.516 -2.3971,0.3844 0.3609,1.1372 0.2016,1.9429 -0.384,1.9429 -0.5504,0 -1.0007,-0.5063 -1.0007,-1.125 0,-2.2223 -1.7317,0.6648 -2.0373,3.3964 -0.3681,3.2919 -2.5663,4.3456 -3.2902,1.5774 -0.6245,-2.3881 -2.1602,-2.6202 -2.2037,-0.3332 -0.026,1.3763 -0.3282,1.2841 -1.875,-0.5726 -1.0141,-1.2173 -1.8438,-2.7745 -1.8438,-3.4603 0,-0.6859 -0.4692,-1.5371 -1.0428,-1.8915 -0.73,-0.4513 -0.912,0.6659 -0.6067,3.7246 0.4394,4.4029 -0.3867,6.285 -1.7952,4.0901 -0.5002,-0.7794 -0.9251,-0.085 -1.2367,2.0195 -0.5973,4.0335 -2.3795,4.7338 -3.2765,1.2873 l -0.6815,-2.619 -0.8459,2.2164 c -0.688,1.8024 -1.0992,2.0062 -2.2018,1.0912 -0.7456,-0.6189 -1.7519,-0.8804 -2.2361,-0.5811 -0.4842,0.2992 -1.1223,-0.086 -1.4179,-0.8568 -0.2956,-0.7705 -1.1485,-1.4009 -1.8951,-1.4009 -0.7466,0 -1.5703,-0.5274 -1.8304,-1.1719 -0.2601,-0.6445 -0.5061,-0.1977 -0.5469,0.9928 -0.041,1.2049 -0.4937,1.9053 -1.0206,1.5797 -0.5206,-0.3218 -2.0422,0.2769 -3.3814,1.3303 -1.826,1.4364 -2.8633,1.686 -4.148,0.9985 -0.9423,-0.5043 -1.8872,-0.9169 -2.0998,-0.9169 -0.2127,0 -0.7046,10.0195 -1.0931,22.2656 -0.3886,12.2461 -1.1224,29.6484 -1.6308,38.6719 -0.5084,9.0234 -0.8541,21.5035 -0.7683,27.7335 0.1545,11.2172 0.1325,11.3426 -2.263,12.9123 -1.9961,1.3079 -2.419,2.3089 -2.419,5.7267 0,2.278 -0.4219,4.4026 -0.9375,4.7212 -0.5156,0.3187 -0.9375,2.2662 -0.9375,4.3279 0,2.0617 -0.4759,6.63 -1.0575,10.152 -0.9877,5.9808 -1.2866,6.5323 -4.5281,8.3541 -8.2714,4.6487 -21.9512,6.0938 -32.2627,3.408 -2.9864,-0.7779 -5.8298,-1.167 -6.3186,-0.8649 -0.4889,0.3022 -2.3676,-0.7489 -4.1749,-2.3358 -1.8072,-1.5868 -3.6931,-2.885 -4.1908,-2.885 -1.682,0 -0.9094,-6.0709 1.2093,-9.5032 4.7189,-7.6445 11.6451,-10.394 17.1303,-6.7999 3.0682,2.0102 4.9282,1.1257 6.5954,-3.1368 0.7592,-1.9409 2.0616,-4.8801 2.8941,-6.5317 2.0453,-4.057 1.0271,-18.575 -2.2119,-31.543 -2.2963,-9.1936 -2.8217,-12.753 -4.8645,-32.9542 -0.5215,-5.1562 -1.3889,-10.8487 -1.9278,-12.65 -0.5389,-1.8013 -0.9798,-5.2143 -0.9798,-7.5844 0,-2.3702 -0.8744,-7.6464 -1.9432,-11.7249 -1.0687,-4.0786 -2.3205,-9.525 -2.7818,-12.1032 -1.9909,-11.1266 -1.7243,-10.5973 -5.6731,-11.2644 -5.4096,-0.914 -8.8765,2.1552 -9.5475,8.4519 -0.2747,2.5782 -1.1948,7.6407 -2.0447,11.25 -0.8499,3.6094 -2.1293,9.1772 -2.8432,12.3729 -0.7139,3.1956 -1.7466,6.6484 -2.2947,7.6728 -0.5483,1.0243 -0.9968,3.0713 -0.9968,4.549 0,1.4776 -0.4181,3.1047 -0.9292,3.6158 -0.5112,0.5112 -1.3041,2.8104 -1.7622,5.1094 -1.4313,7.184 -3.1162,13.4808 -4.1233,15.4094 -1.5184,2.9083 -7.2478,21.2385 -7.2478,23.1881 0,0.9638 -0.8557,2.9097 -1.9016,4.3244 -1.046,1.4147 -2.0368,4.078 -2.202,5.9185 -0.1651,1.8404 -1.6297,6.0066 -3.2546,9.2584 -1.6248,3.2516 -2.9543,6.815 -2.9543,7.9185 0,1.1037 -0.3766,2.4074 -0.8368,2.8972 -2.4037,2.5581 -6.0224,13.7032 -6.6203,20.3887 -0.7697,8.6102 -2.5033,11.008 -8.5597,11.8395 -4.1426,0.5687 -4.8471,1.3281 -15.5684,16.7829 -2.016,2.9061 -4.958,5.7569 -7.0339,6.8159 -1.9626,1.0013 -3.5684,2.4138 -3.5684,3.139 0,0.7252 -1.3711,2.0533 -3.0469,2.9513 -2.7883,1.4942 -6.2476,1.9108 -20.3906,2.456 -6.7263,0.2593 -17.2037,-1.2622 -18.9105,-2.7461 -0.8617,-0.7491 -2.7601,-1.2822 -4.2187,-1.1844 -5.9876,0.4013 -6.269,-0.5201 -2.5838,-8.4584 3.0849,-6.645 6.2346,-9.8949 12.4481,-12.8444 4.5334,-2.152 5.7116,-2.3206 12.2344,-1.7517 8.3272,0.7265 10.5107,-0.331 13.7286,-6.6486 1.0082,-1.9795 3.2338,-5.215 4.9457,-7.19 3.0055,-3.4676 6.7312,-10.7828 6.7312,-13.2165 0,-0.6508 0.8438,-1.9468 1.875,-2.8801 1.0313,-0.9333 1.875,-2.4752 1.875,-3.4265 0,-0.9513 0.3638,-1.7297 0.8086,-1.7297 0.4447,0 1.1021,-3.6914 1.461,-8.2032 0.3589,-4.5117 1.4705,-13.2731 2.4703,-19.4697 0.9999,-6.1966 1.7363,-14.6341 1.6366,-18.75 -0.2791,-11.5214 1.075,-30.3304 2.6082,-36.2314 2.1259,-8.1816 2.0749,-44.9278 -0.069,-49.9303 -1.1182,-2.609 -1.485,-5.594 -1.2615,-10.2696 0.2955,-6.1871 0.1753,-6.662 -1.9612,-7.7413 -1.2518,-0.6325 -2.819,-2.1282 -3.4824,-3.3241 -1.0587,-1.908 -1.2104,-1.17 -1.2396,6.0289 -0.018,4.5118 -0.4023,8.2032 -0.8535,8.2032 -1.1859,0 -2.0389,-5.1573 -1.3898,-8.403 0.65,-3.2497 -0.2359,-7.5345 -1.5578,-7.5345 -0.5058,0 -0.9196,2.2953 -0.9196,5.1009 0,2.8055 -0.4219,5.3617 -0.9375,5.6803 -1.0318,0.6377 -1.2846,-1.4763 -0.9756,-8.1585 0.3239,-7.0037 -1.299,-7.729 -1.8369,-0.8209 -0.2821,3.6227 -0.9354,6.174 -1.6406,6.4062 -0.7218,0.2375 -1.1719,-0.4891 -1.1719,-1.8921 0,-1.2529 -0.6831,-3.6471 -1.5179,-5.3205 -1.3132,-2.6324 -1.3763,-4.1455 -0.4687,-11.2232 0.577,-4.4992 1.0491,-9.9449 1.0491,-12.1013 0,-4.0753 -1.2936,-5.3081 -2.1466,-2.0459 -0.5346,2.0445 -2.538,2.5978 -2.5455,0.7031 0,-0.6445 0.7102,-3.1662 1.5837,-5.6037 1.7169,-4.7901 1.6652,-5.0707 -1.0227,-5.5571 -1.511,-0.2735 -2.0555,0.7555 -3.5214,6.6542 -0.9536,3.8378 -1.4921,7.7401 -1.1963,8.6719 0.6877,2.1667 -0.39,5.6389 -1.5312,4.9336 -0.4785,-0.2957 -0.87,-2.2003 -0.87,-4.2323 0,-2.6592 -0.3941,-3.6947 -1.4062,-3.6947 -1.0686,0 -1.4063,-1.1632 -1.4063,-4.8438 0,-2.664 -0.3111,-4.5327 -0.6911,-4.1526 -0.3802,0.3802 -0.6966,1.3634 -0.7031,2.185 -0.01,0.8215 -0.5394,1.6707 -1.1839,1.8869 -0.6883,0.231 -1.1719,-0.4127 -1.1719,-1.5599 0,-1.2405 -0.603,-1.9531 -1.6527,-1.9531 -0.909,0 -2.0692,-0.9492 -2.5781,-2.1094 -0.6765,-1.5419 -1.8577,-2.1868 -4.391,-2.3974 -2.5352,-0.2106 -4.1935,-1.117 -6.1769,-3.376 -3.2219,-3.6695 -6.9617,-4.9193 -8.6463,-2.8894 -1.2272,1.4786 -3.7425,1.9135 -3.7425,0.6472 0,-0.4125 0.376,-1.1508 0.8356,-1.6407 1.0454,-1.1143 1.8843,-12.6093 0.9202,-12.6093 -0.3892,0 -0.979,0.439 -1.3106,0.9756 -0.3317,0.5366 -1.4116,0.719 -2.3997,0.4054 -1.0827,-0.3437 -2.8786,0.2001 -4.519,1.3681 -1.4972,1.0661 -3.1844,1.9384 -3.7494,1.9384 -1.4006,0 -1.3034,-1.6267 0.1257,-2.103 0.6803,-0.2268 0.104,-1.0714 -1.4063,-2.0609 -1.5014,-0.9838 -2.559,-2.5278 -2.559,-3.7359 0,-1.1326 -0.8639,-2.9865 -1.9199,-4.1199 -1.546,-1.6596 -2.2813,-1.8673 -3.7762,-1.0673 -1.0211,0.5465 -1.6088,1.3943 -1.3061,1.884 0.3027,0.4898 0.1388,0.8905 -0.3643,0.8905 -0.5031,0 -1.1097,-0.5274 -1.3479,-1.1719 -0.9819,-2.6558 -18.9424,17.7608 -20.8134,23.6596 -1.5366,4.8445 -5.56657,9.4349 -12.51213,14.2521 l -7.17881,4.9789 -8.11407,-0.2329 -8.11415,-0.2331 0.50109,5.5263 c 0.38128,4.2046 0.13575,6.0478 -1.02647,7.7072 -0.84018,1.1995 -1.52765,2.8573 -1.52765,3.684 0,2.3168 -4.04457,5.5798 -6.91622,5.5798 -1.95525,0 -2.50819,-0.4041 -2.29275,-1.6756 0.15609,-0.9215 -0.63656,-2.8456 -1.76147,-4.2757 -4.45969,-5.6696 -4.98872,-19.0385 -1.15285,-29.1307 0.99544,-2.619 1.81004,-5.5001 1.81032,-6.4024 2.8e-4,-0.9023 0.55265,-1.6406 1.22756,-1.6406 1.70944,0 4.99594,-2.527 4.25287,-3.27 -0.3359,-0.3359 -2.44462,0.3583 -4.68599,1.5427 -3.58538,1.8947 -5.69879,2.1952 -17.58235,2.5002 -12.13034,0.3113 -13.94599,0.1475 -17.8125,-1.6073 -2.36795,-1.0747 -6.41475,-2.7084 -8.99287,-3.6306 -3.92721,-1.4046 -4.73635,-2.0985 -4.98867,-4.2776 -0.20971,-1.8111 0.44455,-3.3696 2.15457,-5.1323 4.48953,-4.6278 8.65267,-9.9925 10.33097,-13.3126 0.91224,-1.8047 4.4502,-7.1548 7.86212,-11.8891 3.41193,-4.73439 7.36233,-10.42971 8.77867,-12.65627 1.41635,-2.22665 3.94759,-5.87962 5.62496,-8.11781 2.98313,-3.98025 3.05353,-4.29834 3.21694,-14.53125 0.19228,-12.04134 1.72256,-19.17216 4.82231,-22.47169 1.19569,-1.27275 2.99588,-4.95478 4.00031,-8.18229 1.00454,-3.2275 2.84044,-7.80929 4.07982,-10.18177 1.23937,-2.37247 2.52187,-5.92559 2.85,-7.89579 0.32822,-1.97021 0.80803,-4.13301 1.0664,-4.80622 0.27938,-0.72797 -0.44343,-1.45317 -1.7835,-1.78951 -3.6765,-0.92274 -18.58734,-12.02744 -21.45487,-15.97836 -1.4596,-2.01096 -2.65378,-4.85861 -2.65378,-6.32813 0,-1.46951 0.10893,-2.67183 0.24208,-2.67183 0.31971,0 14.76054,5.20688 16.86729,6.08177 2.95735,1.22816 1.83216,-1.92482 -2.65115,-7.42848 -4.57744,-5.6193 -6.02072,-9.1717 -6.02072,-14.81898 0,-3.39993 0.11353,-3.52182 3.28125,-3.52182 2.29162,0 3.28125,0.42411 3.28125,1.40625 0,0.82451 0.87262,1.41859 2.10937,1.43607 1.16016,0.0164 2.92828,0.64922 3.92916,1.40625 1.00097,0.75704 2.70956,1.37643 3.79687,1.37643 1.08741,0 2.37788,0.38467 2.86772,0.85481 1.48238,1.42279 18.79444,7.58269 21.31069,7.58269 1.29141,0 2.55178,-0.52734 2.80069,-1.17187 0.32718,-0.84721 3.56784,-1.17188 11.6969,-1.17188 8.08059,0 11.12869,-0.30303 10.83379,-1.07704 -0.939,-2.46379 1.7145,-2.03965 4.9362,0.78901 l 3.4561,3.03448 -0.6477,-2.94865 c -0.5345,-2.43375 -0.2961,-3.13681 1.3655,-4.02608 1.6316,-0.87316 2.3539,-0.76911 3.8102,0.54886 1.7281,1.56396 1.797,1.53089 1.797,-0.86277 0,-3.05875 2.2929,-3.3366 3.8303,-0.46415 0.9907,1.85134 1.1611,1.88662 1.9865,0.41153 1.0255,-1.83238 3.1835,-1.57689 12.3493,1.46205 4.1128,1.36361 6.1587,1.60066 8.0683,0.9349 3.5922,-1.2522 5.0682,0.0368 5.124,4.47484 0.053,4.17807 0.8471,4.82781 2.3865,1.95148 0.549,-1.02592 2.2137,-2.49384 3.6992,-3.26204 2.5189,-1.30258 2.9896,-1.23543 6.9823,0.99616 2.3549,1.3161 4.7768,2.08675 5.3822,1.71257 0.6065,-0.37484 1.613,0.0201 2.2415,0.87952 1.0125,1.38476 1.2726,1.40084 2.3163,0.14323 1.4202,-1.71122 4.6904,-1.88115 4.7105,-0.24477 0.036,2.92237 1.3669,3.46546 5.1722,2.11018 5.143,-1.83169 5.7766,-1.73964 6.4483,0.93669 0.6827,2.72002 2.0569,2.96982 4.4456,0.80812 2.2946,-2.0766 4.5342,-0.2353 4.573,3.7598 0.025,2.56597 0.1557,2.71319 1.047,1.17898 0.8007,-1.37807 1.1834,-1.48632 1.7893,-0.50603 0.6167,0.99783 1.1576,0.8969 2.7068,-0.50502 1.6233,-1.46908 2.3225,-1.57598 4.3289,-0.66185 1.3159,0.59962 2.1351,1.50697 1.8204,2.01631 -0.3148,0.50936 -0.2256,1.54559 0.198,2.30277 0.6289,1.12367 1.5239,0.78045 4.8702,-1.86758 4.7877,-3.7886 9.0329,-4.45145 8.0174,-1.25184 -0.4552,1.43419 -0.3122,1.79453 0.5104,1.28614 0.6285,-0.38845 1.4638,-0.18678 1.8562,0.44814 0.5358,0.86697 1.1946,0.89688 2.6461,0.12011 2.8214,-1.50998 3.5059,-1.30627 4.7444,1.41185 0.8077,1.7728 1.6231,2.31316 2.962,1.96301 2.1998,-0.57527 3.4295,0.94826 1.9553,2.42253 -0.5738,0.57345 -1.0433,1.46481 -1.0433,1.98044 0,0.52084 0.5,0.4375 1.125,-0.1875 1.4697,-1.46967 3.5544,-1.44247 3.5921,0.0469 0.016,0.64454 1.0332,2.31165 2.2599,3.70469 1.9198,2.18039 2.731,2.45663 5.8297,1.98534 1.9797,-0.3011 4.5042,-1.36712 5.61,-2.36893 1.3405,-1.21441 2.2223,-1.47881 2.6459,-0.79332 0.4171,0.67487 1.1759,0.39842 2.2083,-0.80458 3.4906,-4.06739 28.2916,-9.81662 28.2916,-6.55841 0,0.55193 0.7891,0.49451 1.9826,-0.14428 1.1303,-0.60486 3.2465,-0.78787 4.9219,-0.42566 1.6166,0.34949 4.591,0.70667 6.6098,0.79373 2.1365,0.0922 3.8482,0.6892 4.0953,1.42856 0.3072,0.91869 -0.1249,1.0958 -1.5612,0.63994 -1.1762,-0.37331 -1.9859,-0.2223 -1.9859,0.37037 0,0.55038 1.0756,1.00068 2.3903,1.00068 3.0878,0 7.6087,2.34995 8.7987,4.57355 0.656,1.22579 1.6361,1.60705 3.3091,1.28725 1.9213,-0.36728 2.3769,-0.0847 2.3769,1.47458 0,2.36259 1.0586,3.12359 2.8258,2.03139 0.7907,-0.48865 1.7911,-0.43935 2.467,0.12155 1.7649,1.46474 25.6359,0.0172 49.551,-3.00458 15.4694,-1.9547 23.3642,-1.48598 36.2044,2.14941 2.623,0.74265 4.8547,0.59003 9.8438,-0.67318 6.3772,-1.61468 16.1862,-1.9148 34.5768,-1.05794 4.125,0.19219 8.5546,-0.069 9.8437,-0.58049 1.2891,-0.51146 7.4063,-1.05165 13.5938,-1.20043 6.1875,-0.14877 12.832,-0.57333 14.7656,-0.94347 2.7268,-0.52197 3.5156,-0.37452 3.5156,0.65718 0,1.08066 1.8743,1.2842 9.993,1.08514 8.3555,-0.20486 10.1767,0.007 11.1136,1.28743 0.7292,0.99719 3.3786,1.7998 7.5851,2.29788 4.8871,0.57868 6.7784,1.22807 7.7508,2.66134 0.7074,1.04274 2.1062,1.89589 3.1085,1.89589 1.0023,0 2.7438,0.49756 3.87,1.1057 1.1263,0.60812 3.4148,1.01706 5.0855,0.90873 1.6708,-0.10831 4.413,0.53509 6.0938,1.4298 2.712,1.44364 5.7625,1.59768 27.1001,1.36846 18.1707,-0.19519 24.2172,0.0217 24.7526,0.88798 0.4087,0.66126 0.054,1.62474 -0.838,2.27707 -1.2899,0.94319 -0.591,1.23066 4.213,1.73277 3.1677,0.3311 7.4011,0.60199 9.4075,0.60199 3.4201,0 3.6311,0.1611 3.3781,2.57812 -0.2663,2.5437 -0.1907,2.58188 5.6521,2.85886 4.0919,0.19397 5.8077,0.62861 5.5516,1.40625 -0.2037,0.61904 -1.2866,1.26033 -2.4063,1.4251 -2.345,0.34504 -2.7857,2.04417 -0.5303,2.04417 0.8281,0 3.043,1.21055 4.9219,2.69012 1.8788,1.47956 5.631,4.04704 8.338,5.70538 2.7071,1.65844 4.9219,3.42769 4.9219,3.93178 0,0.504 3.1892,4.26441 7.087,8.35631 3.898,4.09191 6.8163,7.878 6.4854,8.4135 -0.331,0.53541 0.9087,2.75063 2.7548,4.92263 4.8259,5.67769 5.7134,6.56719 8.4272,8.44594 2.7049,1.87256 3.1779,3.47184 1.0269,3.47184 -2.1911,0 -1.7854,0.705 4.1035,7.13175 3.1327,3.41887 5.754,7.23422 6.0759,8.84391 0.3115,1.557 1.6289,3.81581 2.9277,5.01946 1.2989,1.20375 2.3616,3.06915 2.3616,4.14545 0,1.2583 1.4759,2.9723 4.1344,4.8014 3.002,2.0654 4.0095,3.3222 3.6783,4.5887 -0.4468,1.7084 0.034,2.2087 8.0663,8.3955 1.5719,1.2108 2.5692,2.7068 2.2898,3.4348 -0.2967,0.7733 0.8918,2.232 2.9679,3.6427 1.9045,1.2942 3.9425,3.3152 4.5287,4.4911 0.5863,1.176 2.9615,3.5505 5.2784,5.2767 6.5004,4.8433 16.8935,13.5748 19.1009,16.0473 1.0926,1.2238 3.7795,4.0339 5.9709,6.2445 2.1914,2.2107 3.9844,4.8634 3.9844,5.8949 0,1.2098 3.1692,4.5864 8.9284,9.5124 4.9106,4.2002 8.7081,7.9932 8.439,8.4287 -0.2692,0.4354 0.9865,2.985 2.7904,5.6655 1.8038,2.6805 3.2815,5.3586 3.2836,5.9513 0,0.5927 1.0569,3.1531 2.3438,5.6897 1.2869,2.5366 2.3398,5.55 2.3398,6.6965 0,1.1465 0.6328,2.3274 1.4063,2.6242 1.4505,0.5566 1.995,3.411 0.6508,3.411 -0.4155,0 -3.417,-0.8988 -6.6701,-1.9973 -5.5908,-1.8882 -6.0899,-1.9138 -9.1201,-0.4688 -4.2244,2.0145 -8.3229,1.9016 -13.3224,-0.367 -2.2477,-1.0199 -5.4266,-1.8544 -7.0642,-1.8544 -1.6376,0 -6.1266,-1.0993 -9.9757,-2.4429 -3.8491,-1.3437 -8.6153,-2.3856 -10.5918,-2.3155 -2.0947,0.074 -4.8318,-0.6248 -6.5625,-1.6766 -1.6329,-0.9923 -4.7288,-2.0913 -6.8797,-2.4421 -3.6311,-0.5922 -12.176,-4.4795 -16.4919,-7.5024 -1.3409,-0.9392 -2.5096,-1.0516 -4.21,-0.4052 -3.2999,1.2546 -5.1201,0.4352 -8.5705,-3.8583 -1.6495,-2.0526 -3.559,-3.732 -4.2433,-3.732 -1.4689,0 -4.7279,-2.6808 -14.7283,-12.1157 -7.6308,-7.1992 -9.8413,-8.1834 -4.0954,-1.8233 3.1892,3.53 4.0877,5.5015 2.5072,5.5015 -0.4257,0 -1.7875,-1.0788 -3.0262,-2.3972 -1.3859,-1.4752 -2.9163,-2.2235 -3.9793,-1.9456 -2.3471,0.6138 -7.9363,-2.8243 -9.5072,-5.8481 -0.7043,-1.356 -2.5243,-4.0261 -4.0443,-5.9335 -2.1588,-2.7092 -3.0141,-3.2222 -3.9078,-2.3438 -1.1837,1.1633 -1.6438,0.7481 -5.9768,-5.3941 -0.9264,-1.3132 -2.4935,-2.3877 -3.4826,-2.3877 -2.0257,0 -3.2158,-1.8743 -5.5498,-8.7409 -1.7382,-5.1137 -3.7908,-6.8671 -3.8516,-3.2903 -0.033,1.9492 -0.4961,1.6888 -4.2506,-2.3915 -2.3173,-2.5184 -5.5977,-6.9481 -7.2897,-9.8437 -1.9814,-3.3911 -3.694,-5.2648 -4.8119,-5.2648 -2.6622,0 -2.6827,1.817 -0.055,4.9392 2.6378,3.1347 3.0969,6.8945 1.0496,8.5937 -0.7331,0.6084 -1.6246,2.8749 -1.981,5.0367 -0.3564,2.1617 -0.9983,4.3667 -1.4265,4.9 -0.9994,1.2448 -2.7432,11.9535 -2.7524,16.9023 -0.01,3.4248 -0.3147,3.9301 -3.054,5.0052 -2.2205,0.8715 -3.0848,1.8289 -3.1867,3.5295 -0.077,1.2834 -0.9723,3.2498 -1.99,4.3697 -1.0176,1.1199 -1.6592,2.5597 -1.4256,3.1997 0.2337,0.6399 -0.2418,1.8302 -1.0567,2.645 -0.8149,0.8149 -1.4816,2.0843 -1.4816,2.8209 0,1.7417 -1.3379,1.7098 -2.8125,-0.067 -1.1743,-1.4149 -3.75,-1.9486 -3.75,-0.7769 0,0.3461 0.7005,1.4034 1.5567,2.3495 2.2419,2.4772 0.7351,3.2966 -2.5231,1.372 -3.2942,-1.9459 -3.3726,-1.6928 -0.9023,2.9161 1.9743,3.6836 1.3566,4.7785 -1.7562,3.1125 -1.6218,-0.8679 -1.9327,-0.6329 -2.4841,1.8772 -0.4422,2.0135 -0.1845,3.3618 0.8644,4.5208 0.929,1.0265 1.4946,3.3472 1.4946,6.1324 0,4.3115 -0.088,4.4587 -2.3438,3.8927 -1.9722,-0.495 -2.3558,-0.251 -2.4199,1.5389 -0.297,8.2967 -1.4552,10.4097 -4.622,8.432 -2.7862,-1.74 -2.9144,-1.4676 -1.2579,2.6724 1.4147,3.5356 1.4142,3.9354 -0.01,5.3571 -1.4235,1.4235 -1.5364,1.315 -1.5364,-1.477 0,-3.5605 -1.4236,-4.0022 -2.2526,-0.6989 -0.8192,3.264 0.8732,9.9887 4.1455,16.471 1.537,3.0448 2.7946,6.0957 2.7946,6.7797 0,0.6841 2.78,5.4308 6.1776,10.5482 3.3978,5.1174 6.8178,10.5815 7.6001,12.1423 0.7822,1.561 2.8659,4.9686 4.6304,7.5727 3.9264,5.7946 5.3088,12.1347 5.1861,23.7849 -0.071,6.7885 -0.6306,10.389 -2.4164,15.5602 -1.2778,3.7005 -3.0065,11.7494 -3.8415,17.8866 -1.7749,13.0458 -3.8574,22.7277 -5.2493,24.4048 -0.5426,0.6537 -1.0986,3.6975 -1.2355,6.764 -0.1795,4.0183 -0.8132,6.2927 -2.2691,8.1434 -1.2902,1.6403 -2.0199,3.8995 -2.0199,6.2532 0,2.0269 -0.4195,4.4691 -0.9322,5.427 -1.5479,2.8922 -10.6775,11.2181 -12.3248,11.2397 -0.846,0.011 -3.3773,0.8547 -5.625,1.8747 -2.7477,1.2468 -6.1494,1.8612 -10.3819,1.875 -5.3234,0.018 -6.4501,0.31 -7.2986,1.8956 -1.1549,2.1579 -1.9807,2.3318 -3.5625,0.75 z"
     id="path4158" />
  <path
     style="fill:#000000"
     d="m 1161.7969,798.65463 c -2.373,-2.30511 -3.9844,-4.72823 -3.9844,-5.99148 0,-1.16659 -0.6129,-2.62976 -1.3621,-3.25149 -1.1262,-0.93466 -1.6545,-0.50805 -3.0505,2.46333 -1.0318,2.19614 -2.4409,3.70155 -3.6233,3.87094 -1.626,0.23294 -2.1115,-0.48823 -3.0417,-4.5179 -1.4603,-6.32672 -5.1793,-12.51795 -9.7029,-16.15324 -6.1018,-4.90353 -15.4836,-16.35791 -25.1448,-30.69979 -5.0365,-7.47656 -10.2726,-14.62487 -11.6357,-15.88512 l -2.4786,-2.29137 -7.2458,2.20412 c -3.9852,1.21228 -9.5662,2.6985 -12.4021,3.30271 -5.7546,1.22606 -7.1064,3.25619 -3.3178,4.98242 1.3092,0.5965 2.3803,1.49903 2.3803,2.00562 0,0.50659 0.8694,1.73105 1.932,2.72101 l 1.932,1.79995 -3.0094,1.04908 c -6.0928,2.12394 -17.0006,1.28263 -29.3736,-2.26557 -9.568,-2.74379 -11.9591,-3.13221 -13.8838,-2.25528 -1.912,0.8712 -3.0153,0.70721 -6.2111,-0.92315 -2.1374,-1.09039 -3.8861,-2.31149 -3.8861,-2.71356 0,-0.40207 -2.1567,-3.40747 -4.7927,-6.67866 -5.5494,-6.88683 -10.2073,-19.00619 -10.2073,-26.55856 0,-2.52568 -0.6103,-7.19263 -1.3563,-10.37102 -3.5534,-15.14079 -4.4219,-30.03262 -2.2939,-39.33655 l 1.2424,-5.43267 -3.5907,-3.28954 c -3.1128,-2.85162 -3.5135,-3.67585 -3.0103,-6.19153 0.5057,-2.52844 0.097,-3.34816 -3.1742,-6.36815 -2.06494,-1.90639 -3.7545,-4.30117 -3.7545,-5.32175 0,-1.02058 -1.05862,-2.8501 -2.35247,-4.06561 -1.30312,-1.22424 -2.1479,-2.86529 -1.89394,-3.67904 0.33404,-1.07045 -1.76662,-2.66058 -7.74234,-5.86066 -8.06269,-4.31769 -9.67641,-5.64315 -16.68844,-13.70713 -1.93031,-2.21993 -5.33803,-5.10767 -7.57256,-6.4172 -4.66219,-2.73225 -5.01056,-3.63664 -1.719,-4.46276 3.39234,-0.85144 2.91253,-3.18324 -1.60144,-7.78267 -2.82281,-2.87627 -3.48965,-4.01986 -2.34375,-4.01986 1.83253,0 2.0685,-1.03295 0.57666,-2.52478 -0.74138,-0.74138 -0.58463,-1.69649 0.56672,-3.45365 1.53112,-2.33683 1.50056,-2.58391 -0.80588,-6.51959 -1.82653,-3.11669 -2.13693,-4.35113 -1.30359,-5.18444 0.83325,-0.83331 0.82978,-1.793 -0.015,-4.03052 -1.37869,-3.65262 -0.86456,-4.53702 2.63766,-4.53702 3.68971,0 3.47634,-0.9833 -0.99282,-4.57477 -2.0625,-1.65748 -3.75,-3.41558 -3.75,-3.90691 0,-1.52528 4.58466,-0.98392 8.47482,1.00073 4.60903,2.35132 5.06278,0.68768 0.90018,-3.3003 -3.24834,-3.11209 -3.43472,-4.01878 -1.17187,-5.69892 1.37953,-1.02425 1.45406,-1.52364 0.46875,-3.13751 -0.64453,-1.05566 -1.17188,-2.13604 -1.17188,-2.40085 0,-0.80119 4.9621,-0.54071 8.38163,0.44 1.76709,0.5068 3.42187,0.71256 3.67715,0.45725 0.25529,-0.25531 -0.50418,-2.80055 -1.68768,-5.65606 -1.1835,-2.85552 -1.93107,-5.41271 -1.66116,-5.68263 0.82181,-0.82182 5.44172,1.98209 13.32131,8.08497 4.125,3.19489 8.66016,6.41116 10.07813,7.14728 2.27081,1.17882 2.57812,1.16786 2.57812,-0.092 0,-0.96695 0.91894,-1.43033 2.8366,-1.43033 l 2.83659,0 -1.54003,-3.04687 c -0.84703,-1.67578 -2.28591,-3.89063 -3.19753,-4.92188 -0.91172,-1.03125 -1.94775,-2.8313 -2.30231,-4.0001 -0.35457,-1.1688 -2.322,-2.98082 -4.37213,-4.02673 -6.31247,-3.22037 -5.80444,-6.38829 1.05131,-6.55595 8.178,-0.20001 6.18863,-1.49764 -7.4925,-4.88737 -12.81047,-3.17402 -26.2575,-8.3578 -26.2575,-10.1222 0,-0.38525 2.21485,-0.97331 4.92188,-1.30679 7.71778,-0.95077 10.07812,-1.52611 10.07812,-2.4566 0,-0.47465 -0.76097,-0.86301 -1.69106,-0.86301 -0.93009,0 -3.12225,-1.47656 -4.87144,-3.28125 -1.74918,-1.80469 -3.67612,-3.28125 -4.28212,-3.28125 -0.60591,0 -2.949,-1.68418 -5.20669,-3.74262 -3.66441,-3.34101 -3.92887,-3.84902 -2.46431,-4.73408 1.46597,-0.8859 1.50028,-1.26288 0.32212,-3.5411 -0.72515,-1.4023 -3.67828,-4.1749 -6.5625,-6.16134 -2.88422,-1.98643 -5.244,-3.93299 -5.244,-4.32569 0,-0.39269 0.89944,-0.94921 1.99885,-1.23669 1.38178,-0.36134 1.85118,-1.04627 1.52053,-2.21872 -1.25278,-4.44232 -1.236,-4.47475 2.57437,-4.97896 l 3.75,-0.49623 -10.03868,-6.62653 c -5.52128,-3.64459 -11.95487,-8.3928 -14.29688,-10.55159 -3.59501,-3.31392 -4.258,-4.47145 -4.258,-7.43443 0,-3.08299 0.45561,-3.79096 3.75,-5.827 4.16183,-2.57215 4.37614,-3.00077 2.34375,-4.6875 -2.71139,-2.25025 -1.33702,-2.8125 6.875,-2.8125 4.55469,0 8.54763,-0.26641 8.87322,-0.59201 0.32569,-0.32562 0.15084,-1.41643 -0.38841,-2.42405 -1.31475,-2.4567 -0.40303,-3.14319 2.44875,-1.84383 2.94272,1.34081 2.94338,0.82828 0,-3.02553 -2.83097,-3.71155 -2.98162,-5.84827 -0.46875,-6.64583 2.23585,-0.70964 2.37703,-1.69754 0.46875,-3.28125 -2.10309,-1.74545 -1.7039,-2.8125 1.05225,-2.8125 3.77288,0 1.23413,-2.36829 -3.93375,-3.66958 -2.32709,-0.58597 -3.97693,-1.47658 -3.66633,-1.97916 0.73738,-1.19309 5.34296,-1.15949 12.09239,0.0882 2.98116,0.55108 5.65416,0.7681 5.94001,0.48224 0.28584,-0.28585 -1.90154,-1.62821 -4.86076,-2.983 -6.51271,-2.9816 -5.97056,-3.9933 2.94694,-5.49901 l 6.36675,-1.07502 -3.04106,-2.89678 c -3.71316,-3.53704 -2.57306,-4.32098 4.99106,-3.43196 2.79469,0.32847 5.08125,0.33386 5.08125,0.012 0,-0.32186 -1.58203,-2.05603 -3.51562,-3.8537 l -3.51563,-3.2685 3.32813,-0.0254 c 1.83047,-0.014 3.76565,0.41218 4.3005,0.94697 0.53475,0.53479 4.59281,1.14512 9.0179,1.3563 6.95522,0.33192 8.96119,0.845 14.80078,3.78579 4.09782,2.06362 7.0935,3.06353 7.61522,2.54181 1.43466,-1.43468 10.40486,0.49504 18.59366,3.99997 8.6948,3.72157 9.1199,3.8268 7.4812,1.85238 -1.7791,-2.14371 -0.2927,-2.85933 3.1016,-1.49317 6.6683,2.68404 21.2956,7.60958 22.5981,7.60958 0.7637,0 2.927,1.58203 4.8071,3.51563 3.4742,3.57277 3.7183,3.22121 1.6269,-2.34375 -0.6953,-1.84998 2.9829,-1.38773 5.6498,0.71004 2.7993,2.20193 10.0218,15.14719 10.1051,18.11194 0.032,1.12056 0.7972,4.3577 1.7016,7.19364 l 1.6443,5.15625 0.6673,-7.96875 c 0.3867,-4.619 0.2626,-10.0915 -0.2953,-13.01858 -1.6059,-8.42466 -1.395,-9.48142 1.8925,-9.48142 1.7814,0 3.7205,0.86542 5.1563,2.30114 l 2.3011,2.30113 0,-2.30113 c 0,-1.58012 0.5221,-2.30114 1.6664,-2.30114 2.8042,0 5.7542,2.71807 8.2104,7.56526 1.2882,2.54224 2.4531,4.62224 2.5885,4.62224 0.1356,0 0.3375,-2.3888 0.449,-5.30844 0.1114,-2.91965 0.4197,-5.52557 0.685,-5.79094 0.7312,-0.73114 3.0374,2.67688 4.6563,6.88063 l 1.4441,3.75 -0.426,-3.75 c -0.2343,-2.0625 -0.7081,-4.69922 -1.053,-5.85937 -0.9234,-3.10688 0.5222,-2.58988 5.052,1.8067 3.1682,3.0751 3.9173,4.38373 3.4881,6.09375 -0.7302,2.90958 0.7638,2.76489 2.7499,-0.2663 2.7849,-4.25035 3.5061,-1.46602 3.158,12.19121 -0.1787,7.01434 -0.02,12.75322 0.354,12.75306 0.9755,-4.3e-4 3.1725,-4.522 4.3822,-9.01853 1.0675,-3.96825 4.2439,-8.79427 5.7881,-8.79427 0.4782,0 0.8695,2.0625 0.8695,4.58334 0,3.78968 0.284,4.56078 1.6406,4.45312 1.4806,-0.1175 1.6071,0.76132 1.297,9.01042 -0.3446,9.16965 0.4415,11.35172 2.4788,6.88038 0.5663,-1.24314 1.3086,-3.74681 1.6495,-5.56372 0.3409,-1.81691 1.4217,-4.02924 2.4019,-4.91631 1.7116,-1.54894 1.7857,-1.50496 1.8733,1.11059 0.091,2.7182 0.094,2.71679 1.5105,-0.7319 0.7806,-1.90044 2.0474,-3.69631 2.8149,-3.99085 1.1862,-0.45519 1.3464,0.7308 1.0676,7.90894 -0.2921,7.52135 -0.1498,8.44438 1.3017,8.44396 1.1868,-3.4e-4 1.8121,1.08204 2.3015,3.98391 l 0.672,3.98437 1.0161,-4.62148 c 1.1074,-5.03741 2.7345,-6.49896 3.5906,-3.22529 0.5264,2.01323 -2.0053,14.647 -3.9716,19.81888 -0.5352,1.40753 -0.667,2.54863 -0.2931,2.53579 1.2883,-0.0443 9.4642,-11.70465 11.4312,-16.30309 2.6266,-6.14068 4.1943,-4.62219 2.3568,2.28281 -1.8244,6.8559 -1.817,8.0657 0.039,6.52483 1.9236,-1.59647 2.5096,-0.78382 2.5033,3.47192 0,1.96798 0.4432,4.12312 0.9911,4.7892 0.7304,0.88782 0.449,1.95134 -1.0541,3.98438 l -2.0504,2.7733 2.4722,0 c 1.7349,0 2.3217,0.39176 1.9679,1.31387 -0.3041,0.7925 0.2475,1.51044 1.39,1.80922 2.5451,0.66555 1.8089,2.90013 -4.0002,12.14232 -2.5224,4.01316 -4.5862,7.5151 -4.5862,7.78209 0,0.74677 6.5134,-4.22344 11.5457,-8.81011 2.4829,-2.2631 4.756,-3.87318 5.0512,-3.57795 0.2952,0.29524 0,2.45943 -0.6594,4.80931 -1.3707,4.89571 -0.9901,5.7521 1.875,4.21875 2.8922,-1.54786 3.2676,-0.62871 1.5236,3.73008 -0.838,2.09433 -1.4963,4.53761 -1.4628,5.42952 0.034,0.89191 0.9337,-0.59319 2.0005,-3.30022 2.2357,-5.67283 5.1414,-6.98175 4.1624,-1.875 -1.784,9.30524 -2.4599,11.36082 -4.9255,14.9795 -4.5606,6.6935 -4.5264,6.6069 -2.3354,5.91149 1.4863,-0.47173 1.9747,-0.22726 1.9747,0.98859 0,2.91744 -4.5328,7.63885 -12.1722,12.67866 -4.1334,2.72691 -7.5153,5.24603 -7.5153,5.59804 0,0.85786 7.2721,-1.68723 9.72,-3.40179 2.6413,-1.85004 3.405,-1.7172 3.405,0.59224 0,3.30765 -9.3763,15.22344 -13.8726,17.62975 -2.7555,1.47469 -2.6178,2.91414 0.2788,2.91414 6.2906,0 -0.2824,6.76736 -7.7344,7.96302 -2.1914,0.35161 -3.9843,1.04898 -3.9843,1.54971 0,0.50074 0.4218,0.6497 0.9375,0.33102 0.5156,-0.31867 0.9375,-0.14236 0.9375,0.39181 0,0.53417 -1.1602,1.69164 -2.5782,2.57216 -1.4179,0.88051 -3.4961,2.411 -4.6181,3.40108 -1.122,0.99008 -2.4285,1.56 -2.9033,1.26651 -1.4019,-0.86638 -5.975,4.51405 -5.3099,6.24724 0.8848,2.30587 -4.1058,6.25581 -7.143,5.65351 -1.5197,-0.30135 -2.8478,0.0688 -3.6305,1.01188 -0.7771,0.93635 -2.7288,1.48706 -5.2701,1.48706 -3.2433,0 -4.4174,0.48504 -5.9789,2.47018 -1.0686,1.3586 -1.943,3.05934 -1.943,3.77942 0,1.83158 -2.3156,2.51985 -4.5159,1.3423 -2.5371,-1.35787 -4.3347,0.88943 -3.61,4.51313 0.7191,3.59532 -1.0351,4.21328 -5.3679,1.89102 -5.367,-2.87873 -6.1896,-2.4964 -6.1896,2.87898 0,5.1114 -0.6133,5.6744 -3.0637,2.8125 -2.0836,-2.43348 -3.4988,-2.38523 -3.4988,0.11928 0,2.0517 -1.0622,2.11414 -10.7574,0.63239 -1.3148,-0.20094 -1.8581,0.26039 -1.875,1.59208 -0.022,1.69018 -0.6245,1.86561 -6.1176,1.77974 -3.3516,-0.0524 -7.2345,-0.41426 -8.6287,-0.80416 -2.26,-0.63201 -2.5991,-0.41835 -3.1267,1.97027 -0.3256,1.47353 -1.1495,4.17151 -1.8309,5.99549 -1.4969,4.00654 -2.805,12.15241 -1.9515,12.15241 0.3369,0 2.3684,-0.89578 4.5144,-1.99061 9.2744,-4.73146 16.9379,-6.55435 34.4609,-8.19717 8.855,-0.83017 21.1016,1.05735 30.2637,4.66445 9.2311,3.63425 35.8301,15.11264 36.7757,15.87006 1.0078,0.80714 12.7886,3.71577 15.0501,3.71577 3.0735,0 1.1985,-5.56682 -6.2145,-18.45055 -3.5567,-6.18138 0.1039,-6.76874 3.9004,-0.62587 3.3753,5.46123 3.0388,2.77842 -0.5438,-4.33559 -3.0723,-6.10067 -3.2784,-6.97851 -2.2071,-9.39873 0.9583,-2.16493 1.4989,-2.49979 2.8598,-1.77142 2.2234,1.18991 2.1675,-0.0266 -0.2605,-5.67076 -1.1822,-2.74798 -1.8182,-5.92564 -1.6299,-8.14255 l 0.3088,-3.63578 5.3537,5.3436 c 2.9444,2.93898 5.6055,4.936 5.9134,4.43782 0.3079,-0.49816 0.9977,-0.6351 1.5329,-0.30431 1.0662,0.65894 0.9128,0.039 -2.5772,-10.41461 -1.7268,-5.17219 -1.9233,-6.62261 -0.9277,-6.84623 0.7483,-0.16804 1.0687,-1.02812 0.786,-2.10937 -0.6804,-2.60145 1.1408,-2.25649 3.922,0.74289 2.3062,2.48716 2.3817,2.50294 2.3817,0.49818 0,-1.34202 0.4405,-1.90132 1.2523,-1.58983 1.5968,0.61276 4.3716,6.38391 4.3762,9.10179 0,1.14267 0.9129,3.55413 2.0244,5.35882 3.3082,5.37132 11.3905,27.87397 15.3209,42.65625 2.4909,9.36786 4.2137,13.08606 4.2137,9.09375 0,-1.13438 0.4219,-2.0625 0.9375,-2.0625 0.5156,0 0.9375,-0.84375 0.9375,-1.875 0,-2.39121 1.3548,-2.3731 4.7771,0.0638 l 2.7229,1.93885 0,-2.84692 c 0,-2.14543 0.3465,-2.71395 1.4063,-2.30729 1.9228,0.73786 1.8075,-1.14758 -0.6404,-10.48107 -1.5109,-5.76099 -1.8023,-8.3504 -1.1133,-9.89449 0.8718,-1.9538 1.1453,-1.72663 4.1559,3.45221 l 3.2228,5.54363 0.267,-9.03249 c 0.1778,-6.01544 -0.1786,-10.32602 -1.0673,-12.90514 -0.9176,-2.66348 -1.1914,-6.28311 -0.8767,-11.59252 0.3035,-5.12102 0.055,-8.66666 -0.7377,-10.53235 -0.6573,-1.54688 -1.2408,-4.71094 -1.2964,-7.03125 -0.056,-2.32031 -0.4495,-5.37891 -0.8749,-6.79688 -1.1653,-3.88394 1.3205,-3.32529 4.5993,1.0336 1.7311,2.30134 3.2801,3.4644 4.2694,3.20567 1.5738,-0.41156 2.7089,1.98464 2.7357,5.77506 0.01,0.99616 1.7557,6.05866 3.8859,11.25 7.0349,17.14427 8.5422,26.89821 8.5572,55.3763 0,6.70312 -0.2998,13.70959 -0.674,15.56991 -1.0006,4.97475 2.0076,10.09679 11.8212,20.12775 11.3325,11.58351 12.269,14.20255 12.5457,35.08359 0.1127,8.50781 0.2577,15.80209 0.3221,16.2095 0.065,0.4074 1.8715,2.36056 4.0156,4.34036 2.1441,1.97979 3.9858,4.38865 4.0926,5.35301 0.1068,0.96436 0.9059,3.37467 1.7757,5.35626 0.8697,1.98158 1.4474,4.00474 1.2837,4.49592 -0.1637,0.49116 -2.3175,-0.18091 -4.7861,-1.49351 -5.3544,-2.84693 -5.3268,-2.84343 -5.3268,-0.67496 0,2.91617 -4.1001,5.76379 -13.1354,9.12299 -12.1845,4.53002 -17.2208,4.42365 -30.0426,-0.63451 -5.3849,-2.12435 -12.8182,-4.65752 -16.5183,-5.62927 -11.8746,-3.11849 -23.7353,-8.19668 -31.7859,-13.60918 -7.6898,-5.16995 -7.8888,-5.2424 -10.2132,-3.71936 -4.7414,3.10669 -9.831,13.74015 -9.857,20.59376 -0.01,2.38869 -0.2646,2.61586 -2.3538,2.09151 -1.9295,-0.48425 -2.3438,-0.2483 -2.3438,1.33473 0,2.83239 2.4121,8.13528 6.6911,14.71013 2.8298,4.3479 5.0714,6.54197 8.88,8.69144 4.3109,2.43289 5.4475,3.67269 7.3866,8.05729 2.5773,5.8278 4.3884,11.8078 3.7649,12.43129 -0.2277,0.22775 -1.4819,-0.2856 -2.7871,-1.14077 -1.3052,-0.85517 -2.373,-1.43687 -2.373,-1.29268 0,0.1442 0.3924,1.63048 0.8721,3.30286 1.1255,3.9247 -0.1683,3.97606 -5.2894,0.20995 l -3.8492,-2.83074 -0.622,3.68177 c -0.3422,2.02498 -1.1189,4.35913 -1.7262,5.18701 -0.9713,1.32426 -1.5831,1.03986 -5.0884,-2.36517 z"
     id="path4156" />
  <path
     style="fill:#000000"
     d="m 113.57235,786.83676 c -1.80797,-3.23066 0.62889,-7.751 10.85842,-20.14223 13.48829,-16.33864 15.7917,-24.25399 8.00485,-27.50754 -3.19014,-1.33293 -3.25886,-1.47221 -2.66862,-5.40822 0.55226,-3.6827 0.35266,-4.26567 -2.25654,-6.59047 -3.77008,-3.35915 -2.75005,-5.31412 4.7474,-9.09882 5.86042,-2.95833 7.42964,-5.13493 7.42964,-10.30539 0,-3.48279 4.66181,-8.8833 8.86591,-10.27078 4.84682,-1.59959 13.44076,-11.36882 19.14175,-21.75951 3.59359,-6.54972 3.79615,-8.93697 0.38215,-4.5038 -5.34858,6.94527 -13.02867,13.11397 -16.33638,13.12149 -4.5478,0.0103 -1.25954,-7.73169 7.10288,-16.72345 6.15837,-6.62181 5.38224,-6.93586 -3.00309,-1.21518 -8.04814,5.49065 -17.60337,15.83784 -19.03344,20.61096 -1.49218,4.98046 -6.07907,9.12525 -11.02297,9.96051 -4.6017,0.77745 -6.02279,2.28891 -8.57486,9.12012 -2.46231,6.5909 -4.79553,7.74335 -8.21371,4.057 -1.8696,-2.01628 -2.82783,-2.38367 -4.80609,-1.84268 -4.706987,1.28722 -6.120484,0.95455 -7.436866,-1.7503 -2.4771,-5.08985 -8.317845,-5.09957 -15.052199,-0.025 -1.880634,1.41706 -7.849023,6.8257 -13.263085,12.01916 -5.414063,5.19345 -11.207267,10.00532 -12.873788,10.69303 -3.369733,1.39058 -5.876212,0.8742 -5.876212,-1.21058 0,-1.46952 8.2079,-9.10413 22.458485,-20.88986 4.875604,-4.03229 10.139454,-9.14711 11.697443,-11.36625 3.612078,-5.14494 3.837311,-10.25889 0.60344,-13.70119 l -2.229269,-2.37294 3.999303,-4.33874 c 3.838925,-4.16475 3.981077,-4.53224 3.544833,-9.16427 -0.249958,-2.65406 -0.747968,-5.51785 -1.106688,-6.36398 -0.432315,-1.01973 0.316653,-2.64191 2.221366,-4.81127 2.868471,-3.267 3.709359,-6.61685 1.936087,-7.7128 -1.562988,-0.96598 -1.051527,-4.76245 0.876685,-6.50746 0.997799,-0.903 2.665265,-3.4524 3.705468,-5.66534 1.040203,-2.21294 3.441537,-5.30138 5.336287,-6.86319 l 3.44502,-2.83968 -1.95912,-2.75132 c -3.63492,-5.10479 -4.300378,-10.647 -4.472371,-37.24801 -0.173757,-26.87405 -0.02147,-25.75446 -5.458425,-40.12077 -1.779396,-4.70175 -2.410126,-8.14025 -2.40754,-13.125 0.0061,-11.68095 4.134171,-15.26512 14.918086,-12.95238 24.86055,5.33164 47.6565,28.4298 63.86645,64.71317 5.18788,11.61222 13.31736,34.77493 14.91655,42.5006 0.61371,2.96485 1.26221,5.39063 1.4411,5.39063 0.17889,0 2.40519,-1.04469 4.94732,-2.32153 3.80053,-1.9089 5.15482,-3.32107 7.61936,-7.94503 4.89966,-9.19271 6.66263,-15.46002 6.66263,-23.68554 0,-4.94263 0.32814,-7.20575 0.98587,-6.79925 1.24382,0.76872 0.28164,12.20904 -1.57445,18.7201 -0.73495,2.57812 -2.95977,7.74609 -4.94406,11.48437 -3.10517,5.84994 -3.37172,6.79688 -1.91326,6.79688 0.932,0 1.96253,0.84433 2.29006,1.87629 0.5693,1.79371 0.77863,1.7503 4.75617,-0.98632 2.28837,-1.57444 7.21679,-4.3108 10.95204,-6.0808 8.83187,-4.1851 21.32263,-6.63618 21.32263,-4.18417 0,0.52018 -2.48827,0.9375 -5.58983,0.9375 -6.91179,0 -13.16232,2.26639 -22.87944,8.29588 -6.7628,4.19633 -7.51607,4.97561 -9.06725,9.38035 -0.93045,2.64209 -1.40834,4.96549 -1.06198,5.16309 0.34636,0.1976 2.73912,0.64704 5.31725,0.99875 8.38616,1.14404 35.02657,8.02096 45.38107,11.71462 34.14438,12.17999 57.87271,31.215 66.62843,53.44975 2.28512,5.80294 2.68215,13.45229 0.81509,15.70363 -3.88853,4.6889 -15.79215,5.37849 -28.05,1.62497 -9.61754,-2.94501 -17.6382,-3.16475 -32.85134,-0.90003 -14.54771,2.16565 -37.64445,1.79188 -41.11623,-0.66539 -3.20343,-2.26733 -4.13961,-2.07136 -5.34367,1.11855 -0.64656,1.71293 -2.97242,3.99439 -6.13376,6.01667 -2.80076,1.79163 -5.73462,4.2249 -6.51969,5.40729 -1.36493,2.05569 -1.59919,2.09308 -5.35255,0.85436 l -3.92515,-1.29542 -3.53132,3.44826 c -3.37237,3.29301 -3.71916,3.4132 -7.70361,2.66981 -5.87836,-1.09674 -9.27939,0.10493 -13.18234,4.65769 l -3.38507,3.94865 -2.60073,-2.04574 c -6.87515,-5.40799 -13.74654,-0.80188 -25.87327,17.34366 -8.17812,12.23715 -14.62174,20.61107 -16.37873,21.28529 -0.71296,0.27359 -1.6798,-0.18785 -2.14853,-1.02543 z"
     id="path4154" />
  <path
     style="fill:#000000"
     d="m 1508.7721,677.77335 c -6.848,-0.95034 -14.6024,-4.76838 -17.7846,-8.75652 l -2.7062,-3.39177 -13.125,-0.0122 c -20.7314,-0.0192 -58.0023,-1.73329 -70.3125,-3.23366 l -11.25,-1.37114 -5.2729,5.5897 c -5.8735,6.22627 -6.8645,6.4885 -17.2596,4.56686 -8.5931,-1.58853 -14.8565,-5.60198 -18.0028,-11.53585 -0.6132,-1.15658 -3.615,-2.54903 -8.5936,-3.98636 -10.0733,-2.90818 -17.5219,-6.78739 -22.077,-11.49779 -2.0892,-2.16034 -4.5903,-3.83216 -5.733,-3.83216 -1.1149,0 -3.0996,-0.84375 -4.4107,-1.875 -1.311,-1.03125 -3.4773,-1.875 -4.8139,-1.875 -2.0519,0 -2.4303,-0.41971 -2.4303,-2.69555 0,-2.34407 -0.7029,-3.04697 -5.3906,-5.39063 -3.5684,-1.78402 -5.2736,-3.17044 -5.0443,-4.10132 0.8448,-3.43079 0.4916,-4.17227 -2.2213,-4.66238 -2.5605,-0.46258 -2.8583,-0.90562 -3.3233,-4.94449 -0.3222,-2.79807 -1.1549,-4.90738 -2.2551,-5.7118 -1.4813,-1.08319 -1.6597,-2.09393 -1.1837,-6.70568 0.3082,-2.98663 0.9643,-5.83407 1.4578,-6.32765 0.5716,-0.57152 0.1656,-2.48049 -1.1179,-5.25707 -1.8799,-4.06661 -2.0153,-5.82931 -2.0153,-26.22189 0,-19.61313 0.1684,-22.01479 1.6373,-23.34543 1.1634,-1.05397 1.3584,-1.81921 0.6738,-2.64421 -1.5524,-1.87046 -0.3867,-21.84409 1.4934,-25.5892 1.006,-2.00384 1.3836,-4.28083 1.0504,-6.33376 -0.4689,-2.88888 -0.1806,-3.43595 2.9207,-5.54332 1.8925,-1.28596 4.0041,-2.33812 4.6926,-2.33812 1.3285,0 0.7717,-3.20021 -0.927,-5.32789 -0.5756,-0.72104 -0.4026,-1.86916 0.4943,-3.28125 0.7589,-1.19465 1.6794,-4.49242 2.0457,-7.32836 0.8947,-6.92769 1.7175,-8.20165 6.0514,-9.36863 4.2786,-1.15213 5.4829,-2.44754 3.0062,-3.23363 -1.5312,-0.48598 -1.3275,-0.98807 1.7556,-4.32771 1.9183,-2.07788 4.6811,-6.29055 6.1395,-9.36149 2.221,-4.6766 3.0419,-5.58354 5.0534,-5.58354 3.0815,0 6.4444,-2.363 7.5678,-5.31766 0.6849,-1.80134 1.4388,-2.24902 3.393,-2.01477 2.1461,0.25728 2.6281,-0.14301 3.3058,-2.74569 0.6568,-2.52221 1.2449,-3.04688 3.4157,-3.04688 2.6702,0 5.5213,-2.38891 7.5524,-6.32812 0.5982,-1.16016 1.8737,-2.10938 2.8345,-2.10938 0.9607,0 4.2154,-1.29446 7.2327,-2.87659 4.1791,-2.19139 5.5996,-3.47542 5.9637,-5.39062 0.3823,-2.01072 1.0392,-2.54545 3.2812,-2.67096 3.8877,-0.21762 7.8989,-1.18356 11.3825,-2.74107 1.6249,-0.72641 3.6683,-1.32076 4.5409,-1.32076 0.8727,0 1.7937,-0.79127 2.0465,-1.75837 0.651,-2.48952 10.9027,-4.22749 14.551,-2.46683 2.0974,1.01219 2.8188,1.00201 4.2187,-0.0596 0.9288,-0.70432 2.2606,-1.294 2.9596,-1.3104 0.699,-0.0164 2.5244,-1.0845 4.0564,-2.37357 3.4913,-2.93783 6.5749,-2.96386 11.4671,-0.0968 l 3.8341,2.24693 9.3733,-1.82461 c 8.6255,-1.67905 9.7098,-1.71009 13.592,-0.38917 3.3616,1.1438 19.8778,4.262 22.6626,4.27864 0.3472,0.002 2.5821,1.49284 4.9664,3.31282 4.2381,3.23504 6.121,3.51488 6.121,0.90969 0,-2.39697 1.599,-2.31816 9.9006,0.48795 9.6756,3.27059 13.8051,5.85525 16.071,10.05893 1.3156,2.44068 2.2273,3.04687 4.5824,3.04687 8.7542,0 19.9205,4.01827 26.0002,9.35626 3.2678,2.86918 3.6117,2.97167 5.1873,1.54584 2.6266,-2.37708 3.3846,-1.89852 5.6501,3.56757 1.1614,2.80206 2.6126,5.51041 3.2248,6.01854 0.6742,0.55949 3.4319,0.6505 6.9917,0.23076 6.3409,-0.74765 6.2801,-0.79075 7.1398,5.06661 0.4032,2.74656 2.1825,2.71571 3.6386,-0.0631 l 1.3195,-2.51853 2.0858,2.92927 c 2.4097,3.38403 3.8043,3.71085 4.4991,1.05428 0.7099,-2.7147 1.8129,-2.30626 3.0047,1.11269 0.8036,2.30541 1.2956,2.7336 2.1542,1.875 1.75,-1.74998 4.8687,-1.31277 8.5745,1.20206 1.8761,1.2731 4.0476,2.07047 4.8255,1.77191 0.7781,-0.29855 2.4715,0.14964 3.7632,0.99598 2.2563,1.47834 2.3813,1.45254 3.1832,-0.65676 0.7204,-1.8948 1.3289,-2.13851 4.4412,-1.77899 2.1311,0.24616 4.416,1.28626 5.5854,2.54252 1.4319,1.53818 4.6719,2.72569 11.7188,4.29522 6.8245,1.51999 10.3739,2.80041 11.8586,4.27799 1.1654,1.15979 2.715,1.87994 3.4437,1.60033 0.7544,-0.28948 1.7764,0.33539 2.3736,1.45125 0.8239,1.53966 1.4184,1.7618 2.7737,1.03649 1.1539,-0.61761 3.4257,-0.56639 6.8638,0.15475 4.5042,0.94478 5.2705,1.44183 6.2044,4.02466 0.5861,1.62072 1.0942,3.76057 1.1291,4.75521 0.057,1.61995 0.1695,1.58858 1.0807,-0.30094 0.5595,-1.16016 1.5283,-2.10937 2.153,-2.10937 1.1445,0 3.271,4.89852 5.0334,11.59526 0.525,1.99458 1.6728,4.42024 2.5508,5.39036 1.2996,1.43614 1.8093,5.29118 2.7429,20.7485 0.8017,13.27332 1.6018,20.02758 2.6596,22.45143 0.9441,2.16325 1.6706,7.16279 1.9323,13.29609 0.264,6.18639 1.1355,12.14775 2.3516,16.08506 1.0627,3.44069 1.9322,6.95844 1.9322,7.81721 0,0.85879 3.8268,5.34951 8.504,9.97938 12.1977,12.07422 15.1709,17.91683 13.0763,25.69556 -0.5688,2.11243 -2.3031,5.28603 -3.8541,7.05246 -5.0343,5.73381 -12.445,6.79412 -33.4431,4.78509 -8.3865,-0.8024 -20.4099,-1.44588 -26.7188,-1.42995 -10.8693,0.0274 -24.8034,1.27267 -25.84,2.30925 -0.2624,0.26241 0.085,1.52757 0.7721,2.81145 1.6655,3.11198 0.1697,6.38948 -3.9401,8.63338 -5.084,2.77571 -22.4371,2.2567 -32.1501,-0.96157 -4.125,-1.36676 -8.1728,-2.49041 -8.9953,-2.49699 -0.8223,-0.007 -4.1657,1.71403 -7.4296,3.82359 -8.1467,5.26552 -9.1645,5.58306 -22.4662,7.00972 -10.6308,1.14017 -18.7651,3.35997 -18.7651,5.12086 0,0.37476 1.261,1.20374 2.8024,1.84216 4.1338,1.71229 8.889,7.47572 11.1468,13.51046 1.0935,2.92274 1.9883,5.70798 1.9883,6.18942 0,1.17564 -11.4987,4.4388 -17.3438,4.92188 -2.5781,0.21308 -6.8572,0.0864 -9.5091,-0.28171 z"
     id="path4152" />
  <path
     style="fill:#000000"
     d="m 154.53382,450.05288 c -1.88921,-0.36794 -4.43055,-1.32135 -5.64744,-2.11868 -2.67337,-1.75166 -11.34197,-1.21388 -14.58951,0.9051 -1.90125,1.24056 -2.10937,1.21843 -2.10937,-0.22423 0,-0.88032 0.884,-2.72181 1.96444,-4.0922 1.75286,-2.22326 1.79523,-2.52583 0.39337,-2.80925 -0.86408,-0.1747 -3.75199,0.41081 -6.41756,1.30111 -2.66557,0.89032 -6.73858,2.20306 -9.05113,2.91721 l -4.20463,1.29845 4.61686,-4.68734 c 2.53927,-2.57804 4.3917,-4.91251 4.11649,-5.1877 -0.62761,-0.62762 -6.74987,1.50688 -11.99048,4.18044 -4.38886,2.23903 -5.89325,1.91757 -3.48412,-0.74449 0.85622,-0.9461 1.55676,-2.85171 1.55676,-4.23468 0,-2.11203 0.81379,-2.91361 5.08441,-5.00812 2.79642,-1.3715 5.43314,-3.22747 5.85937,-4.12438 1.1526,-2.42542 16.64696,-13.63249 21.19867,-15.33301 2.17321,-0.81191 9.02983,-1.84161 15.23692,-2.2882 16.9881,-1.2223 19.75131,-3.04289 27.16506,-17.8982 4.35765,-8.73165 12.47248,-19.116 26.88312,-34.40169 2.99609,-3.17803 5.44745,-6.40243 5.44745,-7.16533 0,-0.7629 0.60504,-1.61926 1.34454,-1.90304 1.94112,-0.74487 10.84296,-13.71663 10.84296,-15.80034 0,-0.96753 1.00551,-3.74903 2.23446,-6.1811 2.89341,-5.72604 6.51964,-17.33855 8.55327,-27.39071 0.88667,-4.38281 2.80789,-11.34375 4.26939,-15.46875 2.96818,-8.37757 4.97649,-15.22462 5.08708,-17.34375 0.0403,-0.77344 0.42109,-2.83004 0.84606,-4.57024 0.56582,-2.31698 0.43212,-3.37976 -0.49943,-3.97002 -1.82881,-1.15879 -8.68012,-1.02045 -9.90047,0.1999 -0.6976,0.6976 -1.5691,0.73557 -2.67521,0.11655 -1.19811,-0.6705 -2.48876,-0.41763 -4.78576,0.93763 -1.72986,1.02064 -3.82793,1.59373 -4.66237,1.27352 -0.83445,-0.3202 -1.99104,-0.21424 -2.57022,0.23546 -2.5323,1.96623 -7.40586,2.97928 -8.79328,1.82782 -1.09601,-0.9096 -1.6053,-0.81282 -2.55461,0.48543 -0.65212,0.89183 -1.79934,1.38604 -2.54938,1.09823 -1.84108,-0.7065 -5.85872,0.91241 -8.28458,3.33827 -1.10929,1.10929 -2.61324,1.74382 -3.40922,1.43837 -0.78611,-0.30167 -3.29508,0.71602 -5.59951,2.27126 -2.29637,1.5498 -4.79492,2.81782 -5.55233,2.81782 -1.00079,0 -1.21636,0.64048 -0.78887,2.34375 0.73385,2.92388 -1.05039,3.15 -1.8494,0.23438 -0.48222,-1.75964 -0.73114,-1.87621 -1.50124,-0.70313 -0.50774,0.77344 -0.92963,2.35547 -0.93753,3.51563 -0.008,1.16015 -0.43623,2.10937 -0.95185,2.10937 -0.51563,0 -0.9375,-0.84375 -0.9375,-1.875 0,-1.03125 -0.47106,-1.875 -1.04679,-1.875 -0.60155,0 -0.8625,0.96407 -0.61351,2.26658 0.37332,1.95286 -8.1e-4,2.348 -2.70321,2.85497 -1.8499,0.34705 -3.13649,1.14783 -3.13649,1.95218 0,0.75007 -0.42188,1.36377 -0.9375,1.36377 -0.51563,0 -0.9375,-1.29656 -0.9375,-2.88124 0,-2.25573 -0.35618,-2.80335 -1.64063,-2.52244 -0.90234,0.19733 -1.48372,0.96654 -1.29195,1.70936 0.19175,0.74282 0.55737,2.08885 0.81246,2.99119 0.25509,0.90235 -0.008,1.64063 -0.58304,1.64063 -0.57577,0 -1.04684,-0.63281 -1.04684,-1.40625 0,-0.77344 -0.4503,-1.40625 -1.00068,-1.40625 -0.57404,0 -0.74695,0.7994 -0.40557,1.875 0.68455,2.15682 -0.93099,2.59073 -1.74528,0.46875 -1.09234,-2.84662 -2.27992,-1.29346 -1.79207,2.34375 0.33025,2.46218 0.13863,3.75 -0.55796,3.75 -0.58352,0 -1.06094,-1.02979 -1.06094,-2.28842 0,-1.25863 -0.39273,-2.53114 -0.87272,-2.82779 -1.44867,-0.89533 -2.09591,1.19774 -1.00228,3.24121 1.8058,3.37418 -0.10693,4.06579 -2.16003,0.78101 -1.475,-2.35986 -2.03724,-2.73857 -2.2969,-1.54707 -0.1891,0.86772 0.32531,2.87163 1.14313,4.45313 1.50264,2.90578 0.88322,3.81985 -1.1862,1.75043 -0.875,-0.875 -1.125,-0.48384 -1.125,1.76021 0,1.58686 -0.63281,3.41039 -1.40625,4.05229 -1.1892,0.98695 -1.40625,0.78761 -1.40625,-1.29146 0,-1.3522 -0.46883,-2.45854 -1.04183,-2.45854 -0.68293,0 -0.82978,1.1304 -0.42628,3.28125 0.38458,2.04991 0.24782,3.28125 -0.36441,3.28125 -0.53899,0 -0.97998,-1.00956 -0.97998,-2.24345 0,-1.2339 -0.66731,-2.49952 -1.48293,-2.8125 -2.23789,-0.85876 -2.31076,-0.75316 -1.18513,1.71733 0.83864,1.84061 0.74333,2.58478 -0.48885,3.81696 -0.84183,0.84182 -1.53059,2.42858 -1.53059,3.52613 0,1.55207 -0.25,1.74553 -1.125,0.87053 -1.76153,-1.76153 -2.71023,-1.32472 -2.13788,0.98437 0.3683,1.48586 -0.0421,2.45813 -1.38839,3.2892 -1.64362,1.01462 -1.91956,0.94899 -1.97066,-0.46875 -0.0426,-1.18148 -0.3385,-0.98452 -1.04444,0.69518 -0.61904,1.47294 -1.15462,1.88989 -1.44151,1.12219 -0.3406,-0.91143 -0.8007,-0.79242 -1.81223,0.46875 -1.23852,1.54415 -1.30769,1.43938 -0.80014,-1.21173 0.45153,-2.35842 0.0339,-3.46052 -2.22939,-5.8834 -1.60125,-1.71414 -3.0376,-2.57266 -3.37926,-2.01983 -0.32684,0.52884 -1.01613,0.96152 -1.53175,0.96152 -0.51563,0 -0.71162,-0.36549 -0.43554,-0.8122 0.27609,-0.44672 -0.37627,-1.60688 -1.44969,-2.57813 -2.97768,-2.6943 -17.53306,-2.44886 -23.407061,0.39469 -2.33835,1.13197 -4.525987,2.05814 -4.861415,2.05814 -0.335438,0 -3.155846,1.64554 -6.267582,3.65675 -9.41337,6.08416 -17.553765,6.99337 -29.868126,3.33603 -4.277414,-1.27037 -5.19612,-1.96733 -6.404029,-4.85826 -0.867577,-2.07641 -1.185239,-4.57434 -0.825545,-6.49168 0.321866,-1.71569 0.111143,-4.00136 -0.468802,-5.08499 -1.224722,-2.28842 -0.444668,-3.60096 1.176565,-1.97972 1.749709,1.7497 2.609375,1.31037 2.609375,-1.33353 l 0,-2.44289 2.957605,3.14602 c 3.169479,3.3714 4.856075,2.43678 2.26872,-1.25718 -2.14278,-3.05924 -1.837346,-4.74651 1.419813,-7.84328 3.580989,-3.40465 7.761546,-10.3428 6.987077,-11.59592 -0.82051,-1.32761 -4.483319,0.24381 -9.504072,4.07743 -2.312955,1.76608 -6.474016,4.15135 -9.246803,5.3006 -4.686715,1.94254 -4.980863,2.24886 -4.180635,4.35362 0.473438,1.24523 0.860795,2.44753 0.860795,2.67178 0,1.14467 -2.298677,0.0719 -6.157447,-2.87353 -3.562377,-2.71923 -5.085894,-3.28125 -8.894675,-3.28125 -8.422476,0 -21.510378,-5.67695 -21.510378,-9.33023 0,-0.54025 0.738281,-1.02745 1.640625,-1.08267 0.902344,-0.0552 -0.108085,-0.49317 -2.2453972,-0.97322 -4.4834612,-1.00701 -9.04301334,-4.78631 -8.59308582,-7.1226 0.16963853,-0.88086 2.48282992,-3.08847 5.14042532,-4.90579 2.6575954,-1.81734 8.1381847,-7.28347 12.1790867,-12.14696 4.040903,-4.86349 9.273446,-10.98068 11.627874,-13.59375 5.118015,-5.68024 12.427944,-15.18357 13.912218,-18.08668 0.58648,-1.1471 1.249723,-4.47552 1.473872,-7.39647 0.377657,-4.92136 0.204299,-5.50067 -2.364037,-7.89985 -3.455217,-3.22766 -3.451317,-4.14786 0.04092,-9.65455 1.546875,-2.43916 2.8125,-4.74751 2.8125,-5.12966 0,-0.38215 1.868107,-3.69667 4.15135,-7.3656 2.283242,-3.66893 5.191223,-8.72052 6.462177,-11.22575 1.270956,-2.50524 4.921023,-7.29716 8.111261,-10.64872 5.749483,-6.04023 5.796028,-6.133 5.298901,-10.56242 -0.584784,-5.21046 2.085746,-16.81663 5.081972,-22.08634 2.373985,-4.1753 5.943228,-6.96061 8.919718,-6.96061 1.213139,0 4.295599,1.50143 6.849913,3.33653 8.59233,6.17297 11.212457,7.09627 16.327307,5.75353 5.61366,-1.47369 6.81214,-2.4733 9.06119,-7.55766 2.55157,-5.76825 6.26907,-10.34756 11.09648,-13.6689 3.95351,-2.72009 4.35547,-2.80563 8.04126,-1.71143 2.40849,0.71501 5.41559,2.74698 7.92988,5.35841 4.96934,5.16132 7.20087,4.95426 12.84347,-1.19169 2.09401,-2.28081 4.21607,-4.14692 4.71569,-4.14692 0.49962,0 1.43534,-0.84375 2.07937,-1.875 0.64402,-1.03125 1.72426,-1.875 2.40051,-1.875 0.67626,0 2.95459,-1.476562 5.06296,-3.28125 2.10837,-1.804687 4.45296,-3.28125 5.21021,-3.28125 0.75723,0 1.93227,-0.669303 2.61119,-1.48734 1.37349,-1.654965 15.10812,-8.786055 17.99167,-9.341378 1.01304,-0.195093 2.39048,-1.104947 3.06097,-2.021898 0.67049,-0.91695 1.78263,-1.692163 2.47143,-1.722695 1.72731,-0.07657 10.31469,-4.035625 12.03362,-5.547888 0.77344,-0.680445 3.16721,-1.525712 5.31948,-1.87837 4.17885,-0.684722 15.25059,-6.143761 17.18312,-8.472315 0.64047,-0.771714 1.60683,-1.403116 2.14748,-1.403116 1.85592,0 12.67694,-5.696988 13.14682,-6.921458 0.25845,-0.673515 2.42523,-1.772032 4.81508,-2.441148 3.00391,-0.841041 5.30078,-2.332971 7.44091,-4.833235 1.70265,-1.989162 3.68807,-3.628396 4.41204,-3.64274 0.72398,-0.01434 2.9735,-1.27997 4.99895,-2.8125 2.02545,-1.532531 4.20792,-2.786419 4.84994,-2.786419 0.64203,0 2.43091,-1.06324 3.97529,-2.362755 2.98871,-2.514836 17.12191,-8.137485 24.37783,-9.698302 2.40037,-0.516343 8.37212,-1.817503 13.27056,-2.891467 4.89844,-1.073964 10.67432,-1.94587 12.83529,-1.937569 2.16098,0.0083 4.20756,-0.435543 4.54796,-0.98632 0.3404,-0.550777 1.31451,-0.703752 2.1647,-0.339945 0.85019,0.363807 8.2958,0.80734 16.5458,0.985628 16.27376,0.351688 20.8033,0.690287 21.73802,1.624994 0.33315,0.333155 1.5901,0.605736 2.79323,0.605736 1.28435,0 2.1875,0.560369 2.1875,1.357256 0,0.976343 1.38132,1.436785 4.92187,1.640625 3.32367,0.191355 4.84577,0.663896 4.6875,1.455244 -0.1289,0.644531 0.65822,1.171875 1.74918,1.171875 2.45012,0 11.49532,3.02276 11.9227,3.984375 0.17188,0.386719 0.84667,0.703125 1.49955,0.703125 0.65287,0 2.99178,1.212073 5.19757,2.693497 2.20578,1.481422 4.77193,2.494381 5.70255,2.251018 1.33459,-0.349003 1.58334,-0.02679 1.17747,1.525253 -0.42361,1.619863 -0.0907,1.967732 1.88319,1.967732 1.31877,0 2.64202,0.395225 2.94057,0.878276 1.26747,2.050815 11.8723,6.053549 19.70578,7.437836 11.17964,1.975602 45.30515,1.80933 52.98707,-0.258172 2.83594,-0.76326 11.48437,-2.49928 19.21875,-3.857822 28.47998,-5.002505 34.18313,-6.108959 36.75098,-7.129969 2.97813,-1.184138 18.43528,-2.450768 42.46777,-3.480006 14.15553,-0.606237 17.30654,-0.47548 22.96875,0.953133 3.60937,0.910668 11.61065,2.097377 17.78061,2.637129 12.45715,1.089762 16.88607,2.055154 21.3741,4.659009 1.66803,0.967758 4.93123,2.248127 7.25154,2.845266 3.69725,0.951497 13.69499,4.812361 23.23493,8.972712 1.69328,0.738434 3.90812,1.342608 4.92188,1.342608 1.01376,0 1.84319,0.430919 1.84319,0.957599 0,0.526679 1.16016,1.432586 2.57812,2.013127 9.08371,3.719018 23.60518,10.817283 25.77619,12.599707 1.4152,1.161878 3.52457,2.402136 4.6875,2.756129 3.21628,0.979023 9.26706,5.715135 18.04577,14.12493 4.36781,4.184255 9.8302,9.155414 12.13865,11.047008 2.30844,1.89159 5.56842,5.63998 7.2444,8.32975 1.67598,2.68977 5.24481,6.78894 7.93075,9.10925 2.68594,2.32031 4.91785,4.57885 4.95982,5.01898 0.0703,0.73714 5.5122,7.40485 11.58927,14.19977 6.1965,6.92845 10.04953,11.92676 10.04953,13.03667 0,0.66214 1.60034,3.69507 3.55631,6.73985 6.78214,10.55748 9.93955,24.53625 6.23625,27.60971 -3.13651,2.60307 -3.2967,4.31585 -0.88766,9.49067 1.27973,2.74895 2.33091,6.18466 2.33594,7.63489 0.0114,3.29179 3.34937,13.94148 5.93189,18.92571 1.06867,2.0625 2.23829,5.64844 2.59916,7.96875 1.76863,11.37149 3.71325,19.86776 5.19023,22.67655 1.11864,2.12734 1.8608,6.64621 2.35753,14.3547 0.61049,9.47376 2.80693,31.87911 4.13572,42.1875 0.69583,5.39812 1.9417,11.32674 2.60619,12.40191 0.36825,0.59583 1.10813,3.53354 1.64419,6.52821 1.15085,6.42931 2.67581,11.29683 4.34117,13.85661 0.66169,1.01706 1.20308,2.52556 1.20308,3.3522 0,0.82664 1.02077,2.46194 2.26837,3.634 1.2476,1.17206 2.80055,3.46044 3.451,5.0853 0.65044,1.62485 2.58279,4.34567 4.29412,6.04628 1.71134,1.70059 3.11151,3.67385 3.11151,4.38499 0,0.71115 1.52908,4.17132 3.39797,7.68926 1.86888,3.51793 3.76859,8.08374 4.22156,10.14624 0.79798,3.63335 1.00402,5.13754 2.27988,16.64472 0.62154,5.60576 -0.94406,14.76153 -2.52417,14.76153 -0.96486,0 -17.99922,11.25308 -26.12524,17.25862 -6.94103,5.12977 -14.15725,8.47996 -15.07323,6.99789 -0.51437,-0.83227 -4.7974,-0.97037 -16.76265,-0.54051 -14.31139,0.51416 -16.70832,0.37782 -21.88356,-1.24471 -7.02248,-2.20167 -10.40009,-2.29427 -15.68393,-0.43003 -2.20776,0.77894 -4.2383,1.19207 -4.51231,0.91807 -0.274,-0.27401 0.95197,-1.73793 2.72437,-3.25316 3.9286,-3.35856 1.8792,-3.85791 -3.84604,-0.93712 -4.69096,2.39316 -5.07252,0.65751 -0.90015,-4.09457 1.54687,-1.76179 2.8125,-3.45073 2.8125,-3.7532 0,-0.92433 -3.11444,0.48266 -6.32813,2.85882 -2.72087,2.01178 -3.04687,2.07261 -3.04687,0.56856 0,-0.92634 3.63004,-5.09265 8.06675,-9.25846 9.13028,-8.57279 16.38317,-12.12078 28.027,-13.71036 9.44102,-1.28886 13.48137,-2.65998 15.53627,-5.27236 2.10343,-2.67408 2.41121,-6.73248 0.51057,-6.73248 -0.7133,0 -1.5194,-0.85082 -1.79134,-1.89071 -0.82917,-3.17074 -8.33964,-5.77782 -18.89457,-6.55878 -10.14856,-0.7509 -24.71003,-4.1874 -26.40178,-6.2308 -0.57247,-0.69147 -2.61587,-1.25721 -4.54089,-1.25721 -2.61476,0 -3.61456,-0.43791 -3.95279,-1.73128 -0.32051,-1.22563 -1.0842,-1.61056 -2.61483,-1.31797 -1.18917,0.22733 -2.44739,-0.0483 -2.79608,-0.61247 -0.34868,-0.56417 -1.66018,-1.02578 -2.91444,-1.02578 -1.26517,0 -2.80181,-0.83479 -3.45144,-1.875 -0.64402,-1.03125 -1.68311,-1.875 -2.30908,-1.875 -0.62597,0 -2.19281,-1.05469 -3.48187,-2.34375 -1.28906,-1.28906 -2.9809,-2.34375 -3.75963,-2.34375 -0.77873,0 -1.86744,-0.84375 -2.41935,-1.875 -0.55191,-1.03125 -1.62143,-1.875 -2.37673,-1.875 -0.7553,0 -1.37327,-0.35839 -1.37327,-0.79643 0,-0.43802 -1.25795,-2.65287 -2.79544,-4.92187 -1.53749,-2.26899 -2.80311,-4.86373 -2.8125,-5.76608 -0.009,-0.90234 -0.64987,-1.64062 -1.42331,-1.64062 -0.77344,0 -1.40625,-0.6087 -1.40625,-1.35266 0,-0.74397 -0.87723,-2.83946 -1.9494,-4.65665 -1.07216,-1.81718 -1.69809,-3.71059 -1.39096,-4.20756 0.30714,-0.49696 0.0776,-1.20072 -0.51,-1.5639 -1.50669,-0.9312 -10.01181,3.47224 -10.53911,5.45652 -0.26905,1.0124 -0.98324,1.43488 -1.85813,1.09916 -0.8537,-0.3276 -1.81701,0.19444 -2.41271,1.30749 -1.74866,3.26742 -12.86264,11.49385 -14.61816,10.82019 -1.12387,-0.43127 -2.74,0.62434 -5.5107,3.59945 -2.15625,2.31533 -4.85765,4.71126 -6.00314,5.32431 -1.14548,0.61304 -2.08269,1.73258 -2.08269,2.48788 0,0.7553 -0.84375,1.37327 -1.875,1.37327 -1.21335,0 -1.875,0.625 -1.875,1.77114 0,0.97412 -0.81627,2.76709 -1.81394,3.98438 -1.56977,1.91531 -2.07284,2.05549 -3.73728,1.04135 -2.54586,-1.55116 -2.79345,-1.48812 -2.25418,0.57403 0.31567,1.20712 -0.15155,1.90491 -1.51402,2.2612 -1.1157,0.29177 -2.41303,1.78455 -2.99048,3.44104 -0.75486,2.16538 -1.44687,2.79019 -2.66287,2.40425 -2.07995,-0.66015 -13.15223,9.75229 -13.15223,12.36844 0,0.99086 -1.26563,2.73728 -2.8125,3.88093 -1.54688,1.14366 -2.8125,2.88747 -2.8125,3.87515 0,1.02043 -1.08771,2.32384 -2.51922,3.01881 -3.04496,1.47827 -13.93801,14.74921 -17.54265,21.37213 -2.21752,4.07431 -2.41556,5.00118 -1.34706,6.30443 1.10561,1.3485 0.99781,1.46217 -0.91825,0.96822 -1.19788,-0.30881 -4.5595,0.27966 -7.5,1.31292 -4.20727,1.47838 -8.58533,1.9672 -20.79782,2.32216 -8.50781,0.24727 -17.36719,0.92229 -19.6875,1.50003 -2.32031,0.57775 -7.38281,1.11962 -11.25,1.20417 -3.86719,0.0846 -10.19531,0.26914 -14.0625,0.41021 -7.77504,0.28362 -11.2632,-0.33411 -15.46875,-2.73942 -2.84125,-1.62501 -7.99928,-1.88246 -11.01563,-0.54981 -1.01098,0.44666 -1.64062,0.32656 -1.64062,-0.31296 0,-0.57079 0.42187,-1.0378 0.9375,-1.0378 0.51562,0 0.9375,-0.41384 0.9375,-0.91964 0,-1.73792 -4.45312,-2.06222 -7.39903,-0.53883 -2.5941,1.34147 -4.32451,0.5662 -1.97597,-0.88528 1.11937,-0.6918 1.266,-4.21875 0.1754,-4.21875 -0.41916,0 -1.97465,1.26562 -3.45665,2.8125 -3.42183,3.57162 -4.94419,3.65198 -2.43529,0.12855 1.76229,-2.4749 1.7649,-3.87855 0.007,-3.87855 -0.39013,0 -2.02513,1.10718 -3.63334,2.4604 -3.61627,3.04289 -4.6522,2.33189 -2.00961,-1.37927 2.75048,-3.8627 2.4225,-5.9253 -0.39554,-2.48738 -2.27831,2.77948 -2.30543,2.78608 -2.31003,0.56187 -0.007,-3.02291 8.74717,-11.42126 13.621,-13.06848 2.04495,-0.69113 5.87731,-2.70811 8.51636,-4.48216 5.68695,-3.82295 11.52864,-4.98977 25.67048,-5.12745 5.41406,-0.0527 12.14444,-0.58249 14.95639,-1.17731 4.24052,-0.89699 5.41445,-1.60085 6.88194,-4.12623 1.57888,-2.71708 1.65845,-3.72602 0.73938,-9.375 -0.56646,-3.48163 -1.18157,-10.60417 -1.36691,-15.82786 -0.18536,-5.22368 -0.64374,-9.99392 -1.01863,-10.60052 -0.66216,-1.07138 -2.66623,-18.78227 -2.65864,-23.49561 0.002,-1.28906 0.24473,-5.29169 0.53924,-8.89473 0.3205,-3.92105 0.16238,-6.78155 -0.39388,-7.12535 -0.59672,-0.36879 -0.36566,-3.39285 0.64555,-8.44902 2.32317,-11.61603 2.32714,-11.57687 -1.20832,-11.91792 -2.49761,-0.24094 -3.23551,0.13551 -4.13487,2.10938 -1.4042,3.08188 -2.88529,3.1231 -2.11622,0.0589 0.73377,-2.92357 -0.76708,-3.05229 -2.73276,-0.23437 l -1.47142,2.10937 -0.0492,-2.10937 c -0.0698,-2.99564 -2.67248,-2.65554 -3.03378,0.39645 -0.16315,1.37821 -0.88353,2.69883 -1.60083,2.93473 -0.98687,0.32454 -1.15359,-0.1711 -0.68527,-2.03708 0.36486,-1.4546 0.22688,-2.46596 -0.33667,-2.46596 -0.52545,0 -0.95536,0.58116 -0.95536,1.29146 0,0.7103 -0.70279,1.87046 -1.56175,2.57813 -1.40794,1.15993 -1.49852,1.03273 -0.91964,-1.29147 0.67905,-2.72642 -0.14912,-3.32261 -2.01861,-1.45312 -0.875,0.875 -1.125,0.76048 -1.125,-0.51533 0,-1.27173 -0.35988,-1.43894 -1.6015,-0.74409 -1.16539,0.65218 -1.91573,0.4734 -2.7554,-0.65654 -0.94451,-1.27101 -1.48833,-1.3488 -2.9968,-0.42868 -1.43255,0.87381 -2.54118,0.87381 -4.97897,0 -1.72484,-0.61826 -3.39975,-1.48555 -3.72202,-1.92732 -0.32226,-0.44177 -0.87546,-0.33476 -1.22933,0.23781 -0.36232,0.58625 -1.64749,0.78902 -2.94186,0.46415 -1.26416,-0.31728 -2.88478,-0.0903 -3.60138,0.50444 -0.98862,0.82048 -1.39393,0.80826 -1.68023,-0.0507 -0.28491,-0.8547 -1.09149,-0.88303 -3.29273,-0.11568 -1.60346,0.55897 -3.13437,0.79733 -3.40201,0.52967 -0.49359,-0.49357 -5.69481,-0.97992 -14.20402,-1.32814 -2.57812,-0.10552 -4.99745,-0.65512 -5.37627,-1.22135 -1.30004,-1.9432 -0.71719,4.73109 0.81654,9.35035 0.84371,2.54108 3.5859,8.95838 6.09375,14.26068 2.50785,5.3023 4.55973,10.49973 4.55973,11.54984 0,1.0501 1.34978,3.87113 2.99952,6.26894 1.64974,2.39781 3.1069,5.72307 3.23813,7.38948 0.13124,1.66641 1.26498,4.63213 2.51943,6.59051 2.86207,4.46807 3.81329,11.20967 2.05882,14.59142 -0.70781,1.36431 -1.06143,3.34285 -0.78582,4.39678 0.2756,1.05393 0.0609,1.91623 -0.47708,1.91623 -1.44962,0 -3.83478,5.31019 -3.30138,7.34997 0.32106,1.22771 -0.13503,1.92296 -1.49475,2.27853 -1.25603,0.32847 -2.16439,1.54976 -2.53651,3.41036 -0.31886,1.5943 -0.94888,2.89869 -1.40005,2.89869 -0.45117,0 -0.82031,0.54871 -0.82031,1.21935 0,2.29606 -2.34224,6.18415 -3.98407,6.6135 -1.00453,0.26269 -1.64093,1.32772 -1.64093,2.74614 0,2.42174 -2.52002,9.23629 -3.71502,10.04601 -0.38048,0.25781 -1.16569,1.36944 -1.74491,2.47028 -0.57921,1.10085 -2.22439,2.28958 -3.65596,2.64162 -1.43158,0.35205 -3.65755,1.34536 -4.94661,2.20736 -1.28906,0.862 -3.98453,1.64188 -5.98994,1.73306 -2.0054,0.0912 -3.90384,0.53207 -4.21875,0.97976 -0.63122,0.89738 -17.486,0.0215 -19.89603,-1.03397 -0.83103,-0.36394 -4.41696,0.0336 -7.96875,0.88334 -4.20427,1.00588 -11.31546,1.61248 -20.37824,1.73832 -11.99909,0.16661 -14.04354,0.41322 -14.81221,1.78676 -1.09555,1.95764 -2.81903,2.12588 -2.08122,0.20316 0.4507,-1.17453 0.0749,-1.23046 -2.42103,-0.36036 -4.34361,1.51419 -4.57696,0.27302 -0.41081,-2.18507 4.29784,-2.53579 2.21328,-3.63096 -2.38509,-1.25306 -3.81746,1.97409 -3.62857,0.88289 0.59609,-3.44355 3.56395,-3.64982 2.94786,-4.73315 -1.16075,-2.04108 -1.27092,0.83275 -2.3092,1.14915 -2.30726,0.70313 0.0152,-3.51877 15.56301,-19.89437 20.68752,-21.78897 1.76837,-0.65379 5.53553,-2.10204 8.37147,-3.21834 3.48629,-1.37229 7.23016,-2.03352 11.55977,-2.04164 5.31254,-0.01 6.63739,-0.33144 7.77618,-1.887 2.66463,-3.63977 -0.27478,-9.43612 -6.92337,-13.65253 -2.38819,-1.51454 -3.95535,-2.75372 -3.48258,-2.75372 1.81966,0 -11.52252,-12.50174 -16.19563,-15.17544 -2.70703,-1.54883 -4.92187,-3.20669 -4.92187,-3.68415 0,-0.47746 -0.97386,-1.31183 -2.16413,-1.85414 -1.19026,-0.54233 -2.61326,-2.17596 -3.16221,-3.6303 -0.54895,-1.45435 -2.21182,-3.42508 -3.69525,-4.3794 -1.48344,-0.95433 -5.01747,-3.94991 -7.85341,-6.65684 -2.83594,-2.70692 -5.86102,-4.92405 -6.72238,-4.92696 -0.97589,-0.004 -1.79895,-1.06525 -2.18387,-2.81777 -0.33975,-1.54688 -0.96035,-2.8125 -1.37911,-2.8125 -0.41875,0 -1.02608,-1.05469 -1.34962,-2.34375 -0.32354,-1.28906 -1.16729,-2.34375 -1.875,-2.34375 -0.70771,0 -1.52776,-0.94922 -1.82233,-2.10938 -0.29456,-1.16015 -1.39829,-2.64236 -2.45273,-3.29378 -1.70363,-1.05249 -2.37463,-0.76272 -6.02457,2.60168 -2.25909,2.08234 -4.62728,5.04111 -5.26265,6.57503 -0.63537,1.53393 -1.48464,2.78895 -1.88727,2.78895 -0.40263,0 -1.17325,1.26562 -1.7125,2.8125 -0.53924,1.54687 -1.42425,2.8125 -1.9667,2.8125 -0.54245,0 -0.98627,0.50016 -0.98627,1.11145 0,0.6113 -0.87438,2.04219 -1.94305,3.17974 -1.06869,1.13756 -2.043,2.74925 -2.16516,3.58152 -0.32562,2.21865 -6.2986,8.06479 -8.23976,8.06479 -1.31374,0 -1.56306,0.54714 -1.17481,2.57812 0.43663,2.28412 0.0524,2.78601 -3.36923,4.40097 -2.12413,1.00256 -4.26974,2.58459 -4.76801,3.51562 -0.49827,0.93103 -1.52391,1.69279 -2.27921,1.69279 -0.7553,0 -1.37327,0.79802 -1.37327,1.77337 0,1.10625 -0.87526,1.99304 -2.3267,2.35733 -1.27968,0.32118 -2.97801,1.84347 -3.77407,3.38288 -0.79606,1.53941 -1.825,2.79892 -2.28655,2.79892 -0.46155,0 -2.54362,1.6875 -4.62683,3.75 -2.08322,2.0625 -4.21133,3.75 -4.72913,3.75 -0.51781,0 -2.32725,1.20376 -4.02097,2.67502 -1.69373,1.47125 -4.13419,3.22571 -5.42325,3.89878 -1.28906,0.67307 -2.89502,2.00056 -3.56878,2.94998 -0.67377,0.94942 -1.81909,1.72622 -2.54515,1.72622 -0.72605,0 -1.7457,0.79522 -2.26586,1.76716 -0.52016,0.97194 -2.00389,2.03274 -3.29718,2.35733 -1.29897,0.32602 -3.00634,1.85665 -3.81466,3.41974 -0.80477,1.55627 -1.82583,2.60547 -2.26902,2.33156 -0.44318,-0.2739 -1.68044,0.98443 -2.74946,2.79628 -1.06902,1.81185 -2.94069,3.67334 -4.15927,4.13664 -1.2186,0.4633 -3.31113,2.14432 -4.6501,3.73558 -1.33895,1.59127 -2.88358,2.89321 -3.4325,2.89321 -0.54891,0 -0.99802,0.42187 -0.99802,0.9375 0,0.51562 -0.82891,0.9375 -1.84202,0.9375 -1.01311,0 -2.32407,0.90074 -2.91326,2.00166 -0.84017,1.56986 -1.24127,1.72657 -1.85935,0.72648 -0.57094,-0.9238 -1.27357,-0.19082 -2.54998,2.66011 -1.24072,2.77126 -2.05572,3.64142 -2.75532,2.94182 -0.69959,-0.69959 -1.17976,-0.69198 -1.62334,0.0258 -0.34644,0.56055 -1.48824,1.01919 -2.53733,1.01919 -1.12778,0 -2.11066,0.77713 -2.40463,1.90128 -0.36154,1.3825 -0.99507,1.74328 -2.32178,1.3222 -1.34751,-0.42769 -1.96214,-0.0531 -2.35073,1.43299 -0.31618,1.20904 -1.03824,1.81558 -1.80922,1.51972 -0.70567,-0.27079 -1.28304,-0.18375 -1.28304,0.19343 0,0.69072 -2.82117,2.39642 -5.85937,3.54262 -0.90235,0.34042 -1.64063,0.99161 -1.64063,1.4471 0,0.45548 -1.21397,0.82816 -2.69771,0.82816 -1.48374,0 -3.25244,0.66842 -3.93045,1.48536 -0.67801,0.81696 -3.13345,2.79309 -5.45651,4.3914 l -4.22378,2.90604 -15.9864,0.22819 c -15.38993,0.21969 -22.89678,1.10489 -26.71942,3.1507 -1.99609,1.06827 -7.14064,1.10095 -12.3894,0.0787 z"
     id="path4150" />
  <path
     style="fill:#000000"
     d="m 1085.625,319.14364 c -2.8359,-0.74689 -6.3661,-1.84556 -7.8447,-2.4415 -2.6138,-1.0534 -2.6719,-1.22436 -2.0931,-6.14972 1.1958,-10.17398 5.8174,-15.57697 18.9022,-22.09785 7.9254,-3.94967 8.957,-4.8117 15.3698,-12.84253 11.0843,-13.88092 25.2669,-28.79772 52.9829,-55.72595 l 26.0096,-25.27016 -0.4118,-4.28513 c -0.2733,-2.84388 -1.7261,-6.46437 -4.3195,-10.7644 -3.6181,-5.9988 -3.9079,-6.9769 -3.9079,-13.19004 0,-7.77889 -0.3068,-8.2028 -9.0929,-12.56095 -13.8281,-6.85913 -31.6118,-7.81326 -61.2196,-3.28456 -22.9496,3.5103 -40.0239,3.69763 -48.0469,0.52717 -3.8602,-1.5255 -5.3906,-2.62407 -5.3906,-3.86976 0,-2.99319 5.9015,-13.19688 13.5559,-23.43826 4.0464,-5.41406 8.4225,-12.15571 9.7245,-14.98145 3.1226,-6.77731 3.7664,-16.926655 1.6001,-25.229887 l -1.5634,-5.992586 3.2235,-3.382414 c 1.7729,-1.860327 6.173,-7.41432 9.7781,-12.342206 3.6049,-4.927887 8.2986,-10.452731 10.4304,-12.277433 l 3.8759,-3.317639 0,-23.131054 0,-23.13105356 2.5781,0.60536338 c 1.418,0.33294987 8.1874,2.88297368 15.0432,5.66671958 6.8559,2.783746 14.243,5.3050426 16.4159,5.6028816 5.4082,0.741265 10.9997,-0.948945 16.1534,-4.8828366 4.1167,-3.1423773 4.4973,-3.2489198 7.7722,-2.1756467 10.5109,3.4447586 16.9462,11.5055363 19.2798,24.1495963 l 1.1371,6.161323 6.0445,1.24193 c 14.8684,3.054916 26.101,4.130825 48.2321,4.619899 31.6051,0.698443 46.8352,-0.609608 111.0937,-9.5414 42.6578,-5.929351 49.393,-6.510898 75.4688,-6.516359 19.4303,-0.004 26.2768,0.338271 33.75,1.68758 12.8633,2.322509 30.5811,8.325908 39.9822,13.547317 9.9044,5.500937 22.2616,17.625221 34.5836,33.931855 17.3511,22.961803 24.504,28.4446 61.6923,47.28727 27.6268,13.99806 37.4793,20.28102 49.0223,31.26162 24.9561,23.74001 59.8766,71.96992 75.0176,103.60939 2.588,5.40824 2.6205,5.37655 -7.9843,7.79111 -11.4359,2.60381 -31.3699,2.39117 -41.3592,-0.44119 -14.9105,-4.22769 -25.5831,-10.13711 -49.9754,-27.67115 -8.101,-5.8233 -18.1041,-12.56417 -22.2291,-14.97971 -6.8356,-4.00281 -20.576,-9.98234 -22.9385,-9.98234 -2.8766,0 1.1092,13.56813 6.2699,21.34286 1.8391,2.77078 8.4847,10.46792 14.7681,17.10475 7.1669,7.57018 12.6192,14.27104 14.631,17.98155 2.9899,5.51436 3.207,6.49822 3.207,14.53959 0,5.27671 -0.4208,9.04579 -1.084,9.70892 -1.7565,1.75655 -13.5652,-0.70621 -20.8423,-4.34676 -9.1656,-4.58536 -16.3813,-12.35264 -28.6704,-30.86216 -14.5669,-21.94011 -21.7614,-28.46618 -36.0579,-32.70795 -6.8765,-2.04026 -23.7139,-2.10809 -25.3787,-0.10223 -1.8682,2.25115 -0.4318,6.48079 4.6664,13.74041 2.5908,3.68916 4.7106,7.10147 4.7106,7.5829 0,0.48143 -1.8396,3.05199 -4.0879,5.71235 -2.2484,2.66036 -8.435,10.53233 -13.7482,17.49327 -12.9476,16.96313 -20.6454,25.51066 -28.8478,32.0325 -7.5628,6.01329 -17.6057,11.16142 -25.5036,13.07351 -9.4515,2.28824 -32.8125,0.7571 -32.8125,-2.15062 0,-0.5358 1.3711,-3.5577 3.0469,-6.71534 4.1476,-7.81525 13.019,-16.97207 25.4597,-26.27859 13.3579,-9.99276 18.6542,-15.43889 22.3873,-23.02097 2.7841,-5.65442 3.0123,-6.82989 3.0123,-15.51362 0,-8.24538 -0.3093,-10.05585 -2.5274,-14.78872 -3.5595,-7.59555 -10.3576,-14.34291 -24.0496,-23.87007 -18.617,-12.95396 -21.7788,-15.87002 -31.6609,-29.19983 -0.1378,-0.1859 -4.1449,0.77907 -8.9046,2.14438 -16.3149,4.67989 -27.2775,11.98284 -44.062,29.35279 -24.2499,25.09565 -32.4346,32.82275 -39.9219,37.68958 l -7.6889,4.99794 1.9214,3.76617 c 1.0567,2.0714 8.5245,10.55746 16.5951,18.85791 16.5274,16.99806 20.4278,22.88061 21.288,32.10634 0.2814,3.01697 0.1384,6.75101 -0.3176,8.29789 -0.791,2.68342 -1.0621,2.81085 -5.9066,2.77644 -18.5863,-0.13197 -57.8775,-30.67046 -67.5267,-52.48403 -2.6704,-6.03699 -2.1756,-14.08967 1.3027,-21.19899 1.3961,-2.85364 6.1666,-9.37174 10.601,-14.48468 9.5872,-11.05419 12.9056,-15.68953 15.4033,-21.51627 2.4505,-5.71685 2.348,-7.41336 -0.5269,-8.72323 -3.4898,-1.59011 -9.9584,-1.34043 -23.0415,0.88934 -13.098,2.23232 -20.8342,1.93428 -25.797,-0.99386 l -3.0916,-1.8241 -2.7884,8.7049 c -1.5337,4.78769 -3.083,10.98855 -3.4431,13.77969 -0.36,2.79113 -0.9708,5.91854 -1.3574,6.94979 -1.397,3.72716 -80.1562,55.75946 -93.5277,61.78913 -3.3412,1.50666 -3.8256,2.14567 -4.3679,5.76239 -1.436,9.57612 -10.5113,21.77362 -20.0718,26.97706 -9.4021,5.11725 -21.5853,6.57685 -32.0007,3.83381 z"
     id="path4146" />
</svg>
